M48
METRIC,LZ,000.000
;FILE_FORMAT=3:3
;TYPE=PLATED
;Layer: PTH_Through_Via
;EasyEDA v6.5.22, 2023-01-18 14:56:14
;eb7a50f388b942ddb5e33576d95934dd,93c32eb58a6e4653a9b851d96a472eee,10
;Gerber Generator version 0.2
;Holesize 1 = 0.305 mm
T01C0.305
%
G05
G90
T01
X010541Y-001651
X019812Y002413
X010541Y-000127
X019812Y004191
X024384Y010922
X018415Y004826
X013208Y038735
X014732Y014732
X015621Y003683
X-005334Y035814
X-005334Y034544
X-009525Y028448
X-008890Y029210
X024384Y012700
X-018161Y022225
X-017399Y017907
X016256Y036195
X006858Y013589
X-010668Y031242
X014859Y013335
X-012827Y035052
X-010414Y037592
X-014097Y028575
X000762Y-001270
X022098Y039624
X009017Y-002159
X020193Y-000254
X011684Y000127
X015113Y025908
X004572Y010033
X017272Y008001
X017272Y006096
X021336Y031877
X014097Y015875
X009779Y015240
X014351Y028575
X011938Y002540
X-016256Y023241
X-012446Y025019
X001143Y008001
X-005334Y007366
X-013970Y014859
X-004953Y038735
X013208Y024130
X-007874Y028194
X004572Y007112
X-004064Y033528
X-002032Y029337
X-005969Y030734
X017526Y038100
X020574Y038862
X020955Y037465
X024765Y036322
X002667Y034798
X-018923Y021463
X-017526Y020955
X-012827Y027559
X-015113Y029210
X-001905Y027305
X-003683Y028702
X-015939Y025857
X008636Y031623
X-006536Y025891
X-004064Y022860
X022860Y038481
X017526Y031496
X014605Y037338
M30
