G04 Layer: BottomSilkscreenLayer*
G04 EasyEDA v6.5.22, 2023-01-18 14:56:14*
G04 eb7a50f388b942ddb5e33576d95934dd,93c32eb58a6e4653a9b851d96a472eee,10*
G04 Gerber Generator version 0.2*
G04 Scale: 100 percent, Rotated: No, Reflected: No *
G04 Dimensions in millimeters *
G04 leading zeros omitted , absolute positions ,4 integer and 5 decimal *
%FSLAX45Y45*%
%MOMM*%

%ADD10C,0.0001*%

%LPD*%
G36*
X591007Y3365804D02*
G01*
X557987Y3322574D01*
X550926Y3312007D01*
X543763Y3300272D01*
X525932Y3268979D01*
X503986Y3228644D01*
X478790Y3180740D01*
X451002Y3126943D01*
X410209Y3046272D01*
X379679Y2984855D01*
X345541Y2915259D01*
X305714Y2832658D01*
X279196Y2776474D01*
X255574Y2725420D01*
X235610Y2681020D01*
X220217Y2644952D01*
X214426Y2630525D01*
X210058Y2618790D01*
X200914Y2590292D01*
X196189Y2576626D01*
X191465Y2563876D01*
X186893Y2552446D01*
X182626Y2542692D01*
X178816Y2534869D01*
X175564Y2529382D01*
X174193Y2527655D01*
X173380Y2527147D01*
X172313Y2527096D01*
X170942Y2527401D01*
X169316Y2528062D01*
X165303Y2530602D01*
X160223Y2534615D01*
X154228Y2539949D01*
X139750Y2554478D01*
X122326Y2573629D01*
X102463Y2596845D01*
X80772Y2623566D01*
X57658Y2653131D01*
X14579Y2709773D01*
X-8128Y2738729D01*
X-34950Y2772206D01*
X-52171Y2793288D01*
X-68580Y2812897D01*
X-97739Y2846628D01*
X-109982Y2860090D01*
X-120345Y2870860D01*
X-179120Y2926588D01*
X-207213Y2859328D01*
X-214172Y2841244D01*
X-222046Y2819247D01*
X-230632Y2793949D01*
X-239775Y2766009D01*
X-249275Y2736138D01*
X-258927Y2704896D01*
X-280162Y2633370D01*
X-297078Y2573172D01*
X-310489Y2521712D01*
X-315417Y2500934D01*
X-318922Y2484323D01*
X-320751Y2472537D01*
X-321513Y2463647D01*
X-322986Y2459228D01*
X-325272Y2455316D01*
X-328371Y2452014D01*
X-332028Y2449322D01*
X-336245Y2447188D01*
X-340868Y2445715D01*
X-345795Y2444800D01*
X-350875Y2444597D01*
X-356057Y2445004D01*
X-361238Y2446121D01*
X-366268Y2447848D01*
X-371043Y2450338D01*
X-375462Y2453487D01*
X-379425Y2457348D01*
X-383844Y2463444D01*
X-386689Y2466898D01*
X-390499Y2470912D01*
X-395274Y2475433D01*
X-407466Y2485796D01*
X-422808Y2497785D01*
X-441045Y2511145D01*
X-461670Y2525674D01*
X-484378Y2541016D01*
X-508711Y2557068D01*
X-534416Y2573477D01*
X-560984Y2590088D01*
X-581304Y2602484D01*
X-628904Y2630576D01*
X-655726Y2645714D01*
X-681685Y2659938D01*
X-706475Y2672994D01*
X-731113Y2685237D01*
X-759866Y2698597D01*
X-789127Y2711246D01*
X-811174Y2720289D01*
X-840384Y2731516D01*
X-869086Y2741777D01*
X-896874Y2751023D01*
X-923340Y2758998D01*
X-935939Y2762554D01*
X-959764Y2768549D01*
X-981303Y2773121D01*
X-991057Y2774797D01*
X-1000150Y2776067D01*
X-1008481Y2776931D01*
X-1016000Y2777337D01*
X-1022654Y2777337D01*
X-1028395Y2776829D01*
X-1033221Y2775864D01*
X-1037031Y2774391D01*
X-1038555Y2773476D01*
X-1040180Y2771952D01*
X-1040892Y2770124D01*
X-1042314Y2763469D01*
X-1043736Y2752953D01*
X-1045057Y2738780D01*
X-1046327Y2721152D01*
X-1048613Y2676652D01*
X-1050493Y2621280D01*
X-1051966Y2556916D01*
X-1052931Y2485390D01*
X-1053236Y2447493D01*
X-1053338Y2392680D01*
X-961440Y2392680D01*
X-961288Y2459126D01*
X-960526Y2512720D01*
X-959103Y2560269D01*
X-958087Y2580487D01*
X-956868Y2597759D01*
X-955395Y2612288D01*
X-953516Y2624277D01*
X-951280Y2633980D01*
X-949960Y2638044D01*
X-948537Y2641600D01*
X-946962Y2644698D01*
X-945235Y2647340D01*
X-943356Y2649575D01*
X-941324Y2651455D01*
X-939139Y2652928D01*
X-936752Y2654096D01*
X-934212Y2654960D01*
X-931468Y2655519D01*
X-925372Y2655925D01*
X-921105Y2655671D01*
X-916076Y2654960D01*
X-903986Y2652014D01*
X-889355Y2647289D01*
X-872439Y2640939D01*
X-853440Y2633065D01*
X-832612Y2623769D01*
X-810260Y2613202D01*
X-786587Y2601518D01*
X-761847Y2588869D01*
X-736244Y2575306D01*
X-696874Y2553665D01*
X-656996Y2530805D01*
X-617423Y2507183D01*
X-585317Y2487218D01*
X-560527Y2471267D01*
X-536854Y2455418D01*
X-514400Y2439924D01*
X-493572Y2424785D01*
X-459181Y2398776D01*
X-442417Y2385771D01*
X-427786Y2374087D01*
X-415137Y2363520D01*
X-404368Y2353919D01*
X-395274Y2345080D01*
X-387807Y2336901D01*
X-381762Y2329129D01*
X-379222Y2325370D01*
X-376986Y2321610D01*
X-373430Y2314194D01*
X-370941Y2306675D01*
X-369316Y2298852D01*
X-368452Y2290622D01*
X-368249Y2281783D01*
X-375259Y2133854D01*
X-389557Y1800656D01*
X-292760Y1800656D01*
X-292303Y1888286D01*
X-291947Y1914448D01*
X-290779Y1960270D01*
X-288442Y2012543D01*
X-285191Y2064613D01*
X-282600Y2097074D01*
X-279044Y2135835D01*
X-276402Y2161540D01*
X-273507Y2187143D01*
X-270357Y2212695D01*
X-266090Y2244394D01*
X-262432Y2269591D01*
X-255473Y2313330D01*
X-250088Y2344267D01*
X-245516Y2368854D01*
X-239471Y2399233D01*
X-231749Y2435301D01*
X-226364Y2459075D01*
X-220725Y2482646D01*
X-213410Y2511704D01*
X-207314Y2534666D01*
X-197764Y2568600D01*
X-189433Y2596438D01*
X-169011Y2660446D01*
X-159004Y2690723D01*
X-150571Y2715310D01*
X-144119Y2732989D01*
X-139700Y2743250D01*
X-139344Y2743504D01*
X-137922Y2742844D01*
X-135991Y2741320D01*
X-130505Y2735783D01*
X-123037Y2727096D01*
X-113741Y2715514D01*
X-102819Y2701290D01*
X-76657Y2665780D01*
X-45821Y2622499D01*
X-11531Y2573274D01*
X34188Y2506319D01*
X85344Y2429764D01*
X123994Y2370734D01*
X244856Y2370734D01*
X292760Y2509875D01*
X303682Y2540812D01*
X328523Y2608834D01*
X351891Y2670251D01*
X371094Y2718866D01*
X383235Y2748940D01*
X395528Y2778709D01*
X412851Y2819806D01*
X435406Y2871470D01*
X458063Y2921711D01*
X480822Y2970174D01*
X503478Y3016656D01*
X518159Y3045764D01*
X536752Y3081426D01*
X553669Y3112719D01*
X568198Y3138220D01*
X574243Y3148380D01*
X579475Y3156610D01*
X583641Y3162655D01*
X586740Y3166414D01*
X587806Y3167380D01*
X588619Y3167735D01*
X589889Y3167278D01*
X590702Y3166719D01*
X593496Y3163722D01*
X598424Y3156813D01*
X604520Y3146704D01*
X611733Y3133699D01*
X620014Y3117951D01*
X631698Y3094736D01*
X642010Y3073552D01*
X664768Y3025190D01*
X689813Y2970123D01*
X716534Y2910078D01*
X754583Y2822346D01*
X789127Y2740660D01*
X819048Y2668320D01*
X843838Y2606903D01*
X866241Y2549956D01*
X885494Y2499055D01*
X893775Y2476398D01*
X900988Y2455875D01*
X907084Y2437688D01*
X911961Y2422042D01*
X915517Y2409139D01*
X917702Y2399233D01*
X918210Y2395423D01*
X918362Y2392324D01*
X917752Y2388209D01*
X916482Y2382723D01*
X914552Y2375966D01*
X908812Y2358796D01*
X900785Y2337358D01*
X890778Y2312314D01*
X878941Y2284222D01*
X865581Y2253742D01*
X851001Y2221433D01*
X835355Y2187956D01*
X817880Y2151227D01*
X798677Y2109927D01*
X786485Y2083054D01*
X769061Y2043734D01*
X755294Y2011730D01*
X744778Y1986635D01*
X729742Y1949653D01*
X717905Y1919427D01*
X706729Y1889658D01*
X698195Y1866087D01*
X686003Y1831187D01*
X678332Y1808175D01*
X667461Y1773834D01*
X658977Y1745386D01*
X649325Y1711350D01*
X641807Y1683004D01*
X630631Y1637487D01*
X624179Y1608785D01*
X619252Y1585722D01*
X585470Y1418691D01*
X560730Y1553870D01*
X555345Y1579981D01*
X550468Y1601673D01*
X540766Y1641144D01*
X533044Y1670405D01*
X519277Y1718716D01*
X507949Y1756003D01*
X495858Y1793951D01*
X483006Y1832406D01*
X464820Y1884121D01*
X452932Y1916582D01*
X443179Y1942490D01*
X425551Y1987600D01*
X402082Y2044750D01*
X388670Y2075891D01*
X375107Y2106472D01*
X364134Y2130450D01*
X347573Y2165502D01*
X333654Y2193696D01*
X244856Y2370734D01*
X123994Y2370734D01*
X154686Y2322880D01*
X184353Y2275535D01*
X208940Y2234742D01*
X218948Y2217420D01*
X227838Y2201265D01*
X237794Y2182520D01*
X252475Y2153869D01*
X264464Y2129688D01*
X273812Y2110028D01*
X287629Y2080158D01*
X303225Y2044700D01*
X316179Y2013762D01*
X324662Y1992833D01*
X332943Y1971700D01*
X350977Y1923389D01*
X362559Y1890522D01*
X371957Y1862734D01*
X384657Y1823313D01*
X395122Y1788972D01*
X401929Y1765807D01*
X413410Y1724761D01*
X422859Y1688998D01*
X428955Y1664919D01*
X437743Y1628343D01*
X444855Y1597507D01*
X453034Y1560068D01*
X462076Y1515770D01*
X470611Y1470812D01*
X476453Y1438249D01*
X484124Y1392174D01*
X493318Y1331925D01*
X500735Y1277467D01*
X505053Y1242974D01*
X509930Y1201166D01*
X513689Y1165961D01*
X517194Y1130452D01*
X521665Y1080109D01*
X526135Y1021842D01*
X530402Y955243D01*
X532028Y925271D01*
X540867Y743915D01*
X433730Y867714D01*
X403047Y901852D01*
X371856Y935482D01*
X323951Y985774D01*
X271475Y1039571D01*
X205435Y1105865D01*
X158242Y1152347D01*
X94945Y1213764D01*
X48158Y1258366D01*
X2794Y1300988D01*
X-45059Y1345082D01*
X-85039Y1381048D01*
X-125069Y1415948D01*
X-153060Y1439418D01*
X-170789Y1453845D01*
X-188468Y1468628D01*
X-204419Y1482547D01*
X-218643Y1495907D01*
X-231343Y1509014D01*
X-237083Y1515567D01*
X-242519Y1522171D01*
X-247548Y1528876D01*
X-252272Y1535633D01*
X-256641Y1542592D01*
X-260705Y1549755D01*
X-264464Y1557121D01*
X-267919Y1564792D01*
X-271119Y1572768D01*
X-274015Y1581048D01*
X-276656Y1589735D01*
X-279044Y1598828D01*
X-281228Y1608378D01*
X-283159Y1618437D01*
X-286359Y1640179D01*
X-288848Y1664309D01*
X-290576Y1691132D01*
X-291795Y1721002D01*
X-292455Y1754124D01*
X-292760Y1800656D01*
X-389557Y1800656D01*
X-396341Y1638858D01*
X-627684Y1792376D01*
X-695960Y1836775D01*
X-747623Y1869592D01*
X-794512Y1898548D01*
X-834440Y1922424D01*
X-851153Y1932076D01*
X-865378Y1940001D01*
X-876858Y1945995D01*
X-890828Y1952345D01*
X-896315Y1955139D01*
X-901649Y1958187D01*
X-906881Y1961489D01*
X-916787Y1968754D01*
X-925728Y1976628D01*
X-929741Y1980692D01*
X-933500Y1984857D01*
X-936853Y1989074D01*
X-939800Y1993290D01*
X-942340Y1997506D01*
X-944473Y2001621D01*
X-946099Y2005685D01*
X-947521Y2011425D01*
X-948944Y2020671D01*
X-950315Y2033320D01*
X-951636Y2049068D01*
X-954074Y2088692D01*
X-956259Y2137359D01*
X-958342Y2200046D01*
X-959967Y2268169D01*
X-960628Y2307183D01*
X-961440Y2392680D01*
X-1053338Y2392680D01*
X-1053541Y2296668D01*
X-1053998Y2222957D01*
X-1054709Y2158593D01*
X-1055573Y2105812D01*
X-1056589Y2066798D01*
X-1057706Y2043785D01*
X-1058316Y2038959D01*
X-1058621Y2038350D01*
X-1060653Y2038857D01*
X-1064463Y2040229D01*
X-1076350Y2045411D01*
X-1092657Y2053031D01*
X-1127150Y2069947D01*
X-1149604Y2080056D01*
X-1173784Y2090115D01*
X-1199388Y2100072D01*
X-1226159Y2109825D01*
X-1253845Y2119325D01*
X-1282242Y2128469D01*
X-1311046Y2137257D01*
X-1332788Y2143607D01*
X-1368958Y2153462D01*
X-1404569Y2162505D01*
X-1439214Y2170480D01*
X-1465834Y2176068D01*
X-1491234Y2180844D01*
X-1515160Y2184806D01*
X-1537309Y2187803D01*
X-1557528Y2189835D01*
X-1575511Y2190800D01*
X-1583588Y2190902D01*
X-1591005Y2190699D01*
X-1597710Y2190191D01*
X-1603756Y2189429D01*
X-1608988Y2188311D01*
X-1613712Y2186838D01*
X-1617980Y2185009D01*
X-1621688Y2182672D01*
X-1624685Y2179624D01*
X-1627124Y2175764D01*
X-1628851Y2170734D01*
X-1629968Y2164435D01*
X-1630426Y2156612D01*
X-1630273Y2147062D01*
X-1629460Y2135581D01*
X-1627936Y2121966D01*
X-1625803Y2106015D01*
X-1621606Y2079040D01*
X-1517091Y2079040D01*
X-1516989Y2082139D01*
X-1516735Y2082698D01*
X-1515872Y2083206D01*
X-1513027Y2083765D01*
X-1508912Y2083866D01*
X-1503476Y2083460D01*
X-1496923Y2082596D01*
X-1480464Y2079599D01*
X-1460195Y2075078D01*
X-1436725Y2069134D01*
X-1410614Y2062022D01*
X-1382471Y2053894D01*
X-1345387Y2042566D01*
X-1307236Y2030222D01*
X-1269288Y2017268D01*
X-1239774Y2006701D01*
X-1211732Y1996135D01*
X-1185773Y1985721D01*
X-1166164Y1977491D01*
X-1126642Y1960219D01*
X-1081633Y1939493D01*
X-1061415Y1929892D01*
X-1015644Y1907336D01*
X-979678Y1888896D01*
X-943457Y1869744D01*
X-922629Y1858467D01*
X-880821Y1835200D01*
X-828141Y1804822D01*
X-785774Y1779524D01*
X-732586Y1746707D01*
X-700532Y1726387D01*
X-647039Y1691487D01*
X-604164Y1662684D01*
X-561238Y1633169D01*
X-512978Y1599031D01*
X-459485Y1560068D01*
X-432765Y1540205D01*
X-395427Y1511909D01*
X-368858Y1491437D01*
X-337058Y1466545D01*
X-284276Y1424279D01*
X-263245Y1407109D01*
X-226669Y1376730D01*
X-169621Y1328166D01*
X-143916Y1305814D01*
X-92964Y1260449D01*
X-51562Y1222654D01*
X-27330Y1200048D01*
X-3098Y1177086D01*
X45212Y1130147D01*
X75133Y1100328D01*
X116636Y1058164D01*
X157276Y1015796D01*
X180086Y991565D01*
X208076Y961390D01*
X240792Y925525D01*
X272389Y890117D01*
X302717Y855370D01*
X326898Y827024D01*
X350062Y799388D01*
X384759Y756869D01*
X397100Y741222D01*
X629970Y741222D01*
X642518Y966622D01*
X647395Y1040180D01*
X651865Y1097737D01*
X654964Y1133094D01*
X658977Y1174953D01*
X667207Y1250086D01*
X673049Y1296873D01*
X678383Y1336344D01*
X686104Y1388160D01*
X691235Y1420063D01*
X695553Y1445310D01*
X702310Y1482801D01*
X711860Y1532026D01*
X716889Y1556359D01*
X723442Y1586484D01*
X731672Y1622196D01*
X743254Y1669186D01*
X752398Y1703984D01*
X765200Y1749806D01*
X778764Y1795018D01*
X793089Y1839671D01*
X802436Y1867255D01*
X820064Y1916480D01*
X828192Y1938121D01*
X845058Y1981149D01*
X862787Y2023770D01*
X881278Y2065985D01*
X893267Y2092248D01*
X905611Y2118360D01*
X915720Y2139188D01*
X941933Y2190953D01*
X952804Y2211578D01*
X978103Y2257806D01*
X995578Y2288540D01*
X1007516Y2309012D01*
X1035253Y2354986D01*
X1064158Y2400858D01*
X1090879Y2441702D01*
X1108049Y2467254D01*
X1122070Y2487676D01*
X1147216Y2523540D01*
X1169314Y2554325D01*
X1213459Y2614320D01*
X1252728Y2667152D01*
X1283208Y2707589D01*
X1302816Y2732582D01*
X1304442Y2733802D01*
X1306220Y2734208D01*
X1308100Y2733700D01*
X1310182Y2732430D01*
X1312367Y2730296D01*
X1314653Y2727401D01*
X1317091Y2723743D01*
X1322324Y2714244D01*
X1327962Y2701899D01*
X1333957Y2686862D01*
X1340307Y2669336D01*
X1348587Y2644190D01*
X1355496Y2621635D01*
X1362608Y2597099D01*
X1369822Y2570734D01*
X1377137Y2542743D01*
X1384503Y2513228D01*
X1391869Y2482392D01*
X1399133Y2450439D01*
X1406347Y2417419D01*
X1413408Y2383586D01*
X1421993Y2340305D01*
X1428546Y2305151D01*
X1434099Y2273858D01*
X1537411Y2273858D01*
X1537716Y2284069D01*
X1538427Y2293112D01*
X1539595Y2301036D01*
X1541170Y2308098D01*
X1543253Y2314448D01*
X1545844Y2320239D01*
X1548892Y2325674D01*
X1552397Y2330805D01*
X1556461Y2335936D01*
X1560982Y2341118D01*
X1572006Y2352497D01*
X1585315Y2364892D01*
X1600758Y2378252D01*
X1618183Y2392375D01*
X1637233Y2407158D01*
X1657857Y2422448D01*
X1679752Y2438095D01*
X1702765Y2453995D01*
X1726590Y2469997D01*
X1751177Y2485999D01*
X1776171Y2501798D01*
X1807718Y2521051D01*
X1839315Y2539593D01*
X1870456Y2557068D01*
X1894789Y2570175D01*
X1918411Y2582265D01*
X1941068Y2593238D01*
X1969465Y2606192D01*
X1999284Y2619146D01*
X2027326Y2630728D01*
X2052624Y2640533D01*
X2074214Y2648254D01*
X2091182Y2653487D01*
X2097633Y2655062D01*
X2102510Y2655874D01*
X2105609Y2655925D01*
X2108047Y2655570D01*
X2110333Y2654808D01*
X2112467Y2653588D01*
X2114448Y2651861D01*
X2116277Y2649575D01*
X2118004Y2646680D01*
X2119579Y2643073D01*
X2121052Y2638755D01*
X2122424Y2633675D01*
X2123694Y2627731D01*
X2125827Y2613101D01*
X2127605Y2594457D01*
X2129028Y2571343D01*
X2130094Y2543352D01*
X2130907Y2510028D01*
X2131771Y2425700D01*
X2131872Y2281224D01*
X2131618Y2236571D01*
X2130450Y2159812D01*
X2129536Y2127351D01*
X2128367Y2098598D01*
X2126996Y2073503D01*
X2125370Y2051812D01*
X2123490Y2033422D01*
X2121357Y2018182D01*
X2118918Y2005990D01*
X2117648Y2000910D01*
X2116226Y1996592D01*
X2114753Y1992884D01*
X2113229Y1989886D01*
X2111603Y1987499D01*
X2109927Y1985721D01*
X2103272Y1980742D01*
X2075840Y1962657D01*
X2033270Y1935937D01*
X1979930Y1903323D01*
X1872488Y1838655D01*
X1817014Y1804162D01*
X1763166Y1769719D01*
X1714500Y1737664D01*
X1678533Y1712975D01*
X1663903Y1702562D01*
X1638503Y1683918D01*
X1611579Y1664563D01*
X1589176Y1648764D01*
X1572869Y1637741D01*
X1564335Y1632610D01*
X1563624Y1632407D01*
X1563268Y1632762D01*
X1562709Y1635658D01*
X1562252Y1641246D01*
X1561795Y1659737D01*
X1561846Y1686712D01*
X1562404Y1720596D01*
X1563522Y1759864D01*
X1564843Y1797050D01*
X1565351Y1818893D01*
X1565554Y1842617D01*
X1564995Y1894332D01*
X1563268Y1949704D01*
X1560017Y2013051D01*
X1558188Y2040636D01*
X1555648Y2074011D01*
X1553311Y2099360D01*
X1550822Y2123236D01*
X1545894Y2166670D01*
X1541475Y2208530D01*
X1538630Y2241956D01*
X1537817Y2255926D01*
X1537411Y2273858D01*
X1434099Y2273858D01*
X1437233Y2254859D01*
X1440281Y2233574D01*
X1443126Y2210562D01*
X1445818Y2186076D01*
X1448257Y2160219D01*
X1452676Y2105101D01*
X1455013Y2068880D01*
X1457045Y2031644D01*
X1458417Y2001367D01*
X1460347Y1947875D01*
X1461719Y1886966D01*
X1462227Y1827479D01*
X1462125Y1798726D01*
X1461668Y1764080D01*
X1461058Y1737512D01*
X1460195Y1712214D01*
X1459077Y1688388D01*
X1457756Y1666087D01*
X1456131Y1645564D01*
X1454302Y1626971D01*
X1452219Y1610461D01*
X1449832Y1596237D01*
X1446987Y1583639D01*
X1444498Y1576374D01*
X1441196Y1568805D01*
X1437081Y1560931D01*
X1432153Y1552702D01*
X1426362Y1544116D01*
X1419656Y1535176D01*
X1412138Y1525879D01*
X1403756Y1516126D01*
X1394409Y1506016D01*
X1384198Y1495501D01*
X1373073Y1484579D01*
X1361033Y1473149D01*
X1334109Y1448968D01*
X1294942Y1415592D01*
X1265326Y1389634D01*
X1232255Y1359763D01*
X1196187Y1326489D01*
X1142796Y1276248D01*
X1075791Y1211935D01*
X1033475Y1170686D01*
X980389Y1118362D01*
X943660Y1081735D01*
X882751Y1020114D01*
X844346Y980694D01*
X799795Y934212D01*
X763879Y895908D01*
X732637Y861669D01*
X709574Y835355D01*
X629970Y741222D01*
X397100Y741222D01*
X412394Y721614D01*
X426974Y702411D01*
X443941Y679450D01*
X459282Y657809D01*
X470408Y641451D01*
X480466Y626059D01*
X489407Y611632D01*
X497128Y598271D01*
X503682Y585978D01*
X508965Y574852D01*
X512927Y564896D01*
X515569Y556209D01*
X516382Y552348D01*
X516788Y548792D01*
X516890Y545592D01*
X516635Y542747D01*
X515601Y539343D01*
X633120Y539343D01*
X672236Y603504D01*
X680923Y617016D01*
X700430Y645617D01*
X711200Y660704D01*
X725576Y680212D01*
X740918Y700430D01*
X753872Y717092D01*
X774395Y742848D01*
X803554Y778459D01*
X826719Y806043D01*
X859231Y843737D01*
X889050Y877569D01*
X915517Y906983D01*
X942746Y936802D01*
X994410Y992174D01*
X1038098Y1037894D01*
X1087780Y1088694D01*
X1123086Y1124102D01*
X1184300Y1184148D01*
X1240637Y1237894D01*
X1286611Y1280718D01*
X1327150Y1317548D01*
X1377137Y1361846D01*
X1416253Y1395577D01*
X1440281Y1415796D01*
X1477924Y1446631D01*
X1500835Y1464919D01*
X1541119Y1496110D01*
X1568399Y1516735D01*
X1596186Y1537309D01*
X1641551Y1570177D01*
X1670405Y1590598D01*
X1711299Y1619046D01*
X1770583Y1659128D01*
X1806498Y1682800D01*
X1860702Y1717700D01*
X1920951Y1755393D01*
X1957019Y1777390D01*
X1998929Y1802333D01*
X2052218Y1833321D01*
X2104694Y1862785D01*
X2139035Y1881581D01*
X2167280Y1896668D01*
X2222347Y1925116D01*
X2254351Y1941017D01*
X2280412Y1953564D01*
X2305862Y1965452D01*
X2349906Y1985111D01*
X2386939Y2000554D01*
X2409088Y2009190D01*
X2426106Y2015489D01*
X2442565Y2021281D01*
X2458466Y2026564D01*
X2480564Y2033422D01*
X2504744Y2040585D01*
X2548839Y2052980D01*
X2573375Y2059482D01*
X2601518Y2066493D01*
X2620822Y2070963D01*
X2694990Y2087118D01*
X2683408Y2021738D01*
X2676652Y1988007D01*
X2665730Y1936496D01*
X2652826Y1877415D01*
X2639872Y1820316D01*
X2634132Y1796846D01*
X2623210Y1755851D01*
X2614676Y1726692D01*
X2607462Y1703425D01*
X2597962Y1674469D01*
X2589987Y1651355D01*
X2579522Y1622602D01*
X2566263Y1588262D01*
X2554630Y1559814D01*
X2542489Y1531518D01*
X2529840Y1503375D01*
X2519324Y1481023D01*
X2508554Y1458772D01*
X2497480Y1436624D01*
X2483154Y1409141D01*
X2471369Y1387297D01*
X2459329Y1365554D01*
X2446934Y1344015D01*
X2434285Y1322578D01*
X2418130Y1296060D01*
X2398115Y1264513D01*
X2370480Y1223111D01*
X2356256Y1202639D01*
X2338171Y1177340D01*
X2323388Y1157325D01*
X2304542Y1132535D01*
X2281478Y1103274D01*
X2253894Y1069695D01*
X2241854Y1055471D01*
X2221484Y1032103D01*
X2200808Y1009091D01*
X2179777Y986485D01*
X2154123Y959815D01*
X2127961Y933703D01*
X2101443Y908151D01*
X2083460Y891438D01*
X2065375Y875030D01*
X2047036Y858875D01*
X2028545Y843026D01*
X2000504Y819759D01*
X1976882Y800862D01*
X1948129Y778814D01*
X1923948Y760984D01*
X1899513Y743610D01*
X1874875Y726744D01*
X1849983Y710387D01*
X1829968Y697687D01*
X1809750Y685342D01*
X1779270Y667410D01*
X1748536Y650290D01*
X1717548Y633984D01*
X1691538Y621030D01*
X1665325Y608634D01*
X1649577Y601472D01*
X1628444Y592277D01*
X1601978Y581355D01*
X1573936Y570484D01*
X1549552Y561594D01*
X1524965Y553161D01*
X1500073Y545084D01*
X1474978Y537464D01*
X1436928Y526796D01*
X1398524Y517042D01*
X1372768Y511098D01*
X1346860Y505510D01*
X1307896Y497992D01*
X1275334Y492455D01*
X1242771Y487578D01*
X1210208Y483362D01*
X1177696Y479856D01*
X1151788Y477520D01*
X1113129Y474827D01*
X1087475Y473608D01*
X1062024Y472795D01*
X1036726Y472490D01*
X1011631Y472541D01*
X986790Y473100D01*
X962202Y474065D01*
X931824Y475945D01*
X901953Y478535D01*
X872591Y481787D01*
X849528Y484936D01*
X821232Y489508D01*
X793597Y494792D01*
X766673Y500786D01*
X740511Y507492D01*
X730250Y510387D01*
X633120Y539343D01*
X515601Y539343D01*
X514959Y538124D01*
X513537Y536346D01*
X510184Y533654D01*
X505358Y530860D01*
X499211Y527913D01*
X491743Y524865D01*
X483158Y521766D01*
X462737Y515416D01*
X438658Y508914D01*
X411581Y502462D01*
X382270Y496163D01*
X351383Y490169D01*
X319684Y484632D01*
X287782Y479653D01*
X256438Y475386D01*
X226364Y471982D01*
X198221Y469544D01*
X185064Y468731D01*
X172720Y468223D01*
X161188Y468020D01*
X124358Y468325D01*
X93726Y469290D01*
X63144Y470865D01*
X38760Y472592D01*
X8382Y475284D01*
X-21945Y478586D01*
X-52171Y482498D01*
X-76250Y486105D01*
X-106324Y491134D01*
X-130251Y495554D01*
X-154127Y500380D01*
X-177901Y505612D01*
X-207568Y512673D01*
X-231140Y518769D01*
X-260553Y526948D01*
X-283972Y533857D01*
X-307289Y541172D01*
X-336296Y550875D01*
X-359410Y559054D01*
X-393852Y572008D01*
X-428040Y585774D01*
X-450697Y595477D01*
X-473252Y605485D01*
X-501294Y618540D01*
X-540207Y637794D01*
X-573278Y655167D01*
X-589686Y664159D01*
X-633069Y689152D01*
X-659892Y705510D01*
X-691845Y725881D01*
X-712927Y739902D01*
X-744270Y761593D01*
X-775309Y784098D01*
X-795782Y799541D01*
X-821131Y819302D01*
X-841248Y835558D01*
X-861161Y852119D01*
X-890727Y877620D01*
X-915111Y899464D01*
X-939190Y921867D01*
X-957630Y939546D01*
X-975817Y957427D01*
X-998169Y980084D01*
X-1020064Y1002944D01*
X-1045768Y1030833D01*
X-1074928Y1063853D01*
X-1095248Y1087729D01*
X-1115110Y1111910D01*
X-1126794Y1126540D01*
X-1153464Y1161084D01*
X-1168349Y1181049D01*
X-1186484Y1206246D01*
X-1207668Y1236827D01*
X-1224838Y1262634D01*
X-1238250Y1283411D01*
X-1251356Y1304391D01*
X-1264158Y1325473D01*
X-1279753Y1352143D01*
X-1291945Y1373581D01*
X-1303782Y1395222D01*
X-1315364Y1417015D01*
X-1326642Y1439011D01*
X-1342948Y1472184D01*
X-1353515Y1494536D01*
X-1363726Y1516989D01*
X-1371193Y1533956D01*
X-1383284Y1562404D01*
X-1394917Y1591106D01*
X-1410360Y1631645D01*
X-1420825Y1660855D01*
X-1430832Y1690268D01*
X-1440383Y1719935D01*
X-1451203Y1755800D01*
X-1458010Y1779879D01*
X-1464513Y1804111D01*
X-1472234Y1834591D01*
X-1479448Y1865274D01*
X-1488795Y1908556D01*
X-1497380Y1953158D01*
X-1504035Y1990293D01*
X-1509572Y2023110D01*
X-1513738Y2050084D01*
X-1516329Y2069846D01*
X-1517091Y2079040D01*
X-1621606Y2079040D01*
X-1615338Y2042109D01*
X-1606702Y1993646D01*
X-1601876Y1967992D01*
X-1595221Y1934362D01*
X-1587957Y1899666D01*
X-1580337Y1864614D01*
X-1569262Y1816354D01*
X-1556613Y1764690D01*
X-1550517Y1741068D01*
X-1539138Y1700275D01*
X-1532534Y1678889D01*
X-1525270Y1656283D01*
X-1511655Y1616760D01*
X-1503375Y1594256D01*
X-1492554Y1566164D01*
X-1481277Y1538122D01*
X-1471828Y1515770D01*
X-1462074Y1493469D01*
X-1451965Y1471218D01*
X-1436268Y1438046D01*
X-1422654Y1410512D01*
X-1405686Y1377645D01*
X-1393952Y1355852D01*
X-1381963Y1334160D01*
X-1369720Y1312621D01*
X-1357122Y1291132D01*
X-1337767Y1259179D01*
X-1314348Y1222248D01*
X-1300581Y1201318D01*
X-1286611Y1180592D01*
X-1268730Y1154785D01*
X-1239266Y1114094D01*
X-1224178Y1093978D01*
X-1204976Y1069086D01*
X-1185418Y1044498D01*
X-1157376Y1010513D01*
X-1141069Y991362D01*
X-1124508Y972413D01*
X-1103528Y949045D01*
X-1077925Y921410D01*
X-1060551Y903274D01*
X-1043025Y885393D01*
X-1025296Y867714D01*
X-1007364Y850239D01*
X-980084Y824534D01*
X-957071Y803554D01*
X-933754Y782980D01*
X-905408Y758799D01*
X-886307Y743051D01*
X-847648Y712368D01*
X-828090Y697484D01*
X-808380Y682904D01*
X-773480Y658063D01*
X-747420Y640283D01*
X-723900Y624687D01*
X-689406Y602538D01*
X-666851Y588518D01*
X-644601Y575106D01*
X-622604Y562254D01*
X-595376Y547014D01*
X-568401Y532587D01*
X-546912Y521665D01*
X-525475Y511200D01*
X-493268Y496366D01*
X-460857Y482600D01*
X-433679Y471830D01*
X-400558Y459740D01*
X-372465Y450291D01*
X-343916Y441401D01*
X-308762Y431393D01*
X-284784Y425094D01*
X-247802Y416153D01*
X-209499Y407771D01*
X-183184Y402488D01*
X-156108Y397408D01*
X-121259Y391261D01*
X-81229Y384911D01*
X-49631Y380898D01*
X-30226Y378815D01*
X2641Y376021D01*
X29311Y374345D01*
X49530Y373380D01*
X69900Y372719D01*
X90322Y372313D01*
X124510Y372211D01*
X158750Y372872D01*
X186029Y373888D01*
X213156Y375361D01*
X246684Y377850D01*
X266598Y379679D01*
X299212Y383286D01*
X337362Y388467D01*
X368096Y393547D01*
X397713Y399237D01*
X420522Y404266D01*
X447801Y411124D01*
X468477Y417068D01*
X478485Y420166D01*
X492912Y425043D01*
X526338Y437337D01*
X540054Y442061D01*
X552297Y445871D01*
X563321Y448716D01*
X573532Y450596D01*
X583184Y451510D01*
X592734Y451459D01*
X602437Y450494D01*
X612698Y448513D01*
X623824Y445617D01*
X636117Y441756D01*
X694080Y420725D01*
X719226Y412445D01*
X739698Y406349D01*
X765860Y399389D01*
X792480Y393141D01*
X814171Y388670D01*
X830580Y385572D01*
X847191Y382727D01*
X875233Y378612D01*
X897940Y375767D01*
X920953Y373380D01*
X944118Y371449D01*
X967587Y369925D01*
X985266Y369062D01*
X1020978Y368096D01*
X1051052Y368046D01*
X1075334Y368503D01*
X1105814Y369620D01*
X1142644Y371856D01*
X1173530Y374446D01*
X1210767Y378409D01*
X1248156Y383336D01*
X1285595Y389178D01*
X1323136Y395935D01*
X1360678Y403656D01*
X1391869Y410718D01*
X1429308Y420065D01*
X1460347Y428548D01*
X1497482Y439521D01*
X1522069Y447344D01*
X1552702Y457657D01*
X1583080Y468579D01*
X1613306Y480161D01*
X1643227Y492251D01*
X1666951Y502412D01*
X1690471Y512927D01*
X1725371Y529437D01*
X1748332Y540867D01*
X1765401Y549757D01*
X1787956Y561848D01*
X1810207Y574344D01*
X1832102Y587146D01*
X1864004Y606501D01*
X1890268Y623011D01*
X1926386Y646633D01*
X1951736Y663905D01*
X1981707Y685038D01*
X2011172Y706577D01*
X2040128Y728573D01*
X2063851Y747268D01*
X2087219Y766267D01*
X2119325Y793394D01*
X2137359Y809142D01*
X2159609Y829157D01*
X2181453Y849477D01*
X2198725Y865936D01*
X2232507Y899464D01*
X2257247Y925118D01*
X2273452Y942492D01*
X2297328Y968908D01*
X2320645Y995781D01*
X2351024Y1032306D01*
X2376830Y1064920D01*
X2394813Y1088542D01*
X2415946Y1117346D01*
X2429713Y1136802D01*
X2446629Y1161389D01*
X2466492Y1191310D01*
X2485796Y1221689D01*
X2504592Y1252474D01*
X2516835Y1273302D01*
X2528824Y1294282D01*
X2543556Y1320800D01*
X2557881Y1347622D01*
X2569057Y1369263D01*
X2582773Y1396644D01*
X2596083Y1424330D01*
X2609088Y1452321D01*
X2619197Y1474978D01*
X2636316Y1515008D01*
X2645816Y1538173D01*
X2659634Y1573276D01*
X2675077Y1614830D01*
X2683560Y1638807D01*
X2697886Y1681327D01*
X2709621Y1718208D01*
X2724454Y1768093D01*
X2734970Y1805990D01*
X2743301Y1837943D01*
X2749753Y1863750D01*
X2757474Y1896211D01*
X2766263Y1935632D01*
X2773172Y1968804D01*
X2781401Y2010816D01*
X2788615Y2049983D01*
X2791561Y2067356D01*
X2796032Y2097887D01*
X2797505Y2111197D01*
X2798470Y2123236D01*
X2798826Y2134057D01*
X2798673Y2143760D01*
X2797911Y2152345D01*
X2796540Y2159914D01*
X2794558Y2166467D01*
X2791866Y2172106D01*
X2788564Y2176830D01*
X2786634Y2178913D01*
X2782265Y2182418D01*
X2777185Y2185212D01*
X2771343Y2187295D01*
X2764739Y2188768D01*
X2757322Y2189632D01*
X2749143Y2189937D01*
X2740101Y2189784D01*
X2730246Y2189226D01*
X2707894Y2186990D01*
X2687675Y2184349D01*
X2667762Y2181199D01*
X2646629Y2177338D01*
X2624378Y2172766D01*
X2595270Y2166213D01*
X2571089Y2160320D01*
X2546299Y2153869D01*
X2520950Y2146909D01*
X2482392Y2135632D01*
X2449931Y2125522D01*
X2404668Y2110486D01*
X2372766Y2099157D01*
X2347722Y2089810D01*
X2323287Y2080310D01*
X2229053Y2042363D01*
X2228900Y2441752D01*
X2228240Y2528265D01*
X2227630Y2565704D01*
X2225852Y2629763D01*
X2224633Y2656586D01*
X2223262Y2680157D01*
X2221636Y2700629D01*
X2219756Y2718003D01*
X2217674Y2732582D01*
X2215337Y2744368D01*
X2214118Y2749296D01*
X2211374Y2757220D01*
X2209952Y2760268D01*
X2208428Y2762758D01*
X2206802Y2764637D01*
X2203805Y2767177D01*
X2200249Y2769311D01*
X2196134Y2771089D01*
X2191512Y2772511D01*
X2186330Y2773578D01*
X2180691Y2774289D01*
X2174595Y2774645D01*
X2167991Y2774645D01*
X2160930Y2774340D01*
X2153462Y2773680D01*
X2145538Y2772714D01*
X2128570Y2769819D01*
X2119477Y2767939D01*
X2100275Y2763215D01*
X2079701Y2757424D01*
X2057958Y2750515D01*
X2035098Y2742590D01*
X2011324Y2733700D01*
X1986686Y2723845D01*
X1961286Y2713126D01*
X1928774Y2698546D01*
X1902206Y2686050D01*
X1882089Y2676194D01*
X1848256Y2658922D01*
X1827885Y2648102D01*
X1793900Y2629357D01*
X1766925Y2613761D01*
X1740204Y2597708D01*
X1720392Y2585415D01*
X1694434Y2568702D01*
X1681683Y2560218D01*
X1656689Y2543048D01*
X1626565Y2521254D01*
X1506474Y2430576D01*
X1442212Y2659532D01*
X1423822Y2722930D01*
X1406347Y2780944D01*
X1391107Y2829407D01*
X1384757Y2848711D01*
X1379423Y2864104D01*
X1375257Y2874975D01*
X1354226Y2926334D01*
X1288846Y2863545D01*
X1276756Y2851150D01*
X1262583Y2835859D01*
X1246733Y2818079D01*
X1229563Y2798165D01*
X1211376Y2776626D01*
X1192530Y2753868D01*
X1168654Y2724353D01*
X1140409Y2688386D01*
X1092657Y2625750D01*
X1067206Y2593086D01*
X1045718Y2566619D01*
X1036421Y2555646D01*
X1027988Y2546096D01*
X1020419Y2537917D01*
X1013714Y2531160D01*
X1007770Y2525776D01*
X1002639Y2521661D01*
X998219Y2518816D01*
X994460Y2517292D01*
X992886Y2516936D01*
X991412Y2516936D01*
X990142Y2517190D01*
X988974Y2517749D01*
X988009Y2518613D01*
X987145Y2519781D01*
X985875Y2522880D01*
X985164Y2527096D01*
X984758Y2535224D01*
X983538Y2542692D01*
X981151Y2552344D01*
X977646Y2564130D01*
X973074Y2577896D01*
X967536Y2593492D01*
X953668Y2629814D01*
X936447Y2672130D01*
X913637Y2725724D01*
X887780Y2784348D01*
X859536Y2846527D01*
X829513Y2911043D01*
X794816Y2983687D01*
X773734Y3027070D01*
X738581Y3097631D01*
X707694Y3157931D01*
X681278Y3207918D01*
X656336Y3253384D01*
X644550Y3274212D01*
G37*
M02*
