G04 Layer: BottomLayer*
G04 EasyEDA v6.5.22, 2023-01-18 14:56:14*
G04 eb7a50f388b942ddb5e33576d95934dd,93c32eb58a6e4653a9b851d96a472eee,10*
G04 Gerber Generator version 0.2*
G04 Scale: 100 percent, Rotated: No, Reflected: No *
G04 Dimensions in millimeters *
G04 leading zeros omitted , absolute positions ,4 integer and 5 decimal *
%FSLAX45Y45*%
%MOMM*%

%ADD10C,0.4000*%
%ADD11C,0.2540*%
%ADD12C,1.5240*%
%ADD13C,0.6200*%

%LPD*%
G36*
X-166624Y2979623D02*
G01*
X-169824Y2980131D01*
X-182016Y2986481D01*
X-192024Y2989529D01*
X-195173Y2991154D01*
X-204419Y2998063D01*
X-212039Y3001873D01*
X-220167Y3004159D01*
X-229057Y3005023D01*
X-563981Y3005023D01*
X-568248Y3005937D01*
X-571703Y3008579D01*
X-573735Y3012490D01*
X-573989Y3016859D01*
X-572363Y3020923D01*
X-569163Y3023920D01*
X-565505Y3026054D01*
X-563016Y3027121D01*
X-560324Y3027476D01*
X674878Y3027527D01*
X683615Y3028746D01*
X691642Y3031439D01*
X699008Y3035554D01*
X705916Y3041294D01*
X1501952Y3837330D01*
X1505254Y3839514D01*
X1509115Y3840276D01*
X1604518Y3840276D01*
X1608429Y3839514D01*
X1611731Y3837330D01*
X1613916Y3834028D01*
X1614678Y3830116D01*
X1613916Y3826256D01*
X1611731Y3822954D01*
X893419Y3104591D01*
X888085Y3097530D01*
X884326Y3089960D01*
X882040Y3081832D01*
X881176Y3072942D01*
X881176Y2989783D01*
X880414Y2985871D01*
X878230Y2982569D01*
X874928Y2980385D01*
X871016Y2979623D01*
G37*

%LPD*%
G36*
X1595323Y2334107D02*
G01*
X1591716Y2334971D01*
X1588617Y2337104D01*
X975969Y2949752D01*
X973785Y2953054D01*
X973023Y2956915D01*
X973023Y3050184D01*
X973785Y3054045D01*
X975969Y3057347D01*
X1551736Y3633063D01*
X1555242Y3635400D01*
X1559407Y3636060D01*
X1563522Y3634943D01*
X1566773Y3632301D01*
X1568704Y3628542D01*
X1568958Y3624326D01*
X1568958Y3614674D01*
X1570583Y3605174D01*
X1573784Y3596081D01*
X1578406Y3587800D01*
X1579372Y3585413D01*
X1579676Y3582822D01*
X1579676Y3071215D01*
X1578914Y3067354D01*
X1576730Y3064052D01*
X1428343Y2915666D01*
X1426006Y2913938D01*
X1423314Y2912922D01*
X1418437Y2911856D01*
X1409496Y2908300D01*
X1401267Y2903220D01*
X1394053Y2896870D01*
X1387957Y2889351D01*
X1383284Y2880918D01*
X1380083Y2871825D01*
X1378458Y2862326D01*
X1378458Y2852674D01*
X1380083Y2843174D01*
X1383284Y2834081D01*
X1387957Y2825648D01*
X1394053Y2818130D01*
X1401267Y2811780D01*
X1409496Y2806700D01*
X1418437Y2803144D01*
X1427886Y2801112D01*
X1437538Y2800654D01*
X1447088Y2801924D01*
X1456283Y2804718D01*
X1464919Y2809087D01*
X1472692Y2814828D01*
X1479346Y2821787D01*
X1484731Y2829763D01*
X1488744Y2838551D01*
X1490726Y2846222D01*
X1491742Y2848711D01*
X1493367Y2850845D01*
X1659280Y3016808D01*
X1664614Y3023870D01*
X1668373Y3031439D01*
X1670659Y3039567D01*
X1671523Y3048457D01*
X1671523Y3583127D01*
X1671929Y3586073D01*
X1673250Y3588816D01*
X1675231Y3591763D01*
X1679244Y3600551D01*
X1681632Y3609898D01*
X1682496Y3619500D01*
X1681632Y3629101D01*
X1679244Y3638448D01*
X1675231Y3647236D01*
X1669846Y3655212D01*
X1663192Y3662172D01*
X1655419Y3667912D01*
X1646783Y3672281D01*
X1637588Y3675075D01*
X1628038Y3676345D01*
X1619554Y3675938D01*
X1615541Y3676599D01*
X1612138Y3678732D01*
X1609801Y3682034D01*
X1608937Y3685946D01*
X1609699Y3689908D01*
X1611934Y3693312D01*
X1679752Y3761130D01*
X1683054Y3763314D01*
X1686915Y3764076D01*
X1716227Y3764076D01*
X1718970Y3763721D01*
X1721510Y3762603D01*
X1726996Y3759200D01*
X1735937Y3755644D01*
X1745386Y3753612D01*
X1755038Y3753154D01*
X1764588Y3754424D01*
X1773783Y3757218D01*
X1782419Y3761587D01*
X1790192Y3767328D01*
X1796846Y3774287D01*
X1802231Y3782263D01*
X1806244Y3791051D01*
X1808632Y3800398D01*
X1809496Y3810000D01*
X1808632Y3819601D01*
X1806600Y3827576D01*
X1806295Y3831234D01*
X1807362Y3834790D01*
X1809648Y3837686D01*
X1812798Y3839616D01*
X1816404Y3840276D01*
X2021027Y3840276D01*
X2023770Y3839921D01*
X2026310Y3838803D01*
X2031796Y3835400D01*
X2040737Y3831844D01*
X2050186Y3829812D01*
X2059838Y3829354D01*
X2069388Y3830624D01*
X2078583Y3833418D01*
X2087219Y3837787D01*
X2094992Y3843528D01*
X2101646Y3850487D01*
X2107031Y3858463D01*
X2111044Y3867251D01*
X2113432Y3876598D01*
X2114296Y3886200D01*
X2113432Y3895801D01*
X2111044Y3905148D01*
X2107031Y3913936D01*
X2101646Y3921912D01*
X2094992Y3928872D01*
X2087219Y3934612D01*
X2078583Y3938981D01*
X2069388Y3941775D01*
X2059838Y3943045D01*
X2050186Y3942587D01*
X2040737Y3940556D01*
X2031796Y3937000D01*
X2026310Y3933596D01*
X2023770Y3932478D01*
X2021027Y3932123D01*
X1868068Y3932123D01*
X1864055Y3932936D01*
X1860702Y3935272D01*
X1858568Y3938727D01*
X1857959Y3942791D01*
X1858975Y3946753D01*
X1861464Y3950004D01*
X1863750Y3951935D01*
X1870964Y3960368D01*
X1876806Y3969867D01*
X1881022Y3980129D01*
X1883664Y3990949D01*
X1884527Y4002024D01*
X1883664Y4013149D01*
X1881022Y4023969D01*
X1876806Y4034231D01*
X1870964Y4043730D01*
X1863750Y4052163D01*
X1855317Y4059377D01*
X1845818Y4065219D01*
X1835556Y4069435D01*
X1824736Y4072077D01*
X1813661Y4072940D01*
X1802536Y4072077D01*
X1791716Y4069435D01*
X1781454Y4065219D01*
X1771954Y4059377D01*
X1763522Y4052163D01*
X1756308Y4043730D01*
X1750466Y4034231D01*
X1746250Y4023969D01*
X1743608Y4013149D01*
X1742744Y4002024D01*
X1743608Y3990949D01*
X1746250Y3980129D01*
X1750466Y3969867D01*
X1756308Y3960368D01*
X1763522Y3951935D01*
X1765807Y3950004D01*
X1768297Y3946753D01*
X1769313Y3942791D01*
X1768703Y3938727D01*
X1766570Y3935272D01*
X1763217Y3932936D01*
X1759204Y3932123D01*
X1484122Y3932072D01*
X1475384Y3930853D01*
X1467358Y3928160D01*
X1459992Y3924046D01*
X1453083Y3918305D01*
X1394510Y3859733D01*
X1391056Y3857447D01*
X1387043Y3856736D01*
X1383030Y3857701D01*
X1379728Y3860139D01*
X1377645Y3863695D01*
X1377188Y3867759D01*
X1377696Y3873500D01*
X1376832Y3883101D01*
X1374444Y3892448D01*
X1370431Y3901236D01*
X1365046Y3909212D01*
X1358392Y3916172D01*
X1350619Y3921912D01*
X1341983Y3926281D01*
X1332788Y3929075D01*
X1327708Y3929735D01*
X1323746Y3931107D01*
X1320698Y3933951D01*
X1319022Y3937812D01*
X1319072Y3942029D01*
X1320800Y3945839D01*
X1323898Y3948633D01*
X2099564Y4396435D01*
X2103323Y4397705D01*
X2107285Y4397451D01*
X2110841Y4395724D01*
X2113432Y4392726D01*
X2168448Y4297476D01*
X2169718Y4293920D01*
X2169566Y4290161D01*
X2168093Y4286707D01*
X2165451Y4284014D01*
X2162048Y4282490D01*
X2159762Y4281932D01*
X2149500Y4277715D01*
X2140000Y4271873D01*
X2131568Y4264660D01*
X2124354Y4256227D01*
X2118512Y4246727D01*
X2114296Y4236466D01*
X2111654Y4225645D01*
X2110790Y4214520D01*
X2111654Y4203446D01*
X2114296Y4192625D01*
X2118512Y4182364D01*
X2124354Y4172864D01*
X2131568Y4164431D01*
X2140000Y4157218D01*
X2149500Y4151376D01*
X2159762Y4147159D01*
X2170582Y4144518D01*
X2181707Y4143654D01*
X2192782Y4144518D01*
X2203602Y4147159D01*
X2213864Y4151376D01*
X2223363Y4157218D01*
X2231542Y4164177D01*
X2235454Y4166260D01*
X2239822Y4166463D01*
X2243937Y4164787D01*
X2246934Y4161536D01*
X2613456Y3526739D01*
X2614777Y3522522D01*
X2614168Y3518103D01*
X2611678Y3514344D01*
X1854707Y2781808D01*
X1853844Y2780639D01*
X1604670Y2339289D01*
X1602282Y2336444D01*
X1599031Y2334615D01*
G37*

%LPC*%
G36*
X1755038Y3092754D02*
G01*
X1764588Y3094024D01*
X1773783Y3096818D01*
X1782419Y3101187D01*
X1790192Y3106928D01*
X1796846Y3113887D01*
X1802231Y3121863D01*
X1806244Y3130651D01*
X1808225Y3138322D01*
X1809242Y3140811D01*
X1810867Y3142945D01*
X2319680Y3651808D01*
X2325014Y3658870D01*
X2328773Y3666439D01*
X2331059Y3674567D01*
X2331923Y3683457D01*
X2331923Y3811727D01*
X2332329Y3814673D01*
X2333650Y3817416D01*
X2335631Y3820363D01*
X2339644Y3829151D01*
X2342032Y3838498D01*
X2342896Y3848100D01*
X2342032Y3857701D01*
X2339644Y3867048D01*
X2335631Y3875836D01*
X2330246Y3883812D01*
X2323592Y3890772D01*
X2315819Y3896512D01*
X2307183Y3900881D01*
X2297988Y3903675D01*
X2288438Y3904945D01*
X2278786Y3904487D01*
X2269337Y3902456D01*
X2260396Y3898900D01*
X2252167Y3893820D01*
X2244953Y3887470D01*
X2238857Y3879951D01*
X2234184Y3871518D01*
X2230983Y3862425D01*
X2229358Y3852926D01*
X2229358Y3843274D01*
X2230983Y3833774D01*
X2234184Y3824681D01*
X2238806Y3816400D01*
X2239772Y3814013D01*
X2240076Y3811422D01*
X2240076Y3706215D01*
X2239314Y3702354D01*
X2237130Y3699052D01*
X1745843Y3207766D01*
X1743506Y3206038D01*
X1740814Y3205022D01*
X1735937Y3203956D01*
X1726996Y3200400D01*
X1718767Y3195320D01*
X1711553Y3188970D01*
X1705457Y3181451D01*
X1700784Y3173018D01*
X1697583Y3163925D01*
X1695957Y3154426D01*
X1695957Y3144774D01*
X1697583Y3135274D01*
X1700784Y3126181D01*
X1705457Y3117748D01*
X1711553Y3110230D01*
X1718767Y3103880D01*
X1726996Y3098800D01*
X1735937Y3095244D01*
X1745386Y3093212D01*
G37*

%LPD*%
G36*
X1518564Y1512112D02*
G01*
X1514703Y1512976D01*
X1503019Y1521612D01*
X1494383Y1525981D01*
X1485188Y1528775D01*
X1475638Y1530045D01*
X1465986Y1529588D01*
X1456486Y1527556D01*
X1452219Y1527556D01*
X1448308Y1529334D01*
X1445463Y1532534D01*
X1444193Y1536649D01*
X1444752Y1540865D01*
X1446987Y1544523D01*
X1453946Y1551787D01*
X1459331Y1559763D01*
X1463344Y1568551D01*
X1465732Y1577898D01*
X1466596Y1587500D01*
X1465732Y1597101D01*
X1463344Y1606448D01*
X1459331Y1615236D01*
X1453946Y1623212D01*
X1447292Y1630172D01*
X1439519Y1635912D01*
X1430883Y1640281D01*
X1421688Y1643075D01*
X1412138Y1644345D01*
X1402486Y1643888D01*
X1393037Y1641856D01*
X1384096Y1638300D01*
X1375867Y1633220D01*
X1368653Y1626870D01*
X1362557Y1619351D01*
X1357884Y1610918D01*
X1354683Y1601825D01*
X1353312Y1596694D01*
X1351483Y1594205D01*
X1330147Y1572869D01*
X1326845Y1570685D01*
X1322984Y1569923D01*
X1014476Y1569923D01*
X1011885Y1570228D01*
X1009446Y1571244D01*
X1004468Y1574088D01*
X1001420Y1576730D01*
X999642Y1580337D01*
X999439Y1584350D01*
X1000810Y1588160D01*
X1003503Y1591106D01*
X1017828Y1601571D01*
X1046429Y1624939D01*
X1073759Y1649831D01*
X1099718Y1676146D01*
X1124254Y1703781D01*
X1147216Y1732737D01*
X1168654Y1762861D01*
X1188415Y1794103D01*
X1206449Y1826361D01*
X1222756Y1859584D01*
X1237234Y1893570D01*
X1249883Y1928317D01*
X1260652Y1963674D01*
X1269492Y1999538D01*
X1276400Y2035860D01*
X1281328Y2072487D01*
X1284325Y2109368D01*
X1285290Y2146300D01*
X1284325Y2183231D01*
X1281328Y2220112D01*
X1276400Y2256739D01*
X1269492Y2293061D01*
X1260652Y2328926D01*
X1249883Y2364282D01*
X1237234Y2399030D01*
X1222756Y2433015D01*
X1206449Y2466238D01*
X1188415Y2498496D01*
X1168654Y2529738D01*
X1147216Y2559862D01*
X1124254Y2588818D01*
X1099718Y2616454D01*
X1073759Y2642768D01*
X1046429Y2667660D01*
X1017828Y2691028D01*
X987958Y2712821D01*
X956970Y2733040D01*
X924966Y2751480D01*
X891997Y2768244D01*
X858215Y2783179D01*
X823620Y2796286D01*
X788416Y2807512D01*
X752652Y2816860D01*
X716432Y2824226D01*
X679856Y2829661D01*
X643077Y2833166D01*
X606145Y2834640D01*
X569163Y2834132D01*
X532282Y2831642D01*
X495604Y2827223D01*
X459181Y2820771D01*
X423214Y2812440D01*
X387705Y2802128D01*
X352806Y2789986D01*
X318566Y2775915D01*
X285191Y2760065D01*
X252679Y2742488D01*
X221183Y2723134D01*
X190754Y2702153D01*
X161544Y2679547D01*
X133553Y2655417D01*
X106883Y2629814D01*
X81635Y2602788D01*
X57861Y2574493D01*
X35661Y2544927D01*
X15087Y2514244D01*
X-3860Y2482443D01*
X-21031Y2449728D01*
X-36423Y2416149D01*
X-49987Y2381758D01*
X-61671Y2346706D01*
X-71475Y2311044D01*
X-79400Y2274925D01*
X-85293Y2238451D01*
X-89255Y2201672D01*
X-91236Y2164791D01*
X-91236Y2127808D01*
X-89255Y2090928D01*
X-85293Y2054148D01*
X-79400Y2017674D01*
X-71475Y1981555D01*
X-61671Y1945893D01*
X-49987Y1910842D01*
X-36423Y1876450D01*
X-21031Y1842871D01*
X-3860Y1810156D01*
X9245Y1788160D01*
X10617Y1784197D01*
X10261Y1780032D01*
X8280Y1776374D01*
X4978Y1773834D01*
X914Y1772818D01*
X-3149Y1773478D01*
X-6654Y1775764D01*
X-847394Y2616504D01*
X-849630Y2619806D01*
X-850392Y2623718D01*
X-850392Y2875280D01*
X-849680Y2879090D01*
X-847547Y2882341D01*
X-844753Y2885287D01*
X-839368Y2893263D01*
X-835355Y2902051D01*
X-832967Y2911398D01*
X-832103Y2921000D01*
X-832967Y2930601D01*
X-835355Y2939948D01*
X-839368Y2948736D01*
X-844753Y2956712D01*
X-851408Y2963672D01*
X-859180Y2969412D01*
X-867816Y2973781D01*
X-877011Y2976575D01*
X-886561Y2977845D01*
X-896213Y2977388D01*
X-905662Y2975356D01*
X-914603Y2971800D01*
X-922832Y2966720D01*
X-930046Y2960370D01*
X-936142Y2952851D01*
X-940816Y2944418D01*
X-944016Y2935325D01*
X-945642Y2925826D01*
X-945642Y2916174D01*
X-945184Y2913278D01*
X-945337Y2909011D01*
X-947267Y2905201D01*
X-950620Y2902508D01*
X-954735Y2901442D01*
X-959713Y2901188D01*
X-969162Y2899156D01*
X-978103Y2895600D01*
X-986332Y2890520D01*
X-993546Y2884170D01*
X-999642Y2876651D01*
X-1001877Y2872638D01*
X-1004824Y2869336D01*
X-1008887Y2867609D01*
X-1013307Y2867761D01*
X-1017219Y2869793D01*
X-1019911Y2873248D01*
X-1020876Y2877566D01*
X-1020876Y3068116D01*
X-1020114Y3072028D01*
X-1017930Y3075330D01*
X-1014628Y3077514D01*
X-1010716Y3078276D01*
X-861415Y3078276D01*
X-857554Y3077514D01*
X-854252Y3075330D01*
X-704291Y2925419D01*
X-697230Y2920085D01*
X-689660Y2916326D01*
X-681532Y2914040D01*
X-672642Y2913176D01*
X-262636Y2913176D01*
X-259079Y2912567D01*
X-256032Y2910738D01*
X-253746Y2907995D01*
X-250342Y2901848D01*
X-244246Y2894330D01*
X-237032Y2887980D01*
X-228803Y2882900D01*
X-219862Y2879344D01*
X-210413Y2877312D01*
X-200761Y2876854D01*
X-191211Y2878124D01*
X-182016Y2880918D01*
X-169824Y2887268D01*
X-166624Y2887776D01*
X903884Y2887776D01*
X907745Y2887014D01*
X911047Y2884830D01*
X1525930Y2269947D01*
X1528114Y2266645D01*
X1528876Y2262784D01*
X1528876Y2207717D01*
X1528572Y2205126D01*
X1527556Y2202738D01*
X1410157Y1994763D01*
X1410563Y1993392D01*
X1523847Y1927402D01*
X1526540Y1925116D01*
X1528267Y1922068D01*
X1528876Y1918614D01*
X1528876Y1522272D01*
X1528114Y1518361D01*
X1525879Y1515059D01*
X1522526Y1512824D01*
G37*

%LPD*%
G36*
X-1583537Y1061872D02*
G01*
X-1587449Y1062177D01*
X-1590954Y1063955D01*
X-1593545Y1066901D01*
X-2039264Y1838807D01*
X-2040280Y1841246D01*
X-2040636Y1843887D01*
X-2040636Y2448407D01*
X-2040280Y2451049D01*
X-2039264Y2453487D01*
X-919683Y4392726D01*
X-917041Y4395724D01*
X-913485Y4397502D01*
X-909574Y4397756D01*
X-905814Y4396486D01*
X583438Y3536645D01*
X589432Y3534105D01*
X595680Y3533089D01*
X598119Y3533089D01*
X604367Y3534105D01*
X610362Y3536645D01*
X1253998Y3908247D01*
X1257909Y3909568D01*
X1261973Y3909212D01*
X1265580Y3907282D01*
X1268171Y3904081D01*
X1269238Y3900119D01*
X1268679Y3896106D01*
X1265783Y3887825D01*
X1264158Y3878326D01*
X1264158Y3875633D01*
X1263345Y3871772D01*
X1261160Y3868470D01*
X660095Y3267405D01*
X656793Y3265170D01*
X652881Y3264408D01*
X-1066292Y3264408D01*
X-1074318Y3263595D01*
X-1081532Y3261410D01*
X-1088237Y3257854D01*
X-1094435Y3252724D01*
X-1182624Y3164535D01*
X-1187754Y3158337D01*
X-1191310Y3151632D01*
X-1193495Y3144418D01*
X-1194308Y3136392D01*
X-1194308Y2555341D01*
X-1195273Y2550972D01*
X-1198016Y2547467D01*
X-1201978Y2545486D01*
X-1206449Y2545384D01*
X-1210513Y2547162D01*
X-1214780Y2550312D01*
X-1223416Y2554681D01*
X-1232611Y2557475D01*
X-1242161Y2558745D01*
X-1251813Y2558288D01*
X-1261262Y2556256D01*
X-1270203Y2552700D01*
X-1275689Y2549296D01*
X-1278229Y2548178D01*
X-1280972Y2547823D01*
X-1449578Y2547772D01*
X-1453540Y2548483D01*
X-1456893Y2550617D01*
X-1459128Y2553919D01*
X-1459992Y2557830D01*
X-1459230Y2561793D01*
X-1456994Y2565095D01*
X-1319225Y2702864D01*
X-1315974Y2705049D01*
X-1312113Y2705811D01*
X-1308252Y2705100D01*
X-1299362Y2701544D01*
X-1289913Y2699512D01*
X-1280261Y2699054D01*
X-1270711Y2700324D01*
X-1261516Y2703118D01*
X-1252880Y2707487D01*
X-1245108Y2713228D01*
X-1238453Y2720187D01*
X-1233068Y2728163D01*
X-1229055Y2736951D01*
X-1226667Y2746298D01*
X-1225804Y2755900D01*
X-1226667Y2765501D01*
X-1229055Y2774848D01*
X-1233068Y2783636D01*
X-1238453Y2791612D01*
X-1245108Y2798572D01*
X-1252880Y2804312D01*
X-1261516Y2808681D01*
X-1270711Y2811475D01*
X-1280261Y2812745D01*
X-1289913Y2812288D01*
X-1299362Y2810256D01*
X-1308303Y2806700D01*
X-1316532Y2801620D01*
X-1322679Y2796184D01*
X-1325321Y2794508D01*
X-1335532Y2791510D01*
X-1342237Y2787954D01*
X-1348435Y2782824D01*
X-1779524Y2351735D01*
X-1784654Y2345537D01*
X-1788210Y2338832D01*
X-1790395Y2331618D01*
X-1791207Y2323592D01*
X-1791207Y2287879D01*
X-1792122Y2283663D01*
X-1794713Y2280208D01*
X-1798472Y2278126D01*
X-1802739Y2277821D01*
X-1813712Y2279294D01*
X-1823313Y2278888D01*
X-1832762Y2276856D01*
X-1839722Y2274062D01*
X-1843633Y2273350D01*
X-1847494Y2274112D01*
X-1850745Y2276348D01*
X-1852930Y2279650D01*
X-1853692Y2283510D01*
X-1853692Y2519781D01*
X-1852930Y2523693D01*
X-1850694Y2526995D01*
X-1516481Y2861208D01*
X-1512976Y2863494D01*
X-1499311Y2865424D01*
X-1490116Y2868218D01*
X-1481480Y2872587D01*
X-1473708Y2878328D01*
X-1467053Y2885287D01*
X-1461668Y2893263D01*
X-1457655Y2902051D01*
X-1455267Y2911398D01*
X-1454404Y2921000D01*
X-1455267Y2930601D01*
X-1457655Y2939948D01*
X-1461668Y2948736D01*
X-1467053Y2956712D01*
X-1473708Y2963672D01*
X-1481480Y2969412D01*
X-1490116Y2973781D01*
X-1499311Y2976575D01*
X-1508861Y2977845D01*
X-1518513Y2977388D01*
X-1527962Y2975356D01*
X-1536903Y2971800D01*
X-1545132Y2966720D01*
X-1552346Y2960370D01*
X-1558442Y2952851D01*
X-1563116Y2944418D01*
X-1566316Y2935325D01*
X-1567942Y2925826D01*
X-1567942Y2923133D01*
X-1568754Y2919272D01*
X-1570939Y2915970D01*
X-1919224Y2567635D01*
X-1924354Y2561437D01*
X-1927910Y2554732D01*
X-1930095Y2547518D01*
X-1930907Y2539492D01*
X-1930907Y2192274D01*
X-1931466Y2188870D01*
X-1933143Y2185873D01*
X-1939442Y2178151D01*
X-1944116Y2169718D01*
X-1947316Y2160625D01*
X-1948942Y2151126D01*
X-1948942Y2141474D01*
X-1947316Y2131974D01*
X-1944116Y2122881D01*
X-1939442Y2114448D01*
X-1933346Y2106930D01*
X-1926132Y2100580D01*
X-1917903Y2095500D01*
X-1908962Y2091943D01*
X-1899513Y2089912D01*
X-1889861Y2089454D01*
X-1880311Y2090724D01*
X-1871116Y2093518D01*
X-1869439Y2094382D01*
X-1865477Y2095449D01*
X-1861413Y2094839D01*
X-1857908Y2092706D01*
X-1855520Y2089302D01*
X-1854707Y2085289D01*
X-1854707Y1676907D01*
X-1853895Y1668881D01*
X-1851710Y1661668D01*
X-1848154Y1654962D01*
X-1843024Y1648764D01*
X-1578305Y1383995D01*
X-1576070Y1380693D01*
X-1575308Y1376781D01*
X-1575308Y1080008D01*
X-1574596Y1072946D01*
X-1575003Y1069086D01*
X-1576832Y1065580D01*
X-1579829Y1063091D01*
G37*

%LPC*%
G36*
X-444601Y3370224D02*
G01*
X-433984Y3370630D01*
X-423621Y3372764D01*
X-413715Y3376523D01*
X-404520Y3381806D01*
X-396290Y3388512D01*
X-389280Y3396437D01*
X-383590Y3405428D01*
X-379425Y3415182D01*
X-376936Y3425444D01*
X-376072Y3436010D01*
X-376936Y3446627D01*
X-379425Y3456889D01*
X-383590Y3466642D01*
X-389280Y3475634D01*
X-396290Y3483559D01*
X-404520Y3490264D01*
X-413715Y3495548D01*
X-423621Y3499307D01*
X-433984Y3501440D01*
X-444601Y3501847D01*
X-455117Y3500577D01*
X-465277Y3497630D01*
X-472998Y3493973D01*
X-476910Y3493008D01*
X-480923Y3493668D01*
X-484378Y3495852D01*
X-486664Y3499205D01*
X-487476Y3503168D01*
X-487476Y3525316D01*
X-486714Y3529228D01*
X-484530Y3532530D01*
X-481228Y3534714D01*
X-477316Y3535476D01*
X141884Y3535476D01*
X145745Y3534714D01*
X149047Y3532530D01*
X208483Y3473094D01*
X210312Y3470605D01*
X211683Y3465474D01*
X214884Y3456381D01*
X219557Y3447948D01*
X225653Y3440429D01*
X232867Y3434079D01*
X241096Y3429000D01*
X250037Y3425444D01*
X259486Y3423412D01*
X269138Y3422954D01*
X278688Y3424224D01*
X287883Y3427018D01*
X296519Y3431387D01*
X304292Y3437128D01*
X310946Y3444087D01*
X316331Y3452063D01*
X320344Y3460851D01*
X322732Y3470198D01*
X323596Y3479800D01*
X322732Y3489401D01*
X320344Y3498748D01*
X316331Y3507536D01*
X310946Y3515512D01*
X304292Y3522472D01*
X296519Y3528212D01*
X287934Y3532530D01*
X277469Y3535679D01*
X275183Y3536696D01*
X273202Y3538220D01*
X196291Y3615080D01*
X189230Y3620414D01*
X181660Y3624173D01*
X173532Y3626459D01*
X164642Y3627323D01*
X-496824Y3627323D01*
X-500024Y3627831D01*
X-512216Y3634181D01*
X-521411Y3636975D01*
X-530961Y3638245D01*
X-540613Y3637787D01*
X-550062Y3635756D01*
X-559003Y3632200D01*
X-567232Y3627120D01*
X-574446Y3620770D01*
X-580542Y3613251D01*
X-585216Y3604818D01*
X-588416Y3595725D01*
X-590042Y3586226D01*
X-590042Y3576574D01*
X-588416Y3567074D01*
X-585216Y3557981D01*
X-580593Y3549700D01*
X-579628Y3547313D01*
X-579323Y3544722D01*
X-579323Y3491077D01*
X-579628Y3488486D01*
X-580593Y3486099D01*
X-585216Y3477818D01*
X-588416Y3468725D01*
X-590042Y3459226D01*
X-590042Y3449574D01*
X-588416Y3440074D01*
X-585216Y3430981D01*
X-580542Y3422548D01*
X-574446Y3415029D01*
X-567232Y3408679D01*
X-559003Y3403600D01*
X-550062Y3400044D01*
X-540613Y3398012D01*
X-530961Y3397554D01*
X-521411Y3398824D01*
X-512216Y3401618D01*
X-509625Y3402939D01*
X-506272Y3403955D01*
X-502767Y3403752D01*
X-499516Y3402329D01*
X-496925Y3399942D01*
X-491235Y3392373D01*
X-483616Y3385007D01*
X-474878Y3378962D01*
X-465277Y3374440D01*
X-455117Y3371494D01*
G37*
G36*
X-945134Y3659225D02*
G01*
X-934516Y3659632D01*
X-924153Y3661765D01*
X-914247Y3665524D01*
X-905052Y3670808D01*
X-896823Y3677513D01*
X-889812Y3685438D01*
X-884123Y3694429D01*
X-879957Y3704183D01*
X-877468Y3714445D01*
X-876604Y3725011D01*
X-877468Y3735628D01*
X-879957Y3745890D01*
X-884123Y3755644D01*
X-889812Y3764635D01*
X-896823Y3772560D01*
X-905052Y3779265D01*
X-914247Y3784549D01*
X-924153Y3788308D01*
X-934516Y3790442D01*
X-945134Y3790848D01*
X-955649Y3789578D01*
X-965809Y3786632D01*
X-975410Y3782110D01*
X-984148Y3776065D01*
X-991768Y3768699D01*
X-998118Y3760266D01*
X-1003046Y3750868D01*
X-1006449Y3740810D01*
X-1008126Y3730345D01*
X-1008126Y3719728D01*
X-1006449Y3709263D01*
X-1003046Y3699205D01*
X-998118Y3689807D01*
X-991768Y3681374D01*
X-984148Y3674008D01*
X-975410Y3667963D01*
X-965809Y3663442D01*
X-955649Y3660495D01*
G37*

%LPD*%
G36*
X-690981Y292608D02*
G01*
X-694893Y293370D01*
X-698195Y295605D01*
X-1273403Y870813D01*
X-1275588Y874115D01*
X-1276350Y877976D01*
X-1276350Y882650D01*
X-1281023Y882650D01*
X-1284935Y883412D01*
X-1288237Y885647D01*
X-1495094Y1092504D01*
X-1497330Y1095806D01*
X-1498092Y1099718D01*
X-1498092Y1380845D01*
X-1497330Y1384757D01*
X-1495094Y1388059D01*
X-1491843Y1390243D01*
X-1487932Y1391005D01*
X-1484020Y1390243D01*
X-1480769Y1388059D01*
X-446735Y354076D01*
X-440537Y348945D01*
X-433832Y345389D01*
X-426618Y343204D01*
X-418592Y342392D01*
X1028192Y342392D01*
X1036218Y343204D01*
X1043432Y345389D01*
X1050137Y348945D01*
X1056335Y354076D01*
X1143304Y440994D01*
X1146606Y443230D01*
X1150518Y443992D01*
X1548993Y443992D01*
X1553108Y443128D01*
X1556512Y440639D01*
X1558645Y436981D01*
X1559102Y432765D01*
X1557782Y428751D01*
X1554988Y425602D01*
X1551127Y423875D01*
X1545437Y422656D01*
X1536496Y419100D01*
X1531010Y415696D01*
X1528470Y414578D01*
X1525727Y414223D01*
X1306322Y414172D01*
X1297584Y412953D01*
X1289558Y410260D01*
X1282192Y406146D01*
X1275283Y400405D01*
X1187043Y312166D01*
X1184706Y310438D01*
X1182014Y309422D01*
X1177137Y308356D01*
X1168196Y304800D01*
X1159967Y299720D01*
X1154785Y295148D01*
X1151636Y293268D01*
X1148080Y292608D01*
G37*

%LPC*%
G36*
X-1187450Y835456D02*
G01*
X-1182878Y837590D01*
X-1171346Y844905D01*
X-1160932Y853694D01*
X-1151788Y863853D01*
X-1144066Y875080D01*
X-1140256Y882650D01*
X-1187450Y882650D01*
G37*
G36*
X-1187450Y971550D02*
G01*
X-1140256Y971550D01*
X-1144066Y979119D01*
X-1151788Y990346D01*
X-1160932Y1000506D01*
X-1171346Y1009294D01*
X-1182878Y1016609D01*
X-1187450Y1018743D01*
G37*
G36*
X-1323695Y971550D02*
G01*
X-1276350Y971550D01*
X-1276350Y1018895D01*
X-1286865Y1013155D01*
X-1297838Y1005078D01*
X-1307642Y995578D01*
X-1316075Y984859D01*
X-1323035Y973124D01*
G37*

%LPD*%
G36*
X-803910Y-290322D02*
G01*
X-807415Y-289712D01*
X-810463Y-287934D01*
X-812698Y-285242D01*
X-1575206Y1035151D01*
X-1576476Y1039114D01*
X-1576120Y1043228D01*
X-1574088Y1046835D01*
X-1570786Y1049375D01*
X-1566773Y1050391D01*
X-1562709Y1049680D01*
X-1559204Y1047394D01*
X-738835Y227075D01*
X-732637Y221945D01*
X-725932Y218389D01*
X-718718Y216204D01*
X-710692Y215392D01*
X458317Y215392D01*
X462381Y214579D01*
X465734Y212191D01*
X467868Y208737D01*
X468477Y204673D01*
X467410Y200710D01*
X464870Y197459D01*
X460095Y193395D01*
X446532Y179527D01*
X434390Y164388D01*
X423722Y148132D01*
X414731Y130962D01*
X407416Y112979D01*
X401828Y94386D01*
X398119Y75336D01*
X396240Y56032D01*
X396240Y36576D01*
X398119Y17272D01*
X401828Y-1778D01*
X407416Y-20370D01*
X414731Y-38354D01*
X423722Y-55524D01*
X434390Y-71780D01*
X446532Y-86918D01*
X460095Y-100787D01*
X474929Y-113334D01*
X490880Y-124358D01*
X507847Y-133807D01*
X525678Y-141528D01*
X544118Y-147523D01*
X563067Y-151739D01*
X582371Y-154076D01*
X601776Y-154533D01*
X621131Y-153111D01*
X640232Y-149860D01*
X658977Y-144780D01*
X677113Y-137871D01*
X694537Y-129285D01*
X711047Y-119024D01*
X726440Y-107238D01*
X740664Y-94030D01*
X753516Y-79502D01*
X764946Y-63804D01*
X774801Y-47040D01*
X782980Y-29464D01*
X789432Y-11125D01*
X794054Y7721D01*
X796848Y26924D01*
X797814Y46278D01*
X796848Y65684D01*
X794054Y84886D01*
X789432Y103733D01*
X782980Y122072D01*
X774801Y139649D01*
X764946Y156413D01*
X753516Y172110D01*
X740664Y186639D01*
X728675Y197815D01*
X726338Y201066D01*
X725424Y204978D01*
X726135Y208940D01*
X728319Y212344D01*
X731621Y214579D01*
X735584Y215392D01*
X1148080Y215392D01*
X1151636Y214731D01*
X1154785Y212852D01*
X1159967Y208279D01*
X1168196Y203200D01*
X1177137Y199644D01*
X1186586Y197612D01*
X1196238Y197154D01*
X1205788Y198424D01*
X1214983Y201218D01*
X1223619Y205587D01*
X1231392Y211328D01*
X1238046Y218287D01*
X1243431Y226263D01*
X1247444Y235051D01*
X1249426Y242722D01*
X1250442Y245211D01*
X1252067Y247345D01*
X1324152Y319430D01*
X1327454Y321614D01*
X1331315Y322376D01*
X1525727Y322376D01*
X1528470Y322021D01*
X1531010Y320903D01*
X1536496Y317500D01*
X1545437Y313944D01*
X1554886Y311912D01*
X1564538Y311454D01*
X1574088Y312724D01*
X1583283Y315518D01*
X1591919Y319887D01*
X1599692Y325628D01*
X1606346Y332587D01*
X1611731Y340563D01*
X1615744Y349351D01*
X1618132Y358698D01*
X1618996Y368300D01*
X1618132Y377901D01*
X1615744Y387248D01*
X1611731Y396036D01*
X1606346Y404012D01*
X1599692Y410972D01*
X1591919Y416712D01*
X1583283Y421081D01*
X1573377Y424129D01*
X1569770Y426059D01*
X1567230Y429310D01*
X1566164Y433273D01*
X1566773Y437337D01*
X1568958Y440842D01*
X1572310Y443179D01*
X1576324Y443992D01*
X1795780Y443992D01*
X1799336Y443331D01*
X1802485Y441451D01*
X1807667Y436880D01*
X1815896Y431800D01*
X1824837Y428243D01*
X1834286Y426212D01*
X1843938Y425754D01*
X1853488Y427024D01*
X1862683Y429818D01*
X1871319Y434187D01*
X1879092Y439928D01*
X1885746Y446887D01*
X1891131Y454863D01*
X1895144Y463651D01*
X1897532Y472998D01*
X1898396Y482600D01*
X1897532Y492201D01*
X1895144Y501548D01*
X1891131Y510336D01*
X1885746Y518312D01*
X1879092Y525272D01*
X1871319Y531012D01*
X1862683Y535381D01*
X1853488Y538175D01*
X1843938Y539445D01*
X1834286Y538988D01*
X1824837Y536956D01*
X1815896Y533400D01*
X1807667Y528320D01*
X1802485Y523748D01*
X1799336Y521868D01*
X1795780Y521208D01*
X1130808Y521208D01*
X1122781Y520395D01*
X1115568Y518210D01*
X1108862Y514654D01*
X1102664Y509524D01*
X1015695Y422605D01*
X1012393Y420370D01*
X1008481Y419608D01*
X-275844Y419608D01*
X-279857Y420471D01*
X-283260Y422808D01*
X-285394Y426364D01*
X-285953Y430479D01*
X-284835Y434441D01*
X-280365Y443128D01*
X-275996Y455422D01*
X-273304Y468223D01*
X-272440Y481279D01*
X-273304Y494385D01*
X-275996Y507187D01*
X-280365Y519480D01*
X-286359Y531114D01*
X-293928Y541832D01*
X-298399Y546608D01*
X-300431Y549910D01*
X-301142Y553770D01*
X-300278Y557580D01*
X-298043Y560781D01*
X-294792Y562965D01*
X-290982Y563676D01*
X1690827Y563676D01*
X1693570Y563321D01*
X1696110Y562203D01*
X1701596Y558800D01*
X1710537Y555244D01*
X1719986Y553212D01*
X1729638Y552754D01*
X1739188Y554024D01*
X1748383Y556818D01*
X1757019Y561187D01*
X1764792Y566928D01*
X1771446Y573887D01*
X1776831Y581863D01*
X1780844Y590651D01*
X1783232Y599998D01*
X1784096Y609600D01*
X1783232Y619201D01*
X1780844Y628548D01*
X1776831Y637336D01*
X1771446Y645312D01*
X1764792Y652272D01*
X1757019Y658012D01*
X1748383Y662381D01*
X1739188Y665175D01*
X1729638Y666445D01*
X1719986Y665988D01*
X1710537Y663956D01*
X1701596Y660400D01*
X1696110Y656996D01*
X1693570Y655878D01*
X1690827Y655523D01*
X-383184Y655523D01*
X-387045Y656285D01*
X-390347Y658469D01*
X-475132Y743254D01*
X-476758Y745388D01*
X-477774Y747877D01*
X-479755Y755548D01*
X-483768Y764336D01*
X-489153Y772312D01*
X-495808Y779272D01*
X-503580Y785012D01*
X-512165Y789330D01*
X-522630Y792480D01*
X-524916Y793496D01*
X-526897Y795020D01*
X-1130706Y1398828D01*
X-1132636Y1401521D01*
X-1133602Y1404721D01*
X-1133500Y1408023D01*
X-1130757Y1421485D01*
X-1129842Y1435100D01*
X-1130757Y1448714D01*
X-1133449Y1462074D01*
X-1137920Y1474927D01*
X-1144066Y1487119D01*
X-1151788Y1498346D01*
X-1160932Y1508455D01*
X-1171346Y1517294D01*
X-1182878Y1524609D01*
X-1195222Y1530350D01*
X-1208278Y1534414D01*
X-1221689Y1536649D01*
X-1235354Y1537106D01*
X-1248918Y1535734D01*
X-1262176Y1532585D01*
X-1274876Y1527708D01*
X-1286865Y1521155D01*
X-1297838Y1513027D01*
X-1307642Y1503578D01*
X-1316075Y1492859D01*
X-1323035Y1481124D01*
X-1328369Y1468577D01*
X-1331976Y1455420D01*
X-1333754Y1441907D01*
X-1333754Y1428292D01*
X-1331976Y1414780D01*
X-1328369Y1401622D01*
X-1323035Y1389075D01*
X-1316075Y1377340D01*
X-1307642Y1366621D01*
X-1297838Y1357122D01*
X-1286865Y1349044D01*
X-1274876Y1342491D01*
X-1262176Y1337614D01*
X-1248918Y1334414D01*
X-1235354Y1333042D01*
X-1221689Y1333500D01*
X-1208278Y1335786D01*
X-1205890Y1336497D01*
X-1202283Y1336954D01*
X-1198727Y1336090D01*
X-1195730Y1334008D01*
X-591616Y729894D01*
X-589788Y727405D01*
X-588416Y722274D01*
X-585216Y713181D01*
X-580542Y704748D01*
X-574446Y697230D01*
X-567232Y690880D01*
X-559003Y685800D01*
X-550062Y682244D01*
X-545185Y681177D01*
X-542493Y680161D01*
X-540156Y678434D01*
X-437591Y575919D01*
X-430276Y570433D01*
X-427837Y567740D01*
X-426466Y564337D01*
X-426364Y560679D01*
X-427634Y557225D01*
X-430022Y554431D01*
X-433730Y551383D01*
X-442671Y541832D01*
X-450240Y531114D01*
X-456234Y519480D01*
X-460603Y507187D01*
X-461975Y500735D01*
X-463753Y496773D01*
X-467004Y493877D01*
X-471170Y492658D01*
X-475437Y493268D01*
X-479094Y495604D01*
X-1698294Y1714804D01*
X-1700530Y1718106D01*
X-1701292Y1722018D01*
X-1701292Y1744980D01*
X-1700580Y1748789D01*
X-1698447Y1752041D01*
X-1695653Y1754987D01*
X-1690268Y1762963D01*
X-1686255Y1771751D01*
X-1683867Y1781098D01*
X-1683004Y1790700D01*
X-1683867Y1800301D01*
X-1686255Y1809648D01*
X-1690268Y1818436D01*
X-1695653Y1826412D01*
X-1702307Y1833372D01*
X-1710080Y1839112D01*
X-1718716Y1843481D01*
X-1727911Y1846275D01*
X-1737461Y1847545D01*
X-1747113Y1847088D01*
X-1756562Y1845056D01*
X-1763522Y1842262D01*
X-1767433Y1841550D01*
X-1771294Y1842312D01*
X-1774545Y1844548D01*
X-1776730Y1847850D01*
X-1777492Y1851710D01*
X-1777492Y2030323D01*
X-1776475Y2034692D01*
X-1773732Y2038197D01*
X-1769668Y2040178D01*
X-1765198Y2040229D01*
X-1759813Y2039112D01*
X-1750161Y2038654D01*
X-1740611Y2039924D01*
X-1731416Y2042718D01*
X-1722780Y2047087D01*
X-1715007Y2052828D01*
X-1708353Y2059787D01*
X-1702968Y2067763D01*
X-1698955Y2076551D01*
X-1696567Y2085898D01*
X-1695704Y2095500D01*
X-1696567Y2105101D01*
X-1698955Y2114448D01*
X-1702968Y2123236D01*
X-1708353Y2131212D01*
X-1711147Y2134158D01*
X-1713280Y2137410D01*
X-1713992Y2141220D01*
X-1713992Y2303881D01*
X-1713230Y2307793D01*
X-1710994Y2311095D01*
X-1699158Y2322931D01*
X-1695450Y2325319D01*
X-1691081Y2325878D01*
X-1686864Y2324557D01*
X-1683613Y2321560D01*
X-1681937Y2317496D01*
X-1680616Y2309774D01*
X-1677416Y2300681D01*
X-1672742Y2292248D01*
X-1666646Y2284730D01*
X-1659432Y2278380D01*
X-1651203Y2273300D01*
X-1642262Y2269744D01*
X-1632813Y2267712D01*
X-1623161Y2267254D01*
X-1613611Y2268524D01*
X-1604416Y2271318D01*
X-1595780Y2275687D01*
X-1588008Y2281428D01*
X-1581353Y2288387D01*
X-1575968Y2296363D01*
X-1571955Y2305151D01*
X-1569974Y2312822D01*
X-1568958Y2315311D01*
X-1567332Y2317445D01*
X-1431747Y2453030D01*
X-1428445Y2455214D01*
X-1424584Y2455976D01*
X-1280972Y2455976D01*
X-1278229Y2455621D01*
X-1275689Y2454503D01*
X-1270203Y2451100D01*
X-1261262Y2447544D01*
X-1251813Y2445512D01*
X-1242060Y2445105D01*
X-1237894Y2444750D01*
X-1234186Y2442768D01*
X-1231646Y2439517D01*
X-1230579Y2435453D01*
X-1231290Y2431338D01*
X-1233576Y2427833D01*
X-1373124Y2288235D01*
X-1378254Y2282037D01*
X-1381810Y2275332D01*
X-1383995Y2268118D01*
X-1384808Y2260092D01*
X-1384808Y2146808D01*
X-1383995Y2138781D01*
X-1381810Y2131568D01*
X-1378254Y2124862D01*
X-1373124Y2118664D01*
X-1297635Y2043175D01*
X-1293622Y2039874D01*
X-1291285Y2037080D01*
X-1290066Y2033574D01*
X-1290167Y2029917D01*
X-1291539Y2026513D01*
X-1294079Y2023821D01*
X-1297838Y2021078D01*
X-1307642Y2011578D01*
X-1316075Y2000859D01*
X-1323035Y1989124D01*
X-1323695Y1987550D01*
X-1276350Y1987550D01*
X-1276350Y2021332D01*
X-1275588Y2025243D01*
X-1273403Y2028494D01*
X-1270101Y2030730D01*
X-1266190Y2031492D01*
X-1197610Y2031492D01*
X-1193749Y2030730D01*
X-1190447Y2028494D01*
X-1188262Y2025243D01*
X-1187450Y2021332D01*
X-1187450Y1987550D01*
X-1140256Y1987550D01*
X-1144066Y1995119D01*
X-1151788Y2006346D01*
X-1159154Y2014524D01*
X-1161186Y2017826D01*
X-1161796Y2021687D01*
X-1160932Y2025446D01*
X-1158697Y2028647D01*
X-1155446Y2030730D01*
X-1151636Y2031492D01*
X-1099718Y2031492D01*
X-1095806Y2030730D01*
X-1092504Y2028494D01*
X23164Y912876D01*
X29362Y907745D01*
X36068Y904189D01*
X43281Y902004D01*
X51308Y901192D01*
X1808581Y901192D01*
X1812493Y900430D01*
X1815795Y898194D01*
X1939594Y774395D01*
X1941830Y771093D01*
X1942592Y767181D01*
X1942592Y465074D01*
X1942033Y461670D01*
X1940356Y458673D01*
X1934057Y450951D01*
X1929384Y442518D01*
X1926183Y433425D01*
X1924557Y423926D01*
X1924557Y421233D01*
X1923745Y417372D01*
X1921560Y414070D01*
X1676095Y168605D01*
X1672793Y166370D01*
X1668881Y165608D01*
X1194308Y165608D01*
X1186281Y164795D01*
X1179068Y162610D01*
X1172362Y159054D01*
X1166164Y153924D01*
X1059129Y46888D01*
X1056030Y44805D01*
X1052372Y43942D01*
X1046886Y43688D01*
X1037437Y41656D01*
X1028496Y38100D01*
X1020267Y33020D01*
X1013053Y26670D01*
X1006957Y19151D01*
X1002284Y10718D01*
X999083Y1625D01*
X997458Y-7873D01*
X997458Y-17526D01*
X999083Y-27025D01*
X1002284Y-36118D01*
X1006957Y-44551D01*
X1013053Y-52069D01*
X1020267Y-58419D01*
X1028496Y-63500D01*
X1037437Y-67056D01*
X1046886Y-69088D01*
X1056538Y-69545D01*
X1066088Y-68275D01*
X1079906Y-63957D01*
X1083716Y-64363D01*
X1087120Y-66141D01*
X1089609Y-69037D01*
X1090828Y-72644D01*
X1090676Y-76454D01*
X1089101Y-83007D01*
X1088237Y-94081D01*
X1088847Y-101955D01*
X1088390Y-105867D01*
X1086510Y-109270D01*
X1083411Y-111760D01*
X1079652Y-112877D01*
X1075740Y-112471D01*
X1066088Y-109524D01*
X1056538Y-108254D01*
X1046886Y-108712D01*
X1037437Y-110744D01*
X1028496Y-114300D01*
X1020267Y-119380D01*
X1013053Y-125730D01*
X1006957Y-133248D01*
X1002284Y-141681D01*
X999083Y-150774D01*
X997458Y-160274D01*
X997458Y-169926D01*
X999083Y-179425D01*
X1002284Y-188518D01*
X1006957Y-196951D01*
X1013053Y-204470D01*
X1020267Y-210820D01*
X1028496Y-215900D01*
X1037437Y-219456D01*
X1046886Y-221488D01*
X1052372Y-221742D01*
X1056030Y-222605D01*
X1059129Y-224688D01*
X1089964Y-255524D01*
X1096162Y-260654D01*
X1102868Y-264210D01*
X1110081Y-266395D01*
X1118108Y-267208D01*
X1726692Y-267208D01*
X1734718Y-266395D01*
X1741932Y-264210D01*
X1748637Y-260654D01*
X1754835Y-255524D01*
X2008124Y-2235D01*
X2013254Y3962D01*
X2016810Y10668D01*
X2018995Y17881D01*
X2019807Y25908D01*
X2019807Y195580D01*
X2020519Y199390D01*
X2022652Y202641D01*
X2025446Y205587D01*
X2030831Y213563D01*
X2034844Y222351D01*
X2037232Y231698D01*
X2038096Y241300D01*
X2037232Y250901D01*
X2034844Y260248D01*
X2030831Y269036D01*
X2025446Y277012D01*
X2018792Y283972D01*
X2011019Y289712D01*
X2002383Y294081D01*
X1993188Y296875D01*
X1983638Y298145D01*
X1973986Y297688D01*
X1964537Y295656D01*
X1955596Y292100D01*
X1947367Y287020D01*
X1940153Y280670D01*
X1934057Y273151D01*
X1929384Y264718D01*
X1926183Y255625D01*
X1924557Y246125D01*
X1924557Y236474D01*
X1926183Y226974D01*
X1929384Y217881D01*
X1934057Y209448D01*
X1940356Y201726D01*
X1942033Y198729D01*
X1942592Y195326D01*
X1942592Y45618D01*
X1941830Y41706D01*
X1939594Y38404D01*
X1714195Y-186994D01*
X1710893Y-189230D01*
X1706981Y-189992D01*
X1137818Y-189992D01*
X1133906Y-189230D01*
X1130604Y-186994D01*
X1118514Y-174904D01*
X1116279Y-171602D01*
X1115517Y-167741D01*
X1116279Y-163830D01*
X1118514Y-160528D01*
X1121816Y-158343D01*
X1125677Y-157581D01*
X1129588Y-158343D01*
X1137208Y-161493D01*
X1148029Y-164084D01*
X1159103Y-164947D01*
X1170178Y-164084D01*
X1180998Y-161493D01*
X1191260Y-157226D01*
X1200759Y-151434D01*
X1209243Y-144221D01*
X1216456Y-135737D01*
X1222248Y-126237D01*
X1226515Y-115976D01*
X1229106Y-105156D01*
X1229969Y-94081D01*
X1229106Y-83007D01*
X1226515Y-72186D01*
X1222248Y-61925D01*
X1216456Y-52425D01*
X1209243Y-43942D01*
X1200759Y-36728D01*
X1191260Y-30937D01*
X1180998Y-26670D01*
X1170178Y-24079D01*
X1159103Y-23215D01*
X1148029Y-24079D01*
X1137208Y-26670D01*
X1126947Y-30937D01*
X1125575Y-31750D01*
X1121410Y-33172D01*
X1116990Y-32664D01*
X1113180Y-30327D01*
X1110742Y-26619D01*
X1110183Y-22199D01*
X1110843Y-13919D01*
X1111758Y-10515D01*
X1113790Y-7569D01*
X1206804Y85394D01*
X1210106Y87630D01*
X1214018Y88392D01*
X1688592Y88392D01*
X1696618Y89204D01*
X1703832Y91389D01*
X1710537Y94945D01*
X1716735Y100076D01*
X1976018Y359308D01*
X1979523Y361594D01*
X1993188Y363524D01*
X2002383Y366318D01*
X2011019Y370687D01*
X2018792Y376428D01*
X2025446Y383387D01*
X2030831Y391363D01*
X2034844Y400151D01*
X2037232Y409498D01*
X2038096Y419100D01*
X2037232Y428701D01*
X2034844Y438048D01*
X2030831Y446836D01*
X2025446Y454812D01*
X2022652Y457758D01*
X2020519Y461009D01*
X2019807Y464820D01*
X2019807Y786892D01*
X2018995Y794918D01*
X2016810Y802132D01*
X2013254Y808837D01*
X2008124Y815035D01*
X1856435Y966724D01*
X1850237Y971854D01*
X1843532Y975410D01*
X1836318Y977595D01*
X1828292Y978408D01*
X71018Y978408D01*
X67106Y979169D01*
X63804Y981405D01*
X-1051864Y2097024D01*
X-1058062Y2102154D01*
X-1064768Y2105710D01*
X-1071981Y2107895D01*
X-1080008Y2108708D01*
X-1151636Y2108708D01*
X-1155446Y2109470D01*
X-1158697Y2111552D01*
X-1160932Y2114753D01*
X-1161796Y2118512D01*
X-1161186Y2122373D01*
X-1159154Y2125675D01*
X-1151788Y2133854D01*
X-1144066Y2145080D01*
X-1137920Y2157222D01*
X-1133449Y2170125D01*
X-1130757Y2183485D01*
X-1129842Y2197100D01*
X-1130757Y2210714D01*
X-1133500Y2224176D01*
X-1133602Y2227478D01*
X-1132636Y2230678D01*
X-1130706Y2233371D01*
X-1033119Y2331008D01*
X-1027785Y2338070D01*
X-1024026Y2345639D01*
X-1021740Y2353767D01*
X-1020876Y2362657D01*
X-1020876Y2812034D01*
X-1019911Y2816352D01*
X-1017219Y2819806D01*
X-1013307Y2821838D01*
X-1008887Y2821990D01*
X-1004824Y2820263D01*
X-1001877Y2816961D01*
X-999642Y2812948D01*
X-993343Y2805226D01*
X-991666Y2802229D01*
X-991108Y2798826D01*
X-991108Y2350008D01*
X-990295Y2341981D01*
X-988110Y2334768D01*
X-984554Y2328062D01*
X-979424Y2321864D01*
X277164Y1065276D01*
X283362Y1060145D01*
X290068Y1056589D01*
X297281Y1054404D01*
X305308Y1053592D01*
X2392680Y1053592D01*
X2396236Y1052931D01*
X2399385Y1051052D01*
X2404567Y1046480D01*
X2412796Y1041400D01*
X2421737Y1037844D01*
X2431186Y1035812D01*
X2440838Y1035354D01*
X2450388Y1036624D01*
X2459583Y1039418D01*
X2468219Y1043787D01*
X2475992Y1049528D01*
X2482646Y1056487D01*
X2488031Y1064463D01*
X2492044Y1073251D01*
X2494432Y1082598D01*
X2495296Y1092200D01*
X2494432Y1101801D01*
X2492044Y1111148D01*
X2488031Y1119936D01*
X2482646Y1127912D01*
X2475992Y1134872D01*
X2468219Y1140612D01*
X2459583Y1144981D01*
X2450388Y1147775D01*
X2440838Y1149045D01*
X2431186Y1148588D01*
X2421737Y1146556D01*
X2412796Y1143000D01*
X2404567Y1137920D01*
X2399385Y1133348D01*
X2396236Y1131468D01*
X2392680Y1130808D01*
X325018Y1130808D01*
X321106Y1131570D01*
X317804Y1133805D01*
X-910894Y2362504D01*
X-913130Y2365806D01*
X-913892Y2369718D01*
X-913892Y2549245D01*
X-913130Y2553157D01*
X-910894Y2556459D01*
X-907643Y2558643D01*
X-903732Y2559405D01*
X-899820Y2558643D01*
X-896569Y2556459D01*
X416864Y1243076D01*
X423062Y1237945D01*
X429768Y1234389D01*
X436981Y1232204D01*
X445008Y1231392D01*
X2392680Y1231392D01*
X2396236Y1230731D01*
X2399385Y1228852D01*
X2404567Y1224280D01*
X2412796Y1219200D01*
X2421737Y1215644D01*
X2431186Y1213612D01*
X2440838Y1213154D01*
X2450388Y1214424D01*
X2459583Y1217218D01*
X2468219Y1221587D01*
X2475992Y1227328D01*
X2482646Y1234287D01*
X2488031Y1242263D01*
X2492044Y1251051D01*
X2494432Y1260398D01*
X2495296Y1270000D01*
X2494432Y1279601D01*
X2492044Y1288948D01*
X2488031Y1297736D01*
X2482646Y1305712D01*
X2475992Y1312672D01*
X2468219Y1318412D01*
X2459583Y1322781D01*
X2450388Y1325575D01*
X2440838Y1326845D01*
X2431186Y1326388D01*
X2421737Y1324356D01*
X2412796Y1320800D01*
X2404567Y1315720D01*
X2399385Y1311148D01*
X2396236Y1309268D01*
X2392680Y1308608D01*
X1551127Y1308608D01*
X1547469Y1309268D01*
X1544320Y1311198D01*
X1542084Y1314094D01*
X1541018Y1317650D01*
X1541526Y1322222D01*
X1542542Y1324711D01*
X1544167Y1326845D01*
X1608480Y1391208D01*
X1613814Y1398270D01*
X1617573Y1405839D01*
X1619859Y1413967D01*
X1620723Y1422857D01*
X1620723Y1853285D01*
X1621586Y1857451D01*
X1624076Y1860854D01*
X1627733Y1862937D01*
X1631950Y1863394D01*
X1635963Y1862074D01*
X2832303Y1165098D01*
X2835249Y1162456D01*
X2836976Y1158900D01*
X2837230Y1154988D01*
X2835960Y1151229D01*
X2006498Y-285242D01*
X2004263Y-287934D01*
X2001215Y-289712D01*
X1997710Y-290322D01*
G37*

%LPC*%
G36*
X-374853Y-114350D02*
G01*
X-361746Y-114350D01*
X-348792Y-112572D01*
X-336194Y-109067D01*
X-324205Y-103835D01*
X-313029Y-97028D01*
X-302869Y-88747D01*
X-293928Y-79197D01*
X-286359Y-68529D01*
X-280365Y-56896D01*
X-275996Y-44551D01*
X-273304Y-31750D01*
X-272440Y-18694D01*
X-273304Y-5638D01*
X-275996Y7162D01*
X-280365Y19507D01*
X-286359Y31140D01*
X-293928Y41808D01*
X-302869Y51358D01*
X-313029Y59639D01*
X-324205Y66446D01*
X-336194Y71628D01*
X-348792Y75184D01*
X-361746Y76962D01*
X-374853Y76962D01*
X-387807Y75184D01*
X-400405Y71628D01*
X-412394Y66446D01*
X-423570Y59639D01*
X-433730Y51358D01*
X-442671Y41808D01*
X-450240Y31140D01*
X-456234Y19507D01*
X-460603Y7162D01*
X-463296Y-5638D01*
X-464159Y-18694D01*
X-463296Y-31750D01*
X-460603Y-44551D01*
X-456234Y-56896D01*
X-450240Y-68529D01*
X-442671Y-79197D01*
X-433730Y-88747D01*
X-423570Y-97028D01*
X-412394Y-103835D01*
X-400405Y-109067D01*
X-387807Y-112572D01*
G37*
G36*
X116738Y743254D02*
G01*
X126288Y744524D01*
X135483Y747318D01*
X147675Y753668D01*
X150876Y754176D01*
X1690827Y754176D01*
X1693570Y753821D01*
X1696110Y752703D01*
X1701596Y749300D01*
X1710537Y745744D01*
X1719986Y743712D01*
X1729638Y743254D01*
X1739188Y744524D01*
X1748383Y747318D01*
X1757019Y751687D01*
X1764792Y757428D01*
X1771446Y764387D01*
X1776831Y772363D01*
X1780844Y781151D01*
X1783232Y790498D01*
X1784096Y800100D01*
X1783232Y809701D01*
X1780844Y819048D01*
X1776831Y827836D01*
X1771446Y835812D01*
X1764792Y842771D01*
X1757019Y848512D01*
X1748383Y852881D01*
X1739188Y855675D01*
X1729638Y856945D01*
X1719986Y856487D01*
X1710537Y854456D01*
X1701596Y850900D01*
X1696110Y847496D01*
X1693570Y846378D01*
X1690827Y846023D01*
X150876Y846023D01*
X147675Y846531D01*
X135483Y852881D01*
X126288Y855675D01*
X116738Y856945D01*
X107086Y856487D01*
X97637Y854456D01*
X88696Y850900D01*
X83210Y847496D01*
X80670Y846378D01*
X77927Y846023D01*
X-256184Y846023D01*
X-260045Y846785D01*
X-263347Y848969D01*
X-1133398Y1719021D01*
X-1135837Y1722882D01*
X-1137920Y1728927D01*
X-1144066Y1741119D01*
X-1151788Y1752346D01*
X-1160932Y1762455D01*
X-1171346Y1771294D01*
X-1182878Y1778609D01*
X-1195222Y1784350D01*
X-1208278Y1788414D01*
X-1221689Y1790649D01*
X-1235354Y1791106D01*
X-1248918Y1789785D01*
X-1262176Y1786585D01*
X-1274876Y1781708D01*
X-1286865Y1775155D01*
X-1297838Y1767078D01*
X-1307642Y1757578D01*
X-1316075Y1746859D01*
X-1323035Y1735124D01*
X-1328369Y1722577D01*
X-1331976Y1709420D01*
X-1333754Y1695907D01*
X-1333754Y1682292D01*
X-1331976Y1668780D01*
X-1328369Y1655622D01*
X-1323035Y1643075D01*
X-1316075Y1631340D01*
X-1307642Y1620621D01*
X-1297838Y1611122D01*
X-1286865Y1603044D01*
X-1274876Y1596491D01*
X-1262176Y1591614D01*
X-1248918Y1588414D01*
X-1235354Y1587093D01*
X-1221689Y1587500D01*
X-1208278Y1589786D01*
X-1195222Y1593850D01*
X-1182878Y1599590D01*
X-1171346Y1606905D01*
X-1167536Y1610156D01*
X-1164285Y1611985D01*
X-1160576Y1612544D01*
X-1156919Y1611680D01*
X-1153820Y1609547D01*
X-310591Y766419D01*
X-303530Y761085D01*
X-295960Y757326D01*
X-287832Y755040D01*
X-278942Y754176D01*
X77927Y754176D01*
X80670Y753821D01*
X83210Y752703D01*
X88696Y749300D01*
X97637Y745744D01*
X107086Y743712D01*
G37*
G36*
X1584096Y-164947D02*
G01*
X1595170Y-164084D01*
X1605991Y-161493D01*
X1616252Y-157226D01*
X1625752Y-151434D01*
X1634236Y-144221D01*
X1641449Y-135737D01*
X1647240Y-126237D01*
X1651507Y-115976D01*
X1654098Y-105156D01*
X1654962Y-94081D01*
X1654098Y-83007D01*
X1651507Y-72186D01*
X1647240Y-61925D01*
X1641449Y-52425D01*
X1634236Y-43942D01*
X1625752Y-36728D01*
X1616252Y-30937D01*
X1605991Y-26670D01*
X1595170Y-24079D01*
X1584096Y-23215D01*
X1573022Y-24079D01*
X1562201Y-26670D01*
X1551940Y-30937D01*
X1542440Y-36728D01*
X1533956Y-43942D01*
X1526743Y-52425D01*
X1520952Y-61925D01*
X1516684Y-72186D01*
X1514094Y-83007D01*
X1513230Y-94081D01*
X1514094Y-105156D01*
X1516684Y-115976D01*
X1520952Y-126237D01*
X1526743Y-135737D01*
X1533956Y-144221D01*
X1542440Y-151434D01*
X1551940Y-157226D01*
X1562201Y-161493D01*
X1573022Y-164084D01*
G37*
G36*
X-1187450Y1851456D02*
G01*
X-1182878Y1853590D01*
X-1171346Y1860905D01*
X-1160932Y1869693D01*
X-1151788Y1879854D01*
X-1144066Y1891080D01*
X-1140256Y1898650D01*
X-1187450Y1898650D01*
G37*
G36*
X-1276350Y1851304D02*
G01*
X-1276350Y1898650D01*
X-1323695Y1898650D01*
X-1323035Y1897075D01*
X-1316075Y1885340D01*
X-1307642Y1874621D01*
X-1297838Y1865122D01*
X-1286865Y1857044D01*
G37*

%LPD*%
D10*
X-533400Y736600D02*
G01*
X-1231900Y1435100D01*
X114300Y800100D02*
G01*
X-279400Y800100D01*
X-1168400Y1689100D01*
X-1231900Y1689100D01*
X1625600Y3619500D02*
G01*
X1625600Y3048000D01*
X1435100Y2857500D01*
D11*
X1320800Y3873500D02*
G01*
X673100Y3225800D01*
X-1066800Y3225800D01*
X-1155700Y3136900D01*
X-1155700Y2451100D01*
X-1346200Y2260600D01*
X-1346200Y2146300D01*
X-1270000Y2070100D01*
X-1079500Y2070100D01*
X50800Y939800D01*
X1828800Y939800D01*
X1981200Y787400D01*
X1981200Y419100D01*
D10*
X1752600Y3810000D02*
G01*
X1663700Y3810000D01*
X927100Y3073400D01*
X927100Y2933700D01*
X-203200Y2933700D02*
G01*
X-228600Y2959100D01*
X-673100Y2959100D01*
X-838200Y3124200D01*
X-1066800Y3124200D01*
X-203200Y2933700D02*
G01*
X927100Y2933700D01*
X1574800Y2286000D01*
X1574800Y1422400D01*
X1485900Y1333500D01*
D11*
X2438400Y1270000D02*
G01*
X444500Y1270000D01*
X-889000Y2603500D01*
X-889000Y2921000D01*
X2438400Y1092200D02*
G01*
X304800Y1092200D01*
X-952500Y2349500D01*
X-952500Y2844800D01*
D10*
X2057400Y3886200D02*
G01*
X1485900Y3886200D01*
X673100Y3073400D01*
X-596900Y3073400D01*
D11*
X1841500Y482600D02*
G01*
X1130300Y482600D01*
X1028700Y381000D01*
X-419100Y381000D01*
X-1739900Y1701800D01*
X-1739900Y1790700D01*
X-1752600Y2095500D02*
G01*
X-1752600Y2324100D01*
X-1320800Y2755900D01*
X-1282700Y2755900D01*
X-1892300Y2146300D02*
G01*
X-1892300Y2540000D01*
X-1511300Y2921000D01*
D10*
X2286000Y3848100D02*
G01*
X2286000Y3683000D01*
X1752600Y3149600D01*
D11*
X-1816100Y2222500D02*
G01*
X-1816100Y1676400D01*
X-1536700Y1397000D01*
X-1536700Y1079500D01*
X-711200Y254000D01*
X1193800Y254000D01*
X1054100Y-12700D02*
G01*
X1193800Y127000D01*
X1689100Y127000D01*
X1981200Y419100D01*
X1981200Y241300D02*
G01*
X1981200Y25400D01*
X1727200Y-228600D01*
X1117600Y-228600D01*
X1054100Y-165100D01*
D10*
X-1625600Y2324100D02*
G01*
X-1447800Y2501900D01*
X-1244600Y2501900D01*
X-1066800Y3124200D02*
G01*
X-1066800Y2362200D01*
X-1231900Y2197100D01*
X-533400Y3581400D02*
G01*
X165100Y3581400D01*
X266700Y3479800D01*
X-533400Y3581400D02*
G01*
X-533400Y3454400D01*
X1727200Y609600D02*
G01*
X-406400Y609600D01*
X-533400Y736600D01*
X1727200Y800100D02*
G01*
X114300Y800100D01*
X1562100Y368300D02*
G01*
X1308100Y368300D01*
X1193800Y254000D01*
X977900Y1524000D02*
G01*
X1346200Y1524000D01*
X1409700Y1587500D01*
D11*
X685800Y1358900D02*
G01*
X1358900Y1358900D01*
X1473200Y1473200D01*
D12*
G01*
X-1231900Y1689100D03*
G01*
X-1231900Y1435100D03*
G01*
X-1231900Y927100D03*
G01*
X-1231900Y1943100D03*
G01*
X-1231900Y2197100D03*
D13*
G01*
X1054100Y-165100D03*
G01*
X1981200Y241300D03*
G01*
X1054100Y-12700D03*
G01*
X1981200Y419100D03*
G01*
X2438400Y1092200D03*
G01*
X1841500Y482600D03*
G01*
X1320800Y3873500D03*
G01*
X1473200Y1473200D03*
G01*
X1562100Y368300D03*
G01*
X-533400Y3581400D03*
G01*
X-533400Y3454400D03*
G01*
X-952500Y2844800D03*
G01*
X-889000Y2921000D03*
G01*
X2438400Y1270000D03*
G01*
X-1816100Y2222500D03*
G01*
X-1739900Y1790700D03*
G01*
X1625600Y3619500D03*
G01*
X685800Y1358900D03*
G01*
X-1066800Y3124200D03*
G01*
X1485900Y1333500D03*
G01*
X-1282700Y3505200D03*
G01*
X-1041400Y3759200D03*
G01*
X-1409700Y2857500D03*
G01*
X76200Y-127000D03*
G01*
X2209800Y3962400D03*
G01*
X901700Y-215900D03*
G01*
X2019300Y-25400D03*
G01*
X1168400Y12700D03*
G01*
X1511300Y2590800D03*
G01*
X457200Y1003300D03*
G01*
X1727200Y800100D03*
G01*
X1727200Y609600D03*
G01*
X2133600Y3187700D03*
G01*
X1409700Y1587500D03*
G01*
X977900Y1524000D03*
G01*
X1435100Y2857500D03*
G01*
X1193800Y254000D03*
G01*
X-1625600Y2324100D03*
G01*
X-1244600Y2501900D03*
G01*
X114300Y800100D03*
G01*
X-533400Y736600D03*
G01*
X-1397000Y1485900D03*
G01*
X-495300Y3873500D03*
G01*
X1320800Y2413000D03*
G01*
X-787400Y2819400D03*
G01*
X457200Y711200D03*
G01*
X-406400Y3352800D03*
G01*
X-203200Y2933700D03*
G01*
X-596900Y3073400D03*
G01*
X1752600Y3810000D03*
G01*
X2057400Y3886200D03*
G01*
X2095500Y3746500D03*
G01*
X2476500Y3632200D03*
G01*
X266700Y3479800D03*
G01*
X-1892300Y2146300D03*
G01*
X-1752600Y2095500D03*
G01*
X-1282700Y2755900D03*
G01*
X-1511300Y2921000D03*
G01*
X-190500Y2730500D03*
G01*
X-368300Y2870200D03*
G01*
X-1593926Y2585720D03*
G01*
X863600Y3162300D03*
G01*
X-653618Y2589098D03*
G01*
X-406400Y2286000D03*
G01*
X2286000Y3848100D03*
G01*
X1752600Y3149600D03*
G01*
X1460500Y3733800D03*
M02*
