G04 Layer: TopSolderMaskLayer*
G04 EasyEDA v6.5.22, 2023-01-18 14:56:14*
G04 eb7a50f388b942ddb5e33576d95934dd,93c32eb58a6e4653a9b851d96a472eee,10*
G04 Gerber Generator version 0.2*
G04 Scale: 100 percent, Rotated: No, Reflected: No *
G04 Dimensions in millimeters *
G04 leading zeros omitted , absolute positions ,4 integer and 5 decimal *
%FSLAX45Y45*%
%MOMM*%

%AMMACRO1*1,1,$1,$2,$3*1,1,$1,$4,$5*1,1,$1,0-$2,0-$3*1,1,$1,0-$4,0-$5*20,1,$1,$2,$3,$4,$5,0*20,1,$1,$4,$5,0-$2,0-$3,0*20,1,$1,0-$2,0-$3,0-$4,0-$5,0*20,1,$1,0-$4,0-$5,$2,$3,0*4,1,4,$2,$3,$4,$5,0-$2,0-$3,0-$4,0-$5,$2,$3,0*%
%AMMACRO2*1,1,$1,$2,$3*1,1,$1,$4,$5*20,1,$1,$2,$3,$4,$5,0*%
%ADD10MACRO1,0.1016X0.27X-0.395X-0.27X-0.395*%
%ADD11MACRO1,0.1016X0.27X0.395X-0.27X0.395*%
%ADD12MACRO1,0.1016X0.395X0.27X0.395X-0.27*%
%ADD13MACRO1,0.1016X-0.395X0.27X-0.395X-0.27*%
%ADD14MACRO1,0.1X0.315X-0.415X-0.315X-0.415*%
%ADD15MACRO1,0.1X-0.415X-0.315X-0.415X0.315*%
%ADD16MACRO1,0.1016X0.864X0.595X0.864X-0.595*%
%ADD17MACRO1,0.1016X0.6311X-0.213X-0.1311X-0.653*%
%ADD18MACRO1,0.1016X-0.3395X0.058X0.1195X0.323*%
%ADD19MACRO1,0.1016X-0.2X0.255X0.2X0.255*%
%ADD20MACRO1,0.1016X0.2X-0.255X-0.2X-0.255*%
%ADD21O,0.5015992X1.6015970000000002*%
%ADD22MACRO1,0.1016X-0.432X0.4032X0.432X0.4032*%
%ADD23MACRO1,0.1016X-0.432X-0.4032X0.432X-0.4032*%
%ADD24MACRO1,0.1016X0.0924X-0.3799X-0.3752X-0.1099*%
%ADD25MACRO1,0.1016X0.3752X0.1099X-0.0924X0.3799*%
%ADD26MACRO1,0.1016X-0.27X0.2828X0.27X0.2828*%
%ADD27MACRO1,0.1016X-0.27X-0.2828X0.27X-0.2828*%
%ADD28MACRO1,0.1016X-0.2828X-0.27X-0.2828X0.27*%
%ADD29MACRO1,0.1016X0.2828X-0.27X0.2828X0.27*%
%ADD30MACRO1,0.1016X0.27X-0.2828X-0.27X-0.2828*%
%ADD31MACRO1,0.1016X0.27X0.2828X-0.27X0.2828*%
%ADD32MACRO1,0.1016X0.3752X-0.1099X-0.0924X-0.3799*%
%ADD33MACRO1,0.1016X0.0924X0.3799X-0.3752X0.1099*%
%ADD34MACRO1,0.1016X0.3799X0.0924X0.1099X-0.3752*%
%ADD35MACRO1,0.1016X-0.1099X0.3752X-0.3799X-0.0924*%
%ADD36MACRO1,0.1016X0.2828X0.27X0.2828X-0.27*%
%ADD37MACRO1,0.1016X-0.2828X0.27X-0.2828X-0.27*%
%ADD38MACRO1,0.1016X-0.3799X-0.0924X-0.1099X0.3752*%
%ADD39MACRO1,0.1016X0.1099X-0.3752X0.3799X0.0924*%
%ADD40MACRO1,0.1016X-0.1099X-0.3752X-0.3799X0.0924*%
%ADD41MACRO1,0.1016X0.3799X-0.0924X0.1099X0.3752*%
%ADD42MACRO1,0.1016X0.3111X0.6096X0.3111X-0.6096*%
%ADD43MACRO1,0.1016X0.3099X0.6096X0.3099X-0.6096*%
%ADD44MACRO1,0.1016X-0.3111X-0.6096X-0.3111X0.6096*%
%ADD45MACRO1,0.1016X-0.3105X-0.6096X-0.3105X0.6096*%
%ADD46MACRO1,0.1016X0.3118X0.6096X0.3118X-0.6096*%
%ADD47MACRO1,0.1016X0.7325X-1.2312X-1.4325X0.0188*%
%ADD48MACRO1,0.1016X-1.0312X-0.3861X-0.1812X1.0861*%
%ADD49MACRO1,0.1016X-0.7325X1.2312X1.4325X-0.0188*%
%ADD50MACRO1,0.1016X0.7995X-0.1152X0.4995X-0.6348*%
%ADD51MACRO1,0.1016X-1.7392X-0.6124X-0.3392X1.8124*%
%ADD52MACRO2,0.7016X-0.433X-0.25X0.433X0.25*%
%ADD53MACRO1,0.1016X0.2075X2.1406X1.9575X-0.8906*%
%ADD54MACRO1,0.1016X0.4001X-0.2553X-0.4001X-0.2553*%
%ADD55MACRO1,0.1016X-0.8928X0.0536X-0.4928X0.7464*%
%ADD56MACRO1,0.1016X-1.824X-0.1593X-0.774X1.6593*%
%ADD57MACRO1,0.1016X1.3X-0.75X-1.3X-0.75*%
%ADD58MACRO1,0.1016X0.7746X-0.5919X0.1253X-0.9668*%
%ADD59MACRO1,0.1016X0.7097X-0.6294X0.1902X-0.9293*%
%ADD60MACRO1,0.1016X0.3379X0.7148X0.788X-0.0648*%
%ADD61MACRO1,0.1016X0.3379X0.7148X0.7879X-0.0648*%
%ADD62MACRO1,0.1016X-0.3749X0.8999X0.3749X0.8999*%
%ADD63MACRO1,0.1016X-0.3X0.8999X0.3X0.8999*%
%ADD64MACRO1,0.1016X-0.65X-0.4501X-0.65X0.4501*%
%ADD65MACRO1,0.1016X-0.27X0.395X0.27X0.395*%
%ADD66MACRO1,0.1016X-0.27X-0.395X0.27X-0.395*%
%ADD67MACRO1,0.1016X-0.395X-0.27X-0.395X0.27*%
%ADD68MACRO1,0.1016X0.395X-0.27X0.395X0.27*%
%ADD69MACRO1,0.1016X0.2071X0.4314X0.4771X-0.0363*%
%ADD70MACRO1,0.1016X-0.4771X0.0363X-0.2071X-0.4314*%
%ADD71MACRO1,0.1016X-0.0363X0.4771X0.4314X0.2071*%
%ADD72MACRO1,0.1016X-0.4314X-0.2071X0.0363X-0.4771*%
%ADD73MACRO1,0.1016X0.4314X-0.2071X-0.0363X-0.4771*%
%ADD74MACRO1,0.1016X0.0363X0.4771X-0.4314X0.2071*%
%ADD75MACRO1,0.1016X0.5X-0.3X-0.5X-0.3*%
%ADD76MACRO1,0.1016X-0.1714X-0.5031X0.5214X-0.1031*%
%ADD77MACRO1,0.1X-0.0652X-0.7129X-0.5848X-0.4129*%
%ADD78MACRO1,0.1X-0.1951X-0.6379X-0.4549X-0.4879*%
%ADD79MACRO1,0.1X0.366X-1.366X-1.366X-0.366*%
%ADD80C,1.6256*%
%ADD81C,0.0113*%

%LPD*%
D10*
G01*
X-76200Y3000905D03*
D11*
G01*
X-76200Y2891894D03*
D12*
G01*
X-384705Y2679700D03*
D13*
G01*
X-275694Y2679700D03*
D14*
G01*
X76305Y2921297D03*
G01*
X76297Y3149287D03*
D15*
G01*
X-101201Y2705096D03*
G01*
X126789Y2705103D03*
D16*
G01*
X292100Y3370300D03*
G01*
X292100Y3081299D03*
D17*
G01*
X1223476Y3754894D03*
G01*
X972328Y3609896D03*
D18*
G01*
X1078128Y3638646D03*
G01*
X1145677Y3677645D03*
D19*
G01*
X-1879701Y2223912D03*
G01*
X-1929701Y2093909D03*
G01*
X-1829701Y2093909D03*
D20*
G01*
X-1880463Y1889185D03*
G01*
X-1830463Y2019188D03*
G01*
X-1930463Y2019188D03*
D21*
G01*
X-1685036Y1521460D03*
G01*
X-1620012Y1521460D03*
G01*
X-1554987Y1521460D03*
G01*
X-1489963Y1521460D03*
G01*
X-1685036Y2161539D03*
G01*
X-1620012Y2161539D03*
G01*
X-1554987Y2161539D03*
G01*
X-1489963Y2161539D03*
D22*
G01*
X304800Y1270875D03*
D23*
G01*
X304800Y1421524D03*
D24*
G01*
X910640Y1459884D03*
D25*
G01*
X867359Y1384915D03*
D26*
G01*
X457200Y1328317D03*
D27*
G01*
X457200Y1414882D03*
D28*
G01*
X-1887117Y2324100D03*
D29*
G01*
X-1973682Y2324100D03*
D28*
G01*
X-1837333Y1789176D03*
D29*
G01*
X-1923898Y1789176D03*
D30*
G01*
X584200Y1414882D03*
D31*
G01*
X584200Y1328317D03*
D28*
G01*
X983082Y-25400D03*
D29*
G01*
X896517Y-25400D03*
D28*
G01*
X983082Y-152400D03*
D29*
G01*
X896517Y-152400D03*
D32*
G01*
X1642059Y4063384D03*
D33*
G01*
X1685340Y3988415D03*
D30*
G01*
X-1828800Y2710282D03*
D31*
G01*
X-1828800Y2623717D03*
D28*
G01*
X1402182Y3517900D03*
D29*
G01*
X1315617Y3517900D03*
D34*
G01*
X-164484Y3437940D03*
D35*
G01*
X-89515Y3394659D03*
D28*
G01*
X1402182Y3644900D03*
D29*
G01*
X1315617Y3644900D03*
D36*
G01*
X-1681582Y2667000D03*
D37*
G01*
X-1595017Y2667000D03*
D38*
G01*
X-1207115Y3597859D03*
D39*
G01*
X-1282084Y3641140D03*
D40*
G01*
X2298084Y3298240D03*
D41*
G01*
X2223115Y3254959D03*
D26*
G01*
X114300Y96417D03*
D27*
G01*
X114300Y182982D03*
D26*
G01*
X114300Y312317D03*
D27*
G01*
X114300Y398882D03*
D30*
G01*
X-850900Y182982D03*
D31*
G01*
X-850900Y96417D03*
D26*
G01*
X-850900Y312317D03*
D27*
G01*
X-850900Y398882D03*
D42*
G01*
X-603552Y2709468D03*
D43*
G01*
X-793554Y2709468D03*
D44*
G01*
X-793554Y2929468D03*
D45*
G01*
X-698540Y2929468D03*
D44*
G01*
X-603552Y2929468D03*
D46*
G01*
X-698540Y2709468D03*
D47*
G01*
X2776373Y1275621D03*
G01*
X2676352Y1102428D03*
G01*
X2576374Y929212D03*
G01*
X2476308Y756044D03*
G01*
X2376374Y582801D03*
G01*
X2276440Y409558D03*
G01*
X2176330Y236418D03*
G01*
X2076198Y63289D03*
D48*
G01*
X1790143Y78229D03*
G01*
X1616976Y178295D03*
G01*
X1443838Y278256D03*
G01*
X1270567Y378294D03*
G01*
X1097498Y478275D03*
G01*
X924393Y578043D03*
D49*
G01*
X768549Y818260D03*
G01*
X868483Y991504D03*
G01*
X968482Y1164708D03*
G01*
X1068482Y1337913D03*
G01*
X1168482Y1511118D03*
G01*
X1268482Y1684323D03*
G01*
X1368482Y1857527D03*
G01*
X1468481Y2030732D03*
D50*
G01*
X-1433600Y3346080D03*
G01*
X-1483600Y3259476D03*
G01*
X-1533599Y3172875D03*
G01*
X-1583599Y3086272D03*
G01*
X-1633599Y2999670D03*
G01*
X-1157298Y2724677D03*
G01*
X-1107299Y2811279D03*
G01*
X-1057299Y2897882D03*
G01*
X-1007299Y2984483D03*
G01*
X-957299Y3071087D03*
D51*
G01*
X-1295449Y3035377D03*
D52*
G01*
X1658061Y3548810D03*
G01*
X1721561Y3438829D03*
G01*
X1785061Y3328846D03*
G01*
X1848561Y3218864D03*
G01*
X2172792Y3845990D03*
G01*
X2236292Y3736008D03*
G01*
X2299792Y3626026D03*
G01*
X2363292Y3516044D03*
D53*
G01*
X2010670Y3532423D03*
D54*
G01*
X-1795780Y2519680D03*
G01*
X-1795780Y2425700D03*
G01*
X-1795780Y2331719D03*
G01*
X-1506219Y2331719D03*
G01*
X-1506219Y2425700D03*
G01*
X-1506219Y2519680D03*
D55*
G01*
X1605589Y2908999D03*
G01*
X1543093Y2800751D03*
D56*
G01*
X1164446Y2724900D03*
G01*
X1481946Y3274827D03*
D57*
G01*
X-643299Y-128701D03*
G01*
X-643299Y241300D03*
G01*
X-643299Y611301D03*
G01*
X-93300Y-128701D03*
G01*
X-93300Y241300D03*
G01*
X-93300Y611301D03*
D58*
G01*
X2148739Y4091607D03*
D59*
G01*
X2041376Y4029621D03*
D58*
G01*
X1936563Y3969106D03*
D60*
G01*
X2105370Y4291728D03*
D61*
G01*
X1784940Y4106730D03*
D62*
G01*
X1249100Y-4094D03*
D63*
G01*
X1373073Y-4094D03*
D62*
G01*
X1494101Y-4094D03*
D64*
G01*
X1186600Y-199090D03*
G01*
X1556598Y-199090D03*
D65*
G01*
X1333500Y2218794D03*
D66*
G01*
X1333500Y2327805D03*
D67*
G01*
X562505Y787400D03*
D68*
G01*
X453494Y787400D03*
D67*
G01*
X562505Y914400D03*
D68*
G01*
X453494Y914400D03*
D69*
G01*
X1578396Y3719247D03*
D70*
G01*
X1672803Y3773752D03*
D71*
G01*
X1674544Y2734094D03*
D72*
G01*
X1729054Y2828502D03*
D73*
G01*
X2347647Y3882603D03*
D74*
G01*
X2402152Y3788196D03*
D75*
G01*
X-200190Y3003296D03*
G01*
X-200190Y2813303D03*
G01*
X-460209Y2813303D03*
G01*
X-460209Y2908300D03*
G01*
X-460209Y3003296D03*
D76*
G01*
X1395249Y3904682D03*
G01*
X1551147Y3994689D03*
D77*
G01*
X-1047325Y3605430D03*
G01*
X-978062Y3565428D03*
D78*
G01*
X-921771Y3532929D03*
G01*
X-878459Y3507922D03*
G01*
X-835168Y3482929D03*
G01*
X-791856Y3457922D03*
G01*
X-748565Y3432929D03*
G01*
X-705253Y3407923D03*
G01*
X-661964Y3382929D03*
G01*
X-618652Y3357923D03*
D77*
G01*
X-562362Y3325423D03*
G01*
X-493072Y3285418D03*
D79*
G01*
X-1161873Y3787021D03*
G01*
X-966872Y4124770D03*
G01*
X-83527Y3614771D03*
G01*
X-278528Y3277022D03*
D80*
G01*
X-1231900Y1689100D03*
G01*
X-1231900Y1435100D03*
G01*
X-1231900Y927100D03*
G01*
X-1231900Y1943100D03*
G01*
X-1231900Y2197100D03*
M02*
