G04 Layer: TopLayer*
G04 EasyEDA v6.5.22, 2023-01-18 14:56:14*
G04 eb7a50f388b942ddb5e33576d95934dd,93c32eb58a6e4653a9b851d96a472eee,10*
G04 Gerber Generator version 0.2*
G04 Scale: 100 percent, Rotated: No, Reflected: No *
G04 Dimensions in millimeters *
G04 leading zeros omitted , absolute positions ,4 integer and 5 decimal *
%FSLAX45Y45*%
%MOMM*%

%AMMACRO1*21,1,$1,$2,0,0,$3*%
%AMMACRO2*1,1,$1,$2,$3*1,1,$1,$4,$5*20,1,$1,$2,$3,$4,$5,0*%
%ADD10C,0.4000*%
%ADD11C,0.2540*%
%ADD12MACRO1,0.54X0.7901X0.0000*%
%ADD13R,0.5400X0.7901*%
%ADD14MACRO1,0.54X0.7901X-90.0000*%
%ADD15R,0.6300X0.8300*%
%ADD16R,0.8300X0.6300*%
%ADD17R,1.7280X1.1901*%
%ADD18MACRO1,0.88X1X-149.9997*%
%ADD19MACRO1,0.88X1X-150.0012*%
%ADD20MACRO1,0.53X0.44X29.9993*%
%ADD21R,0.4000X0.5100*%
%ADD22O,0.3999992X1.499997*%
%ADD23MACRO1,0.864X0.8065X0.0000*%
%ADD24R,0.8640X0.8065*%
%ADD25MACRO1,0.54X0.5656X150.0004*%
%ADD26MACRO1,0.54X0.5656X0.0000*%
%ADD27R,0.5400X0.5657*%
%ADD28MACRO1,0.54X0.5656X90.0000*%
%ADD29MACRO1,0.54X0.5656X-150.0004*%
%ADD30MACRO1,0.54X0.5656X-119.9996*%
%ADD31MACRO1,0.54X0.5656X-90.0000*%
%ADD32MACRO1,0.54X0.5656X60.0004*%
%ADD33MACRO1,0.54X0.5656X119.9996*%
%ADD34R,0.6223X1.2192*%
%ADD35MACRO1,1.2192X0.6198X-90.0000*%
%ADD36MACRO1,1.2192X0.621X90.0000*%
%ADD37MACRO1,1.2192X0.6236X-90.0000*%
%ADD38MACRO1,2.5X1.4X150.0002*%
%ADD39MACRO1,2.5X1.4X149.9999*%
%ADD40MACRO1,1.7X1.4X60.0000*%
%ADD41MACRO1,1.7X1.4X60.0004*%
%ADD42MACRO1,2.5X1.4X-29.9998*%
%ADD43MACRO1,0.6X1.5X-120.0003*%
%ADD44MACRO1,0.6X1.5X-119.9991*%
%ADD45MACRO1,2.8X2.4X60.0000*%
%ADD46MACRO2,0.6X-0.433X-0.25X0.433X0.25*%
%ADD47MACRO1,3.5001X2.4999X-59.9999*%
%ADD48R,0.8001X0.5105*%
%ADD49MACRO1,0.8X1.6X60.0006*%
%ADD50MACRO1,0.8X1.6X59.9997*%
%ADD51MACRO1,2.1X3X59.9996*%
%ADD52MACRO1,2.1X3X59.9999*%
%ADD53R,2.6000X1.5000*%
%ADD54MACRO1,0.7498X1.7998X-149.9999*%
%ADD55MACRO1,0.5999X1.7998X-149.9994*%
%ADD56MACRO1,0.7498X1.7999X-149.9999*%
%ADD57MACRO1,0.9002X1.3X-60.0000*%
%ADD58R,0.7500X1.8000*%
%ADD59R,0.5999X1.8000*%
%ADD60R,1.3000X0.9000*%
%ADD61MACRO1,0.54X0.7901X90.0000*%
%ADD62MACRO1,0.54X0.7901X-60.0004*%
%ADD63MACRO1,0.54X0.7901X-29.9982*%
%ADD64MACRO1,0.54X0.79X-29.9996*%
%ADD65MACRO1,0.54X0.7901X-150.0004*%
%ADD66R,1.0000X0.6000*%
%ADD67MACRO1,0.8X0.7X30.0003*%
%ADD68MACRO1,0.6X1.3X149.9997*%
%ADD69MACRO1,0.3X1.3X150.0030*%
%ADD70MACRO1,0.3X1.3X150.0006*%
%ADD71MACRO1,0.6X1.3X150.0009*%
%ADD72MACRO1,2X2X150.0001*%
%ADD73MACRO1,2X2X149.9997*%
%ADD74MACRO1,2X2X150.0004*%
%ADD75C,1.5240*%
%ADD76C,0.6200*%
%ADD77C,0.0116*%

%LPD*%
G36*
X2125014Y3883914D02*
G01*
X2121001Y3884218D01*
X2117394Y3886098D01*
X2114804Y3889248D01*
X2113686Y3893159D01*
X2113432Y3895801D01*
X2111044Y3905148D01*
X2107031Y3913936D01*
X2105050Y3916883D01*
X2103729Y3919626D01*
X2103323Y3922572D01*
X2103323Y3925671D01*
X2103932Y3929126D01*
X2105660Y3932224D01*
X2108403Y3934460D01*
X2124811Y3943959D01*
X2129942Y3947718D01*
X2133701Y3952138D01*
X2136444Y3957269D01*
X2138273Y3964025D01*
X2140051Y3967581D01*
X2143048Y3970172D01*
X2146757Y3971442D01*
X2150719Y3971137D01*
X2157425Y3969359D01*
X2163216Y3969156D01*
X2168906Y3970223D01*
X2174697Y3972763D01*
X2184958Y3978656D01*
X2152700Y4034586D01*
X2124252Y4018178D01*
X2120493Y4016908D01*
X2116582Y4017162D01*
X2113026Y4018940D01*
X2110384Y4021886D01*
X2069185Y4093260D01*
X2067915Y4097020D01*
X2068169Y4100931D01*
X2069947Y4104487D01*
X2072893Y4107129D01*
X2101342Y4123537D01*
X2068830Y4179824D01*
X2068423Y4179976D01*
X2065426Y4177334D01*
X2058822Y4173524D01*
X2053691Y4169765D01*
X2049932Y4165346D01*
X2047189Y4160215D01*
X2045309Y4153458D01*
X2043582Y4149902D01*
X2040585Y4147312D01*
X2036825Y4146042D01*
X2032914Y4146346D01*
X2026208Y4148124D01*
X2020417Y4148328D01*
X2014728Y4147261D01*
X2008886Y4144721D01*
X1957933Y4115308D01*
X1952802Y4111498D01*
X1949043Y4107129D01*
X1946351Y4101998D01*
X1945081Y4097274D01*
X1943303Y4093718D01*
X1940356Y4091076D01*
X1936597Y4089806D01*
X1932635Y4090111D01*
X1927910Y4091330D01*
X1922119Y4091584D01*
X1916430Y4090517D01*
X1910588Y4087926D01*
X1903933Y4084116D01*
X1900174Y4082846D01*
X1896262Y4083100D01*
X1892706Y4084878D01*
X1890064Y4087825D01*
X1888794Y4091584D01*
X1889302Y4096410D01*
X1889506Y4102201D01*
X1888439Y4107891D01*
X1885899Y4113682D01*
X1841449Y4190644D01*
X1837689Y4195775D01*
X1833270Y4199534D01*
X1828190Y4202277D01*
X1822602Y4203750D01*
X1816811Y4203954D01*
X1811121Y4202887D01*
X1805279Y4200347D01*
X1693672Y4135932D01*
X1688592Y4132122D01*
X1684782Y4127754D01*
X1683004Y4124350D01*
X1680768Y4121505D01*
X1677670Y4119626D01*
X1674114Y4118965D01*
X1670507Y4119575D01*
X1667408Y4121404D01*
X1665884Y4122724D01*
X1661007Y4125264D01*
X1657756Y4128058D01*
X1655876Y4131919D01*
X1655825Y4136237D01*
X1657502Y4140200D01*
X1660702Y4143044D01*
X2099564Y4396435D01*
X2103323Y4397705D01*
X2107285Y4397451D01*
X2110841Y4395724D01*
X2113432Y4392726D01*
X2114651Y4390694D01*
X2115921Y4386935D01*
X2115667Y4382973D01*
X2113889Y4379417D01*
X2110892Y4376826D01*
X2014118Y4320946D01*
X2008987Y4317136D01*
X2005228Y4312767D01*
X2002536Y4307636D01*
X2001012Y4302048D01*
X2000808Y4296257D01*
X2001875Y4290568D01*
X2004415Y4284776D01*
X2048865Y4207814D01*
X2052624Y4202684D01*
X2057044Y4198924D01*
X2066543Y4194200D01*
X2069338Y4190847D01*
X2072132Y4193489D01*
X2075738Y4194911D01*
X2079193Y4195572D01*
X2085035Y4198112D01*
X2097786Y4205478D01*
X2101342Y4206697D01*
X2105050Y4206595D01*
X2108504Y4205122D01*
X2111197Y4202480D01*
X2112721Y4199026D01*
X2114296Y4192625D01*
X2118512Y4182364D01*
X2124354Y4172864D01*
X2131568Y4164431D01*
X2138375Y4158640D01*
X2140559Y4155948D01*
X2144826Y4148632D01*
X2148078Y4150004D01*
X2151176Y4150207D01*
X2154174Y4149445D01*
X2159762Y4147159D01*
X2170582Y4144518D01*
X2181707Y4143654D01*
X2192731Y4144518D01*
X2203958Y4147312D01*
X2213864Y4151376D01*
X2223363Y4157218D01*
X2231542Y4164177D01*
X2235454Y4166260D01*
X2239822Y4166463D01*
X2243937Y4164787D01*
X2246934Y4161536D01*
X2356815Y3971239D01*
X2358034Y3967632D01*
X2357882Y3963771D01*
X2356256Y3960266D01*
X2353462Y3957624D01*
X2349906Y3956202D01*
X2343658Y3955034D01*
X2337816Y3952443D01*
X2292045Y3926027D01*
X2286914Y3922268D01*
X2283155Y3917848D01*
X2280462Y3912768D01*
X2279802Y3910380D01*
X2278227Y3907028D01*
X2275535Y3904487D01*
X2272131Y3903065D01*
X2269540Y3902506D01*
X2265578Y3902456D01*
X2261920Y3903878D01*
X2252014Y3913784D01*
X2244039Y3919372D01*
X2235200Y3923487D01*
X2225802Y3926027D01*
X2216099Y3926840D01*
X2206396Y3926027D01*
X2196998Y3923487D01*
X2187752Y3919169D01*
X2128875Y3885184D01*
G37*

%LPC*%
G36*
X2228443Y4003801D02*
G01*
X2238705Y4009694D01*
X2243785Y4013454D01*
X2247595Y4017873D01*
X2250287Y4022953D01*
X2251760Y4028541D01*
X2252014Y4034332D01*
X2250897Y4040022D01*
X2248357Y4045864D01*
X2229307Y4078833D01*
X2196134Y4059682D01*
G37*

%LPD*%
G36*
X-374142Y2781096D02*
G01*
X-378002Y2781858D01*
X-381304Y2784094D01*
X-383540Y2787345D01*
X-384302Y2791256D01*
X-384302Y2842717D01*
X-385013Y2849067D01*
X-386892Y2854502D01*
X-388823Y2858922D01*
X-388823Y2862681D01*
X-386892Y2867101D01*
X-385013Y2872536D01*
X-384302Y2878886D01*
X-384302Y2886964D01*
X-428853Y2886964D01*
X-428853Y2879394D01*
X-429615Y2875483D01*
X-431800Y2872181D01*
X-435101Y2869996D01*
X-439013Y2869234D01*
X-481380Y2869234D01*
X-485292Y2869996D01*
X-488543Y2872181D01*
X-490778Y2875483D01*
X-491540Y2879394D01*
X-491540Y2886964D01*
X-536346Y2886964D01*
X-540258Y2887726D01*
X-543560Y2889910D01*
X-545744Y2893212D01*
X-546506Y2897124D01*
X-546506Y2919476D01*
X-545744Y2923387D01*
X-543560Y2926689D01*
X-540258Y2928874D01*
X-536346Y2929636D01*
X-491540Y2929636D01*
X-491540Y2937205D01*
X-490778Y2941116D01*
X-488543Y2944418D01*
X-485292Y2946603D01*
X-481380Y2947365D01*
X-439013Y2947365D01*
X-435101Y2946603D01*
X-431800Y2944418D01*
X-429615Y2941116D01*
X-428853Y2937205D01*
X-428853Y2929636D01*
X-384302Y2929636D01*
X-384302Y2937713D01*
X-385470Y2947822D01*
X-384556Y2951530D01*
X-382320Y2954629D01*
X-379069Y2956661D01*
X-375361Y2957372D01*
X-359511Y2957372D01*
X-355650Y2956610D01*
X-352348Y2954426D01*
X-340969Y2943047D01*
X-338785Y2939745D01*
X-338023Y2935884D01*
X-338023Y2817215D01*
X-338785Y2813354D01*
X-340969Y2810052D01*
X-366928Y2784094D01*
X-370230Y2781858D01*
G37*

%LPD*%
G36*
X-291642Y2649423D02*
G01*
X-295503Y2650185D01*
X-298805Y2652369D01*
X-301040Y2655671D01*
X-301802Y2659837D01*
X-309118Y2659837D01*
X-313029Y2660599D01*
X-316331Y2662834D01*
X-318516Y2666136D01*
X-319278Y2669997D01*
X-319278Y2689402D01*
X-318516Y2693263D01*
X-316331Y2696565D01*
X-313029Y2698800D01*
X-309118Y2699562D01*
X-301802Y2699562D01*
X-301802Y2715158D01*
X-301040Y2719070D01*
X-298805Y2722372D01*
X-265734Y2755442D01*
X-263296Y2757220D01*
X-260400Y2758236D01*
X-257352Y2758338D01*
X-249580Y2757373D01*
X-176936Y2757373D01*
X-173177Y2756662D01*
X-169926Y2754579D01*
X-167690Y2751429D01*
X-166827Y2747670D01*
X-167894Y2742336D01*
X-168605Y2736037D01*
X-168605Y2706979D01*
X-169367Y2703068D01*
X-171602Y2699766D01*
X-208534Y2662834D01*
X-211836Y2660599D01*
X-215747Y2659837D01*
X-249580Y2659837D01*
X-250342Y2655671D01*
X-252577Y2652369D01*
X-255879Y2650185D01*
X-259740Y2649423D01*
G37*

%LPC*%
G36*
X-249580Y2699562D02*
G01*
X-210261Y2699562D01*
X-210261Y2706116D01*
X-210972Y2712466D01*
X-212902Y2717901D01*
X-216001Y2722829D01*
X-220065Y2726893D01*
X-224993Y2729992D01*
X-230428Y2731871D01*
X-236778Y2732582D01*
X-249580Y2732582D01*
G37*

%LPD*%
G36*
X-1305915Y2518257D02*
G01*
X-1309878Y2518968D01*
X-1313281Y2521204D01*
X-1475130Y2683052D01*
X-1477314Y2686304D01*
X-1478076Y2690164D01*
X-1478127Y2706979D01*
X-1479346Y2715615D01*
X-1482039Y2723642D01*
X-1486154Y2731008D01*
X-1491894Y2737916D01*
X-1518208Y2764180D01*
X-1525270Y2769514D01*
X-1532839Y2773273D01*
X-1540967Y2775559D01*
X-1549857Y2776423D01*
X-1828444Y2776423D01*
X-1834845Y2775966D01*
X-1839163Y2776626D01*
X-1842770Y2779014D01*
X-1845106Y2782722D01*
X-1845614Y2787040D01*
X-1844293Y2791206D01*
X-1734413Y2981553D01*
X-1731772Y2984550D01*
X-1728216Y2986328D01*
X-1724253Y2986582D01*
X-1720545Y2985312D01*
X-1597101Y2914040D01*
X-1591259Y2911500D01*
X-1585569Y2910433D01*
X-1579778Y2910636D01*
X-1577848Y2911144D01*
X-1574088Y2911449D01*
X-1570482Y2910332D01*
X-1567535Y2907995D01*
X-1565656Y2904744D01*
X-1563116Y2897581D01*
X-1558442Y2889148D01*
X-1552346Y2881630D01*
X-1545132Y2875280D01*
X-1536903Y2870200D01*
X-1527962Y2866644D01*
X-1518513Y2864612D01*
X-1508861Y2864154D01*
X-1499311Y2865424D01*
X-1490116Y2868218D01*
X-1481480Y2872587D01*
X-1473708Y2878328D01*
X-1467053Y2885287D01*
X-1461668Y2893263D01*
X-1457655Y2902051D01*
X-1455267Y2911398D01*
X-1454607Y2918968D01*
X-1453438Y2922879D01*
X-1450898Y2925978D01*
X-1447292Y2927858D01*
X-1443228Y2928213D01*
X-1439418Y2926892D01*
X-1435862Y2924860D01*
X-1391107Y3002432D01*
X-1460144Y3042310D01*
X-1463751Y3039719D01*
X-1468069Y3038906D01*
X-1472285Y3039973D01*
X-1475740Y3042767D01*
X-1480566Y3048152D01*
X-1482852Y3051810D01*
X-1483410Y3056178D01*
X-1481480Y3061309D01*
X-1478940Y3067151D01*
X-1477873Y3072841D01*
X-1478026Y3076803D01*
X-1477467Y3080562D01*
X-1475587Y3083814D01*
X-1472641Y3086150D01*
X-1469085Y3088030D01*
X-1464716Y3091840D01*
X-1460906Y3096920D01*
X-1456893Y3103930D01*
X-1506321Y3132480D01*
X-1512570Y3121558D01*
X-1515211Y3118561D01*
X-1518767Y3116834D01*
X-1522730Y3116580D01*
X-1526489Y3117850D01*
X-1584807Y3151530D01*
X-1587804Y3154172D01*
X-1589532Y3157728D01*
X-1589836Y3161639D01*
X-1588566Y3165398D01*
X-1582267Y3176320D01*
X-1603248Y3188411D01*
X-1606245Y3191052D01*
X-1607972Y3194608D01*
X-1608226Y3198571D01*
X-1606956Y3202330D01*
X-1595780Y3221685D01*
X-1593138Y3224682D01*
X-1589582Y3226409D01*
X-1585671Y3226663D01*
X-1581912Y3225393D01*
X-1560880Y3213303D01*
X-1554632Y3224174D01*
X-1551990Y3227171D01*
X-1548434Y3228898D01*
X-1544472Y3229203D01*
X-1540713Y3227882D01*
X-1482394Y3194202D01*
X-1479397Y3191611D01*
X-1477619Y3188055D01*
X-1477365Y3184093D01*
X-1478635Y3180334D01*
X-1484934Y3169462D01*
X-1435557Y3140913D01*
X-1431493Y3147923D01*
X-1428953Y3153714D01*
X-1427886Y3159404D01*
X-1428038Y3163417D01*
X-1427480Y3167126D01*
X-1425600Y3170428D01*
X-1422603Y3172764D01*
X-1419098Y3174644D01*
X-1414729Y3178403D01*
X-1411274Y3183077D01*
X-1409039Y3185261D01*
X-1406194Y3186684D01*
X-1403096Y3187192D01*
X-1393901Y3187192D01*
X-1390294Y3186531D01*
X-1387144Y3184652D01*
X-1384909Y3181807D01*
X-1383792Y3178302D01*
X-1383995Y3174644D01*
X-1314754Y3134664D01*
X-1267561Y3216402D01*
X-1265326Y3219094D01*
X-1262278Y3220821D01*
X-1258824Y3221482D01*
X-784809Y3225393D01*
X-777341Y3226612D01*
X-770280Y3229305D01*
X-763879Y3233318D01*
X-758342Y3238500D01*
X-755040Y3242868D01*
X-721969Y3300780D01*
X-719328Y3303778D01*
X-715772Y3305556D01*
X-711809Y3305810D01*
X-708050Y3304540D01*
X-694893Y3296970D01*
X-689102Y3294430D01*
X-684987Y3293059D01*
X-681736Y3290163D01*
X-676605Y3286404D01*
X-651611Y3271977D01*
X-645769Y3269437D01*
X-641654Y3268065D01*
X-638403Y3265170D01*
X-633323Y3261410D01*
X-582320Y3231997D01*
X-576529Y3229406D01*
X-572363Y3228086D01*
X-569163Y3225190D01*
X-564032Y3221380D01*
X-557022Y3217367D01*
X-529386Y3265220D01*
X-529539Y3269030D01*
X-528320Y3272637D01*
X-499618Y3322320D01*
X-497128Y3325164D01*
X-493776Y3326942D01*
X-470154Y3367786D01*
X-467156Y3371087D01*
X-462991Y3372764D01*
X-458520Y3372510D01*
X-455117Y3371494D01*
X-444601Y3370224D01*
X-437286Y3370529D01*
X-433070Y3369767D01*
X-431647Y3368801D01*
X-429869Y3370630D01*
X-426161Y3372256D01*
X-423621Y3372764D01*
X-413715Y3376523D01*
X-404520Y3381806D01*
X-396290Y3388512D01*
X-389280Y3396437D01*
X-383590Y3405428D01*
X-379425Y3415182D01*
X-376936Y3425444D01*
X-376072Y3436010D01*
X-376936Y3446627D01*
X-379425Y3456889D01*
X-382981Y3465169D01*
X-383794Y3469030D01*
X-383032Y3472942D01*
X-380847Y3476294D01*
X-377545Y3478529D01*
X-373634Y3479292D01*
X-264820Y3479292D01*
X-260908Y3478529D01*
X-257606Y3476294D01*
X-229158Y3447846D01*
X-226923Y3444494D01*
X-226212Y3440531D01*
X-228244Y3430625D01*
X-228041Y3424834D01*
X-226517Y3419246D01*
X-223824Y3414115D01*
X-220065Y3409746D01*
X-214934Y3405987D01*
X-166776Y3378200D01*
X-163830Y3375558D01*
X-162966Y3373882D01*
X-160731Y3374847D01*
X-156718Y3374898D01*
X-151790Y3373374D01*
X-148031Y3369868D01*
X-146050Y3366312D01*
X-145592Y3362299D01*
X-146761Y3358438D01*
X-149352Y3355340D01*
X-152908Y3353460D01*
X-156972Y3353155D01*
X-160782Y3354425D01*
X-163677Y3356101D01*
X-166420Y3358540D01*
X-201574Y3297631D01*
X-141325Y3262884D01*
X-119786Y3300171D01*
X-117246Y3306013D01*
X-116128Y3311702D01*
X-116382Y3317494D01*
X-117856Y3323082D01*
X-120446Y3327958D01*
X-135077Y3336391D01*
X-138074Y3339033D01*
X-139801Y3342589D01*
X-140055Y3346551D01*
X-138785Y3350310D01*
X-117195Y3387699D01*
X-118668Y3388563D01*
X-121666Y3391204D01*
X-123393Y3394760D01*
X-123647Y3398723D01*
X-122377Y3402431D01*
X-112725Y3419246D01*
X-110083Y3422192D01*
X-106527Y3423970D01*
X-102565Y3424224D01*
X-98806Y3422954D01*
X-97332Y3422091D01*
X-75742Y3459530D01*
X-73101Y3462528D01*
X-69545Y3464255D01*
X-65582Y3464509D01*
X-61874Y3463239D01*
X-43942Y3452926D01*
X-43078Y3452622D01*
X-37490Y3454095D01*
X-32359Y3456838D01*
X-27990Y3460597D01*
X-24180Y3465728D01*
X-2641Y3503015D01*
X-62890Y3537813D01*
X-100025Y3473551D01*
X-102616Y3470554D01*
X-106172Y3468827D01*
X-110134Y3468522D01*
X-113893Y3469843D01*
X-162052Y3497630D01*
X-167843Y3500170D01*
X-173075Y3501593D01*
X-175514Y3503422D01*
X-193700Y3521608D01*
X-196037Y3525316D01*
X-196646Y3529685D01*
X-195326Y3533851D01*
X-160528Y3594150D01*
X-220725Y3628948D01*
X-242265Y3591610D01*
X-244805Y3585768D01*
X-245922Y3580079D01*
X-245668Y3574338D01*
X-244348Y3569309D01*
X-244043Y3565601D01*
X-245110Y3562045D01*
X-247345Y3559098D01*
X-250494Y3557168D01*
X-254152Y3556508D01*
X-468172Y3556508D01*
X-471830Y3557168D01*
X-474980Y3559098D01*
X-477215Y3561994D01*
X-478282Y3565550D01*
X-478028Y3569208D01*
X-477367Y3571798D01*
X-476504Y3581400D01*
X-477367Y3591001D01*
X-479755Y3600348D01*
X-483768Y3609136D01*
X-489153Y3617112D01*
X-495808Y3624072D01*
X-503580Y3629812D01*
X-512216Y3634181D01*
X-521309Y3636975D01*
X-523646Y3638042D01*
X-525678Y3639667D01*
X-551129Y3666032D01*
X-555548Y3669588D01*
X-557885Y3671163D01*
X-562914Y3673856D01*
X-565454Y3674973D01*
X-570890Y3676700D01*
X-573582Y3677310D01*
X-579221Y3678021D01*
X-875995Y3678123D01*
X-880211Y3679037D01*
X-883666Y3681577D01*
X-885748Y3685387D01*
X-886053Y3689654D01*
X-879957Y3704183D01*
X-877468Y3714445D01*
X-876604Y3725011D01*
X-877468Y3735628D01*
X-879957Y3745890D01*
X-884123Y3755644D01*
X-889812Y3764635D01*
X-896823Y3772560D01*
X-905052Y3779265D01*
X-914247Y3784549D01*
X-924153Y3788308D01*
X-934516Y3790442D01*
X-945134Y3790848D01*
X-955649Y3789578D01*
X-965809Y3786632D01*
X-975410Y3782110D01*
X-984148Y3776065D01*
X-991768Y3768699D01*
X-998118Y3760266D01*
X-1003046Y3750868D01*
X-1006449Y3740810D01*
X-1008126Y3730345D01*
X-1008126Y3719728D01*
X-1006449Y3709263D01*
X-1005586Y3706825D01*
X-1005128Y3702761D01*
X-1005840Y3700322D01*
X-1004316Y3699560D01*
X-1001521Y3696258D01*
X-998118Y3689807D01*
X-991768Y3681374D01*
X-989177Y3678885D01*
X-986739Y3675176D01*
X-986129Y3670757D01*
X-987450Y3666490D01*
X-1011021Y3625596D01*
X-1010869Y3621786D01*
X-1012139Y3618229D01*
X-1040841Y3568547D01*
X-1043279Y3565651D01*
X-1046683Y3563874D01*
X-1066292Y3529888D01*
X-1068679Y3527044D01*
X-1071930Y3525316D01*
X-1075639Y3524808D01*
X-1079246Y3525672D01*
X-1082294Y3527755D01*
X-1098651Y3544163D01*
X-1101039Y3547872D01*
X-1101598Y3552240D01*
X-1100277Y3556406D01*
X-1085240Y3582466D01*
X-1115161Y3599738D01*
X-1122832Y3586429D01*
X-1125270Y3583635D01*
X-1128522Y3581857D01*
X-1132179Y3581400D01*
X-1135786Y3582263D01*
X-1138834Y3584346D01*
X-1142441Y3587953D01*
X-1144676Y3591306D01*
X-1145387Y3595268D01*
X-1143355Y3605174D01*
X-1143558Y3610965D01*
X-1144117Y3613048D01*
X-1144371Y3617112D01*
X-1143000Y3620922D01*
X-1140206Y3623919D01*
X-1136497Y3625596D01*
X-1132433Y3625646D01*
X-1127201Y3624630D01*
X-1124204Y3624783D01*
X-1099007Y3668369D01*
X-1096416Y3671366D01*
X-1092860Y3673094D01*
X-1088898Y3673398D01*
X-1085138Y3672078D01*
X-1046378Y3649726D01*
X-1020368Y3694836D01*
X-1027379Y3698849D01*
X-1033221Y3701389D01*
X-1038860Y3702507D01*
X-1041908Y3702354D01*
X-1058316Y3673906D01*
X-1060958Y3670909D01*
X-1064514Y3669182D01*
X-1068476Y3668928D01*
X-1072184Y3670198D01*
X-1141222Y3710076D01*
X-1174750Y3652012D01*
X-1177391Y3649014D01*
X-1180947Y3647287D01*
X-1184859Y3647033D01*
X-1188618Y3648303D01*
X-1204671Y3657549D01*
X-1210513Y3660089D01*
X-1216202Y3661156D01*
X-1221943Y3660952D01*
X-1227429Y3659479D01*
X-1231392Y3659225D01*
X-1235151Y3660495D01*
X-1244244Y3665728D01*
X-1254404Y3648100D01*
X-1252931Y3647236D01*
X-1249934Y3644595D01*
X-1248206Y3641039D01*
X-1247952Y3637076D01*
X-1249222Y3633368D01*
X-1258874Y3616553D01*
X-1261516Y3613607D01*
X-1265072Y3611829D01*
X-1269034Y3611575D01*
X-1272794Y3612845D01*
X-1274267Y3613708D01*
X-1290777Y3585057D01*
X-1284528Y3581450D01*
X-1278686Y3578910D01*
X-1272590Y3577742D01*
X-1269390Y3576574D01*
X-1266748Y3574389D01*
X-1262684Y3569665D01*
X-1257554Y3565906D01*
X-1209548Y3538169D01*
X-1203756Y3535629D01*
X-1198524Y3534206D01*
X-1196086Y3532378D01*
X-1091133Y3427476D01*
X-1084935Y3422345D01*
X-1078230Y3418789D01*
X-1071016Y3416604D01*
X-1062990Y3415792D01*
X-965403Y3415792D01*
X-962050Y3415944D01*
X-957580Y3416554D01*
X-954582Y3417265D01*
X-950366Y3418789D01*
X-947572Y3420059D01*
X-943711Y3422345D01*
X-941273Y3424123D01*
X-936752Y3428339D01*
X-933094Y3430524D01*
X-928827Y3430981D01*
X-924763Y3429660D01*
X-919734Y3426764D01*
X-916889Y3424326D01*
X-915162Y3421024D01*
X-914704Y3417315D01*
X-914857Y3414928D01*
X-913790Y3407003D01*
X-911301Y3397199D01*
X-911098Y3393541D01*
X-912164Y3390036D01*
X-914450Y3387140D01*
X-917600Y3385261D01*
X-921207Y3384600D01*
X-1385773Y3384600D01*
X-1388414Y3384956D01*
X-1390853Y3385972D01*
X-1464614Y3428542D01*
X-1467612Y3431133D01*
X-1469339Y3434689D01*
X-1469593Y3438651D01*
X-1468323Y3442411D01*
X-1362811Y3625189D01*
X-1360220Y3628186D01*
X-1356664Y3629914D01*
X-1352702Y3630168D01*
X-1348943Y3628898D01*
X-1345946Y3626307D01*
X-1341424Y3617315D01*
X-1337665Y3612946D01*
X-1332534Y3609187D01*
X-1326286Y3605580D01*
X-1309776Y3634181D01*
X-1336852Y3649827D01*
X-1339850Y3652469D01*
X-1341577Y3656025D01*
X-1341831Y3659987D01*
X-1340561Y3663696D01*
X-1330858Y3680510D01*
X-1328267Y3683508D01*
X-1324711Y3685235D01*
X-1320749Y3685489D01*
X-1316990Y3684219D01*
X-1289913Y3668572D01*
X-1278940Y3687622D01*
X-1279956Y3690823D01*
X-1279906Y3694176D01*
X-1278686Y3697376D01*
X-1238859Y3766413D01*
X-1261872Y3779723D01*
X-1264869Y3782314D01*
X-1266596Y3785870D01*
X-1266850Y3789832D01*
X-1265580Y3793591D01*
X-1219403Y3873601D01*
X-1216812Y3876548D01*
X-1213256Y3878326D01*
X-1209294Y3878579D01*
X-1205534Y3877310D01*
X-1182471Y3864000D01*
X-1147724Y3924249D01*
X-1170736Y3937558D01*
X-1173734Y3940149D01*
X-1175512Y3943705D01*
X-1175766Y3947668D01*
X-1174496Y3951427D01*
X-1115568Y4053484D01*
X-1112926Y4056481D01*
X-1109370Y4058208D01*
X-1105408Y4058462D01*
X-1101648Y4057192D01*
X-1078636Y4043883D01*
X-1043838Y4104132D01*
X-1066901Y4117441D01*
X-1069848Y4120083D01*
X-1071626Y4123639D01*
X-1071880Y4127550D01*
X-1070610Y4131310D01*
X-1024432Y4211320D01*
X-1021791Y4214317D01*
X-1018235Y4216044D01*
X-1014272Y4216298D01*
X-1010513Y4215028D01*
X-987501Y4201769D01*
X-952703Y4261967D01*
X-975766Y4275277D01*
X-978763Y4277918D01*
X-980490Y4281474D01*
X-980744Y4285437D01*
X-979474Y4289145D01*
X-919683Y4392726D01*
X-917041Y4395724D01*
X-913485Y4397502D01*
X-909574Y4397756D01*
X-905814Y4396486D01*
X583438Y3536645D01*
X589432Y3534105D01*
X595680Y3533089D01*
X598119Y3533089D01*
X604367Y3534105D01*
X610362Y3536645D01*
X791362Y3641140D01*
X795020Y3642410D01*
X798880Y3642207D01*
X802386Y3640632D01*
X805027Y3637838D01*
X806450Y3634232D01*
X806805Y3632250D01*
X810056Y3623970D01*
X892810Y3458413D01*
X893876Y3453841D01*
X893876Y3160115D01*
X893114Y3156254D01*
X890930Y3152952D01*
X868121Y3130143D01*
X864819Y3127959D01*
X860958Y3127197D01*
X414578Y3127197D01*
X410667Y3127959D01*
X407365Y3130143D01*
X405180Y3133445D01*
X404418Y3137357D01*
X404418Y3140252D01*
X403707Y3146552D01*
X401777Y3151987D01*
X398729Y3156915D01*
X394614Y3160979D01*
X389737Y3164078D01*
X384251Y3166008D01*
X377952Y3166719D01*
X275793Y3166719D01*
X271932Y3167481D01*
X268630Y3169666D01*
X255117Y3183077D01*
X248158Y3188360D01*
X240588Y3192119D01*
X232460Y3194405D01*
X223570Y3195269D01*
X140665Y3195269D01*
X136601Y3196082D01*
X133248Y3198469D01*
X128016Y3206902D01*
X123901Y3211017D01*
X119024Y3214065D01*
X113537Y3215995D01*
X107238Y3216706D01*
X45364Y3216706D01*
X39065Y3215995D01*
X33578Y3214065D01*
X28702Y3211017D01*
X24587Y3206902D01*
X21488Y3202025D01*
X19608Y3196539D01*
X18897Y3190240D01*
X18897Y3108350D01*
X19608Y3102051D01*
X21488Y3096564D01*
X24587Y3091688D01*
X28702Y3087573D01*
X33578Y3084525D01*
X39065Y3082594D01*
X45364Y3081883D01*
X107238Y3081883D01*
X113537Y3082594D01*
X119024Y3084525D01*
X123901Y3087573D01*
X128016Y3091688D01*
X133248Y3100171D01*
X136652Y3102610D01*
X140716Y3103422D01*
X169621Y3103422D01*
X173532Y3102660D01*
X176834Y3100476D01*
X179019Y3097174D01*
X179781Y3093262D01*
X179781Y3022346D01*
X180492Y3016046D01*
X182422Y3010560D01*
X185470Y3005683D01*
X189585Y3001568D01*
X194462Y2998520D01*
X201269Y2996184D01*
X204876Y2994050D01*
X207314Y2990646D01*
X208178Y2986582D01*
X207314Y2982468D01*
X204876Y2979064D01*
X201269Y2976930D01*
X197358Y2975660D01*
X189992Y2971546D01*
X183083Y2965805D01*
X151079Y2933801D01*
X147777Y2931566D01*
X143865Y2930804D01*
X140004Y2931566D01*
X136702Y2933801D01*
X134467Y2937103D01*
X133705Y2940964D01*
X133705Y2962249D01*
X132994Y2968548D01*
X131114Y2974035D01*
X128016Y2978912D01*
X123901Y2983026D01*
X119024Y2986074D01*
X113537Y2988005D01*
X107238Y2988716D01*
X45364Y2988716D01*
X39065Y2988005D01*
X33578Y2986074D01*
X28702Y2983026D01*
X24587Y2978912D01*
X21539Y2974035D01*
X19608Y2968548D01*
X18897Y2962249D01*
X18897Y2920136D01*
X18135Y2916224D01*
X15900Y2912922D01*
X-28244Y2868777D01*
X-31546Y2866542D01*
X-35458Y2865780D01*
X-56337Y2865780D01*
X-56337Y2844901D01*
X-57099Y2840990D01*
X-59334Y2837688D01*
X-78689Y2818333D01*
X-81991Y2816098D01*
X-85090Y2815488D01*
X-85699Y2812440D01*
X-87884Y2809138D01*
X-106933Y2790088D01*
X-110235Y2787853D01*
X-114147Y2787091D01*
X-118008Y2787853D01*
X-121310Y2790088D01*
X-123494Y2793390D01*
X-124307Y2797251D01*
X-124307Y2818231D01*
X-123545Y2822041D01*
X-121462Y2825242D01*
X-118313Y2827477D01*
X-114604Y2828391D01*
X-110794Y2827832D01*
X-108966Y2827172D01*
X-102616Y2826461D01*
X-96062Y2826461D01*
X-96062Y2865780D01*
X-135026Y2865780D01*
X-138379Y2866339D01*
X-144424Y2868472D01*
X-150774Y2869184D01*
X-164287Y2869184D01*
X-168402Y2870047D01*
X-171805Y2872536D01*
X-173939Y2876194D01*
X-174396Y2880360D01*
X-173126Y2884373D01*
X-170332Y2887522D01*
X-165608Y2891028D01*
X-158953Y2897987D01*
X-153568Y2905963D01*
X-149555Y2914751D01*
X-149098Y2916580D01*
X-147218Y2920339D01*
X-144018Y2922981D01*
X-140004Y2924149D01*
X-135890Y2923590D01*
X-132283Y2921406D01*
X-129895Y2918002D01*
X-96062Y2918002D01*
X-96062Y2925318D01*
X-95300Y2929229D01*
X-93065Y2932531D01*
X-89763Y2934716D01*
X-85902Y2935478D01*
X-66497Y2935478D01*
X-62636Y2934716D01*
X-59334Y2932531D01*
X-57099Y2929229D01*
X-56337Y2925318D01*
X-56337Y2918002D01*
X-23317Y2918002D01*
X-23317Y2930804D01*
X-24028Y2937154D01*
X-26060Y2943047D01*
X-26619Y2946400D01*
X-26060Y2949752D01*
X-24028Y2955645D01*
X-23317Y2961995D01*
X-23317Y3039821D01*
X-24028Y3046171D01*
X-25908Y3051606D01*
X-29006Y3056534D01*
X-33070Y3060598D01*
X-37998Y3063697D01*
X-43434Y3065627D01*
X-49784Y3066338D01*
X-102616Y3066338D01*
X-108966Y3065627D01*
X-114401Y3063697D01*
X-119329Y3060598D01*
X-123647Y3056280D01*
X-126441Y3054299D01*
X-129692Y3053384D01*
X-133096Y3053537D01*
X-136245Y3054858D01*
X-138988Y3056585D01*
X-144424Y3058464D01*
X-150774Y3059176D01*
X-249631Y3059176D01*
X-255930Y3058464D01*
X-261416Y3056585D01*
X-266293Y3053486D01*
X-270408Y3049371D01*
X-273456Y3044494D01*
X-275386Y3039059D01*
X-276148Y3031490D01*
X-277215Y3027883D01*
X-279552Y3024886D01*
X-282854Y3022955D01*
X-286562Y3022396D01*
X-290271Y3023209D01*
X-293420Y3025343D01*
X-305206Y3037027D01*
X-312166Y3042310D01*
X-319735Y3046069D01*
X-327863Y3048355D01*
X-336753Y3049219D01*
X-385572Y3049219D01*
X-389432Y3049981D01*
X-392734Y3052165D01*
X-394055Y3053486D01*
X-398983Y3056585D01*
X-404418Y3058515D01*
X-410768Y3059226D01*
X-509625Y3059226D01*
X-515924Y3058515D01*
X-521411Y3056585D01*
X-525322Y3054096D01*
X-529539Y3052622D01*
X-534009Y3053080D01*
X-537819Y3055416D01*
X-540258Y3059125D01*
X-540867Y3063595D01*
X-540004Y3073400D01*
X-540867Y3083001D01*
X-543255Y3092348D01*
X-547268Y3101136D01*
X-552653Y3109112D01*
X-559308Y3116072D01*
X-567080Y3121812D01*
X-575716Y3126181D01*
X-584911Y3128975D01*
X-594461Y3130245D01*
X-604113Y3129788D01*
X-613562Y3127756D01*
X-622503Y3124200D01*
X-630732Y3119120D01*
X-637946Y3112770D01*
X-644042Y3105251D01*
X-648716Y3096818D01*
X-651916Y3087725D01*
X-653542Y3078226D01*
X-653542Y3068574D01*
X-651916Y3059074D01*
X-649986Y3053537D01*
X-649427Y3050184D01*
X-649427Y3025597D01*
X-650290Y3021482D01*
X-652780Y3018028D01*
X-656488Y3015945D01*
X-660704Y3015488D01*
X-668020Y3016351D01*
X-676656Y3016351D01*
X-676656Y2966313D01*
X-670712Y2966313D01*
X-666851Y2965500D01*
X-663549Y2963316D01*
X-661365Y2960014D01*
X-660552Y2956153D01*
X-660552Y2902813D01*
X-661365Y2898902D01*
X-663549Y2895600D01*
X-666851Y2893415D01*
X-670712Y2892653D01*
X-676656Y2892653D01*
X-676656Y2865374D01*
X-677519Y2861259D01*
X-679958Y2857855D01*
X-683564Y2855722D01*
X-685038Y2855264D01*
X-692404Y2851150D01*
X-699312Y2845409D01*
X-703122Y2841599D01*
X-706424Y2839415D01*
X-710285Y2838653D01*
X-714197Y2839415D01*
X-717499Y2841599D01*
X-719683Y2844901D01*
X-720445Y2848813D01*
X-720445Y2892653D01*
X-771652Y2892653D01*
X-771652Y2842615D01*
X-763016Y2842615D01*
X-756666Y2843326D01*
X-750163Y2845612D01*
X-745337Y2846171D01*
X-741984Y2845612D01*
X-735431Y2843326D01*
X-729081Y2842615D01*
X-726643Y2842615D01*
X-722782Y2841853D01*
X-719480Y2839618D01*
X-717296Y2836367D01*
X-716483Y2832455D01*
X-717245Y2828594D01*
X-719429Y2825292D01*
X-732231Y2812389D01*
X-737565Y2805328D01*
X-740765Y2799232D01*
X-743000Y2796387D01*
X-746048Y2794508D01*
X-749604Y2793796D01*
X-753110Y2794355D01*
X-756666Y2795625D01*
X-763016Y2796336D01*
X-824077Y2796336D01*
X-830427Y2795625D01*
X-835863Y2793695D01*
X-840790Y2790647D01*
X-844854Y2786532D01*
X-847953Y2781655D01*
X-849884Y2776169D01*
X-850595Y2769870D01*
X-850595Y2649067D01*
X-849884Y2642768D01*
X-847953Y2637282D01*
X-844854Y2632405D01*
X-840790Y2628290D01*
X-835863Y2625242D01*
X-830427Y2623312D01*
X-824077Y2622600D01*
X-763016Y2622600D01*
X-756666Y2623312D01*
X-750163Y2625598D01*
X-745337Y2626156D01*
X-741984Y2625598D01*
X-735431Y2623312D01*
X-729081Y2622600D01*
X-668020Y2622600D01*
X-661670Y2623312D01*
X-655167Y2625598D01*
X-650341Y2626156D01*
X-646938Y2625598D01*
X-640435Y2623312D01*
X-634085Y2622600D01*
X-573024Y2622600D01*
X-566674Y2623312D01*
X-561238Y2625242D01*
X-556310Y2628290D01*
X-553821Y2630830D01*
X-550519Y2633014D01*
X-546608Y2633776D01*
X-445312Y2633776D01*
X-442518Y2633370D01*
X-439928Y2632252D01*
X-435406Y2629408D01*
X-430174Y2627579D01*
X-427024Y2625801D01*
X-424738Y2623058D01*
X-422706Y2619552D01*
X-416915Y2612593D01*
X-374091Y2569819D01*
X-369112Y2566060D01*
X-366369Y2562910D01*
X-365150Y2558897D01*
X-365607Y2554732D01*
X-367741Y2551125D01*
X-371144Y2548686D01*
X-375259Y2547823D01*
X-1208024Y2547823D01*
X-1211224Y2548331D01*
X-1223416Y2554681D01*
X-1232611Y2557475D01*
X-1242161Y2558745D01*
X-1251813Y2558288D01*
X-1261262Y2556256D01*
X-1270203Y2552700D01*
X-1278432Y2547620D01*
X-1285646Y2541270D01*
X-1291742Y2533751D01*
X-1296517Y2525014D01*
X-1298651Y2521508D01*
X-1301902Y2519121D01*
G37*

%LPC*%
G36*
X-299161Y3354019D02*
G01*
X-264363Y3414268D01*
X-301701Y3435807D01*
X-307492Y3438347D01*
X-313182Y3439414D01*
X-318973Y3439210D01*
X-324561Y3437686D01*
X-329692Y3434994D01*
X-334060Y3431184D01*
X-337870Y3426104D01*
X-359410Y3388766D01*
G37*
G36*
X-243840Y3114649D02*
G01*
X-238048Y3114852D01*
X-232460Y3116376D01*
X-227380Y3119069D01*
X-222961Y3122828D01*
X-219202Y3127959D01*
X-197662Y3165297D01*
X-257911Y3200044D01*
X-292658Y3139795D01*
X-255371Y3118256D01*
X-249529Y3115716D01*
G37*
G36*
X-501548Y3188360D02*
G01*
X-495757Y3188563D01*
X-490169Y3190087D01*
X-485038Y3192780D01*
X-480669Y3196539D01*
X-476859Y3201670D01*
X-464108Y3223818D01*
X-494030Y3241090D01*
X-520039Y3196031D01*
X-513080Y3191967D01*
X-507238Y3189427D01*
G37*
G36*
X-932180Y3962400D02*
G01*
X-926439Y3962603D01*
X-920851Y3964127D01*
X-915720Y3966819D01*
X-911301Y3970578D01*
X-907542Y3975709D01*
X-886002Y4012996D01*
X-946251Y4047794D01*
X-981049Y3987546D01*
X-943711Y3966006D01*
X-937869Y3963466D01*
G37*
G36*
X-390296Y3196183D02*
G01*
X-355498Y3256381D01*
X-424535Y3296259D01*
X-427532Y3298901D01*
X-429259Y3302457D01*
X-429514Y3306368D01*
X-428243Y3310128D01*
X-411835Y3338576D01*
X-413258Y3341268D01*
X-417017Y3345637D01*
X-422148Y3349447D01*
X-429158Y3353460D01*
X-455168Y3308400D01*
X-416458Y3286048D01*
X-413461Y3283407D01*
X-411734Y3279851D01*
X-411429Y3275888D01*
X-412750Y3272129D01*
X-437896Y3228543D01*
X-436473Y3225850D01*
X-432714Y3221482D01*
X-427583Y3217722D01*
G37*
G36*
X-1109268Y2635402D02*
G01*
X-1103477Y2635656D01*
X-1097889Y2637129D01*
X-1092809Y2639822D01*
X-1088390Y2643632D01*
X-1084630Y2648712D01*
X-1055217Y2699715D01*
X-1052626Y2705557D01*
X-1051560Y2711246D01*
X-1051712Y2715209D01*
X-1051153Y2718968D01*
X-1049274Y2722219D01*
X-1046327Y2724556D01*
X-1042771Y2726436D01*
X-1038402Y2730246D01*
X-1034643Y2735326D01*
X-1005179Y2786329D01*
X-1002131Y2793644D01*
X-1000506Y2796997D01*
X-997712Y2799537D01*
X-994257Y2800858D01*
X-990549Y2800858D01*
X-987044Y2799537D01*
X-978103Y2794000D01*
X-969162Y2790444D01*
X-959713Y2788412D01*
X-950061Y2787954D01*
X-940511Y2789224D01*
X-931316Y2792018D01*
X-922680Y2796387D01*
X-914908Y2802128D01*
X-908253Y2809087D01*
X-902868Y2817063D01*
X-898855Y2825851D01*
X-896467Y2835198D01*
X-895603Y2844850D01*
X-896264Y2853182D01*
X-895858Y2856992D01*
X-894029Y2860395D01*
X-891082Y2862884D01*
X-887425Y2864053D01*
X-877011Y2865424D01*
X-867816Y2868218D01*
X-864463Y2869895D01*
X-860298Y2871012D01*
X-856030Y2870250D01*
X-852474Y2867812D01*
X-850239Y2864104D01*
X-847902Y2857246D01*
X-844854Y2852420D01*
X-840790Y2848305D01*
X-835863Y2845206D01*
X-830427Y2843326D01*
X-824077Y2842615D01*
X-815441Y2842615D01*
X-815441Y2892653D01*
X-824687Y2892653D01*
X-828294Y2893314D01*
X-831443Y2895244D01*
X-833729Y2898140D01*
X-834796Y2901696D01*
X-834491Y2905353D01*
X-832967Y2911398D01*
X-832103Y2921000D01*
X-832967Y2930601D01*
X-835355Y2939948D01*
X-839368Y2948736D01*
X-840486Y2950464D01*
X-842111Y2954528D01*
X-841857Y2958846D01*
X-839825Y2962706D01*
X-836371Y2965348D01*
X-832103Y2966313D01*
X-815441Y2966313D01*
X-815441Y3016351D01*
X-824077Y3016351D01*
X-830427Y3015640D01*
X-835863Y3013710D01*
X-840790Y3010611D01*
X-844854Y3006547D01*
X-847953Y3001619D01*
X-849884Y2996184D01*
X-850595Y2989834D01*
X-850595Y2981604D01*
X-851408Y2977540D01*
X-853744Y2974187D01*
X-857250Y2972054D01*
X-861364Y2971444D01*
X-865327Y2972511D01*
X-867816Y2973781D01*
X-877011Y2976575D01*
X-879297Y2976880D01*
X-883259Y2978251D01*
X-886358Y2981147D01*
X-887984Y2985008D01*
X-887933Y2989173D01*
X-886206Y2992983D01*
X-884631Y2995168D01*
X-855218Y3046120D01*
X-852627Y3051962D01*
X-851560Y3057652D01*
X-851814Y3063443D01*
X-853287Y3069031D01*
X-855980Y3074111D01*
X-859790Y3078530D01*
X-864869Y3082290D01*
X-993800Y3156712D01*
X-999642Y3159252D01*
X-1005332Y3160318D01*
X-1011123Y3160115D01*
X-1014577Y3159201D01*
X-1018133Y3158896D01*
X-1021587Y3159861D01*
X-1024534Y3161995D01*
X-1029208Y3166872D01*
X-1036980Y3172612D01*
X-1045616Y3176981D01*
X-1054811Y3179775D01*
X-1064361Y3181045D01*
X-1074013Y3180588D01*
X-1083462Y3178556D01*
X-1092403Y3175000D01*
X-1100632Y3169920D01*
X-1107846Y3163570D01*
X-1113942Y3156051D01*
X-1118616Y3147618D01*
X-1121206Y3140252D01*
X-1123594Y3136493D01*
X-1127302Y3134106D01*
X-1131671Y3133496D01*
X-1135888Y3134817D01*
X-1155039Y3145891D01*
X-1199794Y3068320D01*
X-1165199Y3048355D01*
X-1162202Y3045714D01*
X-1160424Y3042107D01*
X-1160221Y3038094D01*
X-1161592Y3034334D01*
X-1229664Y2920796D01*
X-1232306Y2917850D01*
X-1235862Y2916174D01*
X-1239774Y2915920D01*
X-1243482Y2917190D01*
X-1276146Y2936087D01*
X-1320952Y2858516D01*
X-1274368Y2831642D01*
X-1271168Y2828747D01*
X-1269492Y2824734D01*
X-1269593Y2820416D01*
X-1271524Y2816504D01*
X-1274876Y2813812D01*
X-1279093Y2812694D01*
X-1289964Y2812288D01*
X-1299362Y2810256D01*
X-1308303Y2806700D01*
X-1316532Y2801620D01*
X-1323746Y2795270D01*
X-1329842Y2787751D01*
X-1334516Y2779318D01*
X-1337716Y2770225D01*
X-1339342Y2760726D01*
X-1339342Y2751074D01*
X-1337716Y2741574D01*
X-1334516Y2732481D01*
X-1329842Y2724048D01*
X-1323746Y2716530D01*
X-1316532Y2710180D01*
X-1308303Y2705100D01*
X-1299362Y2701544D01*
X-1289913Y2699512D01*
X-1280261Y2699054D01*
X-1270711Y2700324D01*
X-1261516Y2703118D01*
X-1248765Y2709570D01*
X-1244854Y2709824D01*
X-1241145Y2708554D01*
X-1120800Y2639060D01*
X-1114958Y2636520D01*
G37*
G36*
X206248Y3284880D02*
G01*
X377952Y3284880D01*
X384251Y3285591D01*
X389737Y3287522D01*
X394614Y3290620D01*
X398729Y3294684D01*
X401777Y3299612D01*
X403707Y3305048D01*
X404418Y3311347D01*
X404418Y3429254D01*
X403707Y3435553D01*
X401777Y3441039D01*
X398729Y3445916D01*
X394614Y3450031D01*
X389737Y3453079D01*
X384251Y3455009D01*
X377952Y3455720D01*
X332130Y3455720D01*
X328523Y3456381D01*
X325374Y3458311D01*
X323088Y3461207D01*
X322021Y3464763D01*
X322732Y3470198D01*
X323596Y3479800D01*
X322732Y3489401D01*
X320344Y3498748D01*
X316331Y3507536D01*
X310946Y3515512D01*
X304292Y3522472D01*
X296519Y3528212D01*
X287883Y3532581D01*
X278688Y3535375D01*
X269138Y3536645D01*
X259486Y3536187D01*
X250037Y3534156D01*
X241096Y3530600D01*
X232867Y3525520D01*
X225653Y3519170D01*
X219557Y3511651D01*
X214884Y3503218D01*
X211683Y3494125D01*
X210058Y3484626D01*
X210058Y3474974D01*
X211378Y3467100D01*
X211226Y3462985D01*
X209499Y3459276D01*
X206400Y3456584D01*
X202488Y3455314D01*
X199948Y3455009D01*
X194462Y3453079D01*
X189585Y3450031D01*
X185470Y3445916D01*
X182422Y3441039D01*
X180492Y3435553D01*
X179781Y3429254D01*
X179781Y3311347D01*
X180492Y3305048D01*
X182422Y3299612D01*
X185470Y3294684D01*
X189585Y3290620D01*
X194462Y3287522D01*
X199948Y3285591D01*
G37*
G36*
X-80467Y3331362D02*
G01*
X-74676Y3331565D01*
X-69088Y3333089D01*
X-63957Y3335782D01*
X-59588Y3339541D01*
X-55778Y3344672D01*
X-52527Y3350361D01*
X-81686Y3367227D01*
X-98247Y3338576D01*
X-91948Y3334969D01*
X-86156Y3332429D01*
G37*
G36*
X-1024636Y3772865D02*
G01*
X-1003096Y3810203D01*
X-1000556Y3815994D01*
X-999490Y3821684D01*
X-999693Y3827475D01*
X-1001217Y3833063D01*
X-1003909Y3838194D01*
X-1007668Y3842562D01*
X-1012799Y3846372D01*
X-1050137Y3867912D01*
X-1084884Y3807663D01*
G37*
G36*
X-32664Y3384753D02*
G01*
X-29362Y3390442D01*
X-26822Y3396284D01*
X-25755Y3401974D01*
X-25958Y3407765D01*
X-27482Y3413353D01*
X-30175Y3418433D01*
X-33934Y3422853D01*
X-39065Y3426612D01*
X-45313Y3430219D01*
X-61823Y3401618D01*
G37*
G36*
X-829665Y4110634D02*
G01*
X-808126Y4147921D01*
X-805586Y4153763D01*
X-804519Y4159453D01*
X-804722Y4165244D01*
X-806196Y4170832D01*
X-808939Y4175912D01*
X-812698Y4180332D01*
X-817829Y4184091D01*
X-855116Y4205630D01*
X-889914Y4145381D01*
G37*
G36*
X53695Y3600602D02*
G01*
X75234Y3637940D01*
X77774Y3643782D01*
X78841Y3649421D01*
X78638Y3655212D01*
X77114Y3660800D01*
X74422Y3665931D01*
X70662Y3670300D01*
X65532Y3674110D01*
X28244Y3695649D01*
X-6553Y3635400D01*
G37*
G36*
X-104139Y3691737D02*
G01*
X-69392Y3751986D01*
X-106680Y3773525D01*
X-112522Y3776065D01*
X-118211Y3777132D01*
X-124002Y3776929D01*
X-129590Y3775456D01*
X-134670Y3772712D01*
X-139090Y3768953D01*
X-142849Y3763822D01*
X-164388Y3726535D01*
G37*
G36*
X-771652Y2966313D02*
G01*
X-720445Y2966313D01*
X-720445Y3016351D01*
X-729081Y3016351D01*
X-735431Y3015640D01*
X-741984Y3013354D01*
X-746810Y3012744D01*
X-750163Y3013354D01*
X-756666Y3015640D01*
X-763016Y3016351D01*
X-771652Y3016351D01*
G37*

%LPD*%
G36*
X-1580997Y2476042D02*
G01*
X-1585112Y2476754D01*
X-1588566Y2478989D01*
X-1632610Y2523032D01*
X-1634794Y2526334D01*
X-1635556Y2530195D01*
X-1635556Y2604160D01*
X-1634693Y2608326D01*
X-1632204Y2611729D01*
X-1628495Y2613863D01*
X-1624279Y2614269D01*
X-1615490Y2614066D01*
X-1615490Y2647137D01*
X-1617218Y2647137D01*
X-1621129Y2647899D01*
X-1624431Y2650134D01*
X-1626616Y2653436D01*
X-1627378Y2657297D01*
X-1627378Y2674416D01*
X-1626616Y2678328D01*
X-1624431Y2681630D01*
X-1621129Y2683814D01*
X-1617218Y2684576D01*
X-1580083Y2684576D01*
X-1576171Y2683814D01*
X-1572920Y2681630D01*
X-1570685Y2678379D01*
X-1569923Y2674467D01*
X-1569872Y2665171D01*
X-1568958Y2658719D01*
X-1569262Y2654503D01*
X-1571244Y2650794D01*
X-1574546Y2648204D01*
X-1574546Y2614066D01*
X-1567281Y2614066D01*
X-1560982Y2614828D01*
X-1555546Y2616708D01*
X-1551990Y2618943D01*
X-1548892Y2620213D01*
X-1545488Y2620416D01*
X-1542186Y2619451D01*
X-1539443Y2617520D01*
X-1510385Y2588463D01*
X-1508201Y2585161D01*
X-1507388Y2581249D01*
X-1508201Y2577388D01*
X-1510385Y2574086D01*
X-1513687Y2571902D01*
X-1517548Y2571089D01*
X-1545640Y2571089D01*
X-1551990Y2570378D01*
X-1557426Y2568498D01*
X-1562354Y2565400D01*
X-1566418Y2561336D01*
X-1569516Y2556408D01*
X-1571396Y2550972D01*
X-1572107Y2544622D01*
X-1572107Y2494737D01*
X-1571294Y2487320D01*
X-1571701Y2483205D01*
X-1573682Y2479548D01*
X-1576984Y2477058D01*
G37*

%LPD*%
G36*
X1481886Y2134666D02*
G01*
X1478076Y2135936D01*
X1408684Y2176018D01*
X1402842Y2178558D01*
X1392936Y2180285D01*
X1389532Y2182469D01*
X1387195Y2185771D01*
X1386382Y2189784D01*
X1386382Y2257704D01*
X1385671Y2264054D01*
X1383639Y2269947D01*
X1383080Y2273300D01*
X1383639Y2276652D01*
X1385671Y2282545D01*
X1386382Y2288895D01*
X1386382Y2301697D01*
X1353362Y2301697D01*
X1353362Y2294382D01*
X1352600Y2290470D01*
X1350365Y2287168D01*
X1347063Y2284984D01*
X1343202Y2284222D01*
X1323797Y2284222D01*
X1319936Y2284984D01*
X1316634Y2287168D01*
X1314399Y2290470D01*
X1313637Y2294382D01*
X1313637Y2301697D01*
X1275283Y2301697D01*
X1270965Y2302662D01*
X1267460Y2305456D01*
X1265428Y2309418D01*
X1260652Y2328926D01*
X1249883Y2364282D01*
X1237234Y2399030D01*
X1222756Y2433015D01*
X1206449Y2466238D01*
X1188415Y2498496D01*
X1168654Y2529738D01*
X1147216Y2559862D01*
X1145489Y2562047D01*
X1143711Y2565552D01*
X1143355Y2569565D01*
X1144625Y2573324D01*
X1147216Y2576372D01*
X1150772Y2578150D01*
X1154785Y2578404D01*
X1158544Y2577134D01*
X1228394Y2536799D01*
X1234236Y2534259D01*
X1239926Y2533192D01*
X1245717Y2533396D01*
X1251305Y2534920D01*
X1256385Y2537612D01*
X1260805Y2541371D01*
X1264564Y2546502D01*
X1369009Y2727401D01*
X1371549Y2733192D01*
X1372616Y2738882D01*
X1372412Y2744673D01*
X1370888Y2750261D01*
X1368196Y2755392D01*
X1364437Y2759760D01*
X1359306Y2763570D01*
X1308963Y2792628D01*
X1305712Y2795625D01*
X1304036Y2799689D01*
X1304188Y2804058D01*
X1306220Y2807970D01*
X1309725Y2810662D01*
X1314043Y2811576D01*
X1398727Y2811576D01*
X1401470Y2811221D01*
X1404010Y2810103D01*
X1409496Y2806700D01*
X1418437Y2803144D01*
X1422704Y2802178D01*
X1426718Y2800350D01*
X1429562Y2796997D01*
X1432458Y2791561D01*
X1436217Y2787142D01*
X1441348Y2783382D01*
X1578914Y2703931D01*
X1584756Y2701391D01*
X1590446Y2700324D01*
X1596237Y2700528D01*
X1600098Y2701594D01*
X1603857Y2701848D01*
X1607464Y2700731D01*
X1610410Y2698394D01*
X1613814Y2694432D01*
X1618945Y2690672D01*
X1664716Y2664206D01*
X1670557Y2661666D01*
X1676247Y2660599D01*
X1682038Y2660802D01*
X1687626Y2662326D01*
X1692757Y2665018D01*
X1697126Y2668828D01*
X1700885Y2673908D01*
X1739849Y2741371D01*
X1742389Y2747213D01*
X1743557Y2753309D01*
X1744725Y2756509D01*
X1746910Y2759151D01*
X1751634Y2763215D01*
X1755393Y2768346D01*
X1794357Y2835757D01*
X1796897Y2841599D01*
X1797964Y2847289D01*
X1797761Y2853080D01*
X1796237Y2858668D01*
X1793544Y2863748D01*
X1789785Y2868168D01*
X1784654Y2871927D01*
X1738884Y2898343D01*
X1733042Y2900934D01*
X1727911Y2901899D01*
X1724355Y2903270D01*
X1721612Y2905810D01*
X1719986Y2909214D01*
X1718919Y2913075D01*
X1716227Y2918206D01*
X1712468Y2922574D01*
X1707337Y2926334D01*
X1569770Y3005785D01*
X1564640Y3008020D01*
X1561388Y3010255D01*
X1559255Y3013557D01*
X1558544Y3017418D01*
X1559356Y3021279D01*
X1561541Y3024530D01*
X1564843Y3026714D01*
X1568704Y3027476D01*
X1678178Y3027527D01*
X1686915Y3028746D01*
X1694942Y3031439D01*
X1702307Y3035554D01*
X1709216Y3041294D01*
X1759102Y3091180D01*
X1761083Y3092704D01*
X1763369Y3093720D01*
X1773834Y3096869D01*
X1782419Y3101187D01*
X1790192Y3106928D01*
X1796846Y3113887D01*
X1802231Y3121863D01*
X1807870Y3134563D01*
X1810410Y3137103D01*
X1813661Y3138576D01*
X1824380Y3141370D01*
X1833575Y3145637D01*
X1919427Y3195218D01*
X1927758Y3201060D01*
X1934667Y3207918D01*
X1940255Y3215944D01*
X1944370Y3224733D01*
X1946859Y3234131D01*
X1947722Y3243834D01*
X1946859Y3253536D01*
X1944370Y3262985D01*
X1940255Y3271774D01*
X1934667Y3279749D01*
X1927758Y3286658D01*
X1919782Y3292246D01*
X1910943Y3296361D01*
X1901545Y3298901D01*
X1891842Y3299714D01*
X1882139Y3298901D01*
X1877720Y3297682D01*
X1873351Y3297478D01*
X1869287Y3299206D01*
X1866290Y3302406D01*
X1864969Y3306622D01*
X1865528Y3310991D01*
X1867916Y3314700D01*
X1871167Y3317951D01*
X1876755Y3325926D01*
X1880870Y3334715D01*
X1883359Y3344113D01*
X1884222Y3353815D01*
X1883359Y3363518D01*
X1880870Y3372967D01*
X1876755Y3381756D01*
X1871167Y3389731D01*
X1864258Y3396640D01*
X1856282Y3402228D01*
X1847443Y3406343D01*
X1838045Y3408883D01*
X1828342Y3409696D01*
X1818639Y3408883D01*
X1814220Y3407664D01*
X1809851Y3407460D01*
X1805787Y3409187D01*
X1802790Y3412388D01*
X1801469Y3416604D01*
X1802028Y3420973D01*
X1804416Y3424682D01*
X1807667Y3427933D01*
X1813255Y3435908D01*
X1817370Y3444697D01*
X1819859Y3454146D01*
X1820722Y3463848D01*
X1819859Y3473551D01*
X1817370Y3482949D01*
X1813255Y3491737D01*
X1807667Y3499764D01*
X1800758Y3506622D01*
X1792782Y3512210D01*
X1783943Y3516325D01*
X1774545Y3518865D01*
X1764842Y3519678D01*
X1755139Y3518865D01*
X1750720Y3517646D01*
X1746351Y3517493D01*
X1742287Y3519170D01*
X1739290Y3522370D01*
X1737969Y3526586D01*
X1738528Y3530955D01*
X1740916Y3534664D01*
X1744167Y3537915D01*
X1749755Y3545890D01*
X1753870Y3554679D01*
X1756359Y3564128D01*
X1757222Y3573830D01*
X1756359Y3583533D01*
X1753870Y3592931D01*
X1749755Y3601770D01*
X1744167Y3609746D01*
X1737258Y3616604D01*
X1729282Y3622192D01*
X1720443Y3626307D01*
X1711045Y3628847D01*
X1701342Y3629660D01*
X1690776Y3628745D01*
X1686356Y3629355D01*
X1682648Y3631742D01*
X1680311Y3635501D01*
X1679397Y3638042D01*
X1675231Y3647236D01*
X1669846Y3655212D01*
X1663192Y3662172D01*
X1655419Y3667912D01*
X1646783Y3672281D01*
X1640433Y3674211D01*
X1636522Y3676446D01*
X1633982Y3680104D01*
X1633220Y3684524D01*
X1634489Y3688842D01*
X1637436Y3692194D01*
X1643735Y3696715D01*
X1647748Y3701389D01*
X1650390Y3703574D01*
X1653590Y3704742D01*
X1659686Y3705910D01*
X1665528Y3708450D01*
X1676654Y3714902D01*
X1660143Y3743502D01*
X1653743Y3739845D01*
X1650034Y3738575D01*
X1646072Y3738829D01*
X1642516Y3740556D01*
X1639874Y3743553D01*
X1630222Y3760368D01*
X1628901Y3764076D01*
X1629206Y3768039D01*
X1630933Y3771595D01*
X1633931Y3774236D01*
X1640281Y3777894D01*
X1623720Y3806545D01*
X1612646Y3800094D01*
X1607515Y3796334D01*
X1603451Y3791610D01*
X1600809Y3789426D01*
X1597609Y3788257D01*
X1591513Y3787089D01*
X1585671Y3784549D01*
X1518208Y3745585D01*
X1513128Y3741826D01*
X1509318Y3737457D01*
X1506626Y3732326D01*
X1505153Y3726738D01*
X1504899Y3720947D01*
X1505966Y3715258D01*
X1508556Y3709415D01*
X1531213Y3670096D01*
X1532280Y3667455D01*
X1533753Y3656228D01*
X1536446Y3648201D01*
X1540560Y3640785D01*
X1546250Y3633927D01*
X1567383Y3612794D01*
X1569212Y3610305D01*
X1570583Y3605174D01*
X1573784Y3596081D01*
X1578457Y3587648D01*
X1582623Y3582517D01*
X1584502Y3578860D01*
X1584807Y3574694D01*
X1583385Y3570833D01*
X1580540Y3567785D01*
X1578864Y3566617D01*
X1571955Y3559708D01*
X1566570Y3551986D01*
X1563319Y3549040D01*
X1559102Y3547719D01*
X1554734Y3548278D01*
X1551025Y3550665D01*
X1459331Y3642309D01*
X1457147Y3645611D01*
X1456385Y3649522D01*
X1456385Y3671315D01*
X1455674Y3677665D01*
X1453743Y3683101D01*
X1450644Y3688029D01*
X1446580Y3692093D01*
X1441653Y3695192D01*
X1436217Y3697071D01*
X1429918Y3697782D01*
X1374444Y3697782D01*
X1368145Y3697071D01*
X1362252Y3695039D01*
X1358900Y3694480D01*
X1355547Y3695039D01*
X1349654Y3697071D01*
X1343355Y3697782D01*
X1311808Y3697782D01*
X1308049Y3698544D01*
X1304798Y3700627D01*
X1302562Y3703726D01*
X1301648Y3707485D01*
X1302207Y3711244D01*
X1304137Y3714597D01*
X1307947Y3719017D01*
X1310640Y3724148D01*
X1312113Y3729736D01*
X1312367Y3735527D01*
X1311300Y3741216D01*
X1308709Y3747058D01*
X1267358Y3818686D01*
X1266088Y3822496D01*
X1266444Y3826560D01*
X1268323Y3830167D01*
X1271422Y3832758D01*
X1275334Y3833876D01*
X1279347Y3833368D01*
X1282903Y3831386D01*
X1286967Y3827779D01*
X1295196Y3822700D01*
X1304137Y3819144D01*
X1313586Y3817112D01*
X1323238Y3816654D01*
X1332788Y3817924D01*
X1341983Y3820718D01*
X1350619Y3825087D01*
X1357122Y3829913D01*
X1360525Y3831539D01*
X1364335Y3831844D01*
X1368653Y3830320D01*
X1374241Y3828796D01*
X1380032Y3828592D01*
X1385722Y3829659D01*
X1391564Y3832199D01*
X1459839Y3871671D01*
X1464970Y3875430D01*
X1468729Y3879799D01*
X1471472Y3884929D01*
X1472946Y3890518D01*
X1473149Y3896309D01*
X1472082Y3901998D01*
X1469542Y3907840D01*
X1435100Y3967479D01*
X1431340Y3972560D01*
X1426972Y3976370D01*
X1421942Y3979011D01*
X1414627Y3980840D01*
X1411020Y3982516D01*
X1408328Y3985514D01*
X1407007Y3989273D01*
X1407261Y3993235D01*
X1409039Y3996842D01*
X1412036Y3999484D01*
X1460652Y4027576D01*
X1464462Y4028846D01*
X1468424Y4028592D01*
X1471980Y4026763D01*
X1474622Y4023766D01*
X1475841Y4019956D01*
X1475536Y4015994D01*
X1473454Y4008780D01*
X1473250Y4003040D01*
X1474317Y3997401D01*
X1476857Y3991559D01*
X1511300Y3931920D01*
X1515059Y3926789D01*
X1519428Y3923029D01*
X1524558Y3920337D01*
X1530146Y3918813D01*
X1535938Y3918610D01*
X1541627Y3919677D01*
X1547469Y3922217D01*
X1615744Y3961637D01*
X1620875Y3965448D01*
X1624533Y3968546D01*
X1628190Y3969664D01*
X1632051Y3969308D01*
X1635455Y3967530D01*
X1637995Y3964635D01*
X1653387Y3937965D01*
X1657146Y3932834D01*
X1661566Y3929075D01*
X1666646Y3926382D01*
X1672234Y3924858D01*
X1681276Y3924706D01*
X1684375Y3923741D01*
X1687017Y3921810D01*
X1703730Y3905097D01*
X1705914Y3901795D01*
X1706676Y3897934D01*
X1706676Y3852621D01*
X1705864Y3848658D01*
X1703578Y3845306D01*
X1700174Y3843172D01*
X1696161Y3842512D01*
X1691589Y3842664D01*
X1685899Y3841597D01*
X1680057Y3839057D01*
X1668932Y3832606D01*
X1685798Y3803497D01*
X1689354Y3803497D01*
X1692757Y3802278D01*
X1695450Y3799941D01*
X1697228Y3796842D01*
X1700784Y3786530D01*
X1704187Y3780485D01*
X1705254Y3777487D01*
X1705356Y3774236D01*
X1704441Y3771137D01*
X1721866Y3740962D01*
X1732991Y3747414D01*
X1738680Y3751630D01*
X1741779Y3753154D01*
X1745183Y3753612D01*
X1755038Y3753154D01*
X1764588Y3754424D01*
X1773783Y3757218D01*
X1782419Y3761587D01*
X1790192Y3767328D01*
X1796846Y3774287D01*
X1802231Y3782263D01*
X1806244Y3791051D01*
X1808632Y3800398D01*
X1809496Y3810000D01*
X1808632Y3819601D01*
X1806244Y3828948D01*
X1802231Y3837736D01*
X1800250Y3840683D01*
X1798929Y3843426D01*
X1798523Y3846372D01*
X1798523Y3921353D01*
X1799336Y3925417D01*
X1801774Y3928821D01*
X1805330Y3930954D01*
X1809445Y3931513D01*
X1813661Y3931158D01*
X1824736Y3932021D01*
X1835556Y3934663D01*
X1845818Y3938879D01*
X1855317Y3944721D01*
X1860854Y3949446D01*
X1864715Y3951528D01*
X1869135Y3951732D01*
X1873250Y3950055D01*
X1876247Y3946804D01*
X1926386Y3859936D01*
X1930146Y3854856D01*
X1934514Y3851046D01*
X1939645Y3848354D01*
X1945233Y3846880D01*
X1951024Y3846626D01*
X1956714Y3847744D01*
X1962556Y3850284D01*
X1991461Y3866946D01*
X1995220Y3868216D01*
X1999234Y3867962D01*
X2002789Y3866134D01*
X2005380Y3863086D01*
X2010257Y3854348D01*
X2016353Y3846829D01*
X2023567Y3840479D01*
X2031796Y3835400D01*
X2040737Y3831844D01*
X2050186Y3829812D01*
X2059838Y3829354D01*
X2062225Y3829710D01*
X2066289Y3829405D01*
X2069896Y3827526D01*
X2072487Y3824376D01*
X2073656Y3820515D01*
X2074468Y3811270D01*
X2077008Y3801872D01*
X2081123Y3793032D01*
X2086711Y3785057D01*
X2093569Y3778199D01*
X2101545Y3772611D01*
X2110384Y3768496D01*
X2119782Y3765956D01*
X2129485Y3765143D01*
X2139188Y3765956D01*
X2143607Y3767175D01*
X2148027Y3767328D01*
X2152091Y3765651D01*
X2155037Y3762400D01*
X2156358Y3758234D01*
X2155799Y3753865D01*
X2153412Y3750157D01*
X2150211Y3746906D01*
X2144623Y3738930D01*
X2140508Y3730091D01*
X2137968Y3720693D01*
X2137105Y3710990D01*
X2137765Y3703777D01*
X2185466Y3731310D01*
X2165705Y3765600D01*
X2164384Y3769360D01*
X2164689Y3773322D01*
X2166416Y3776878D01*
X2169414Y3779469D01*
X2206396Y3800856D01*
X2208834Y3801821D01*
X2211476Y3802176D01*
X2245715Y3802176D01*
X2249220Y3801567D01*
X2252268Y3799840D01*
X2254504Y3797096D01*
X2265730Y3777691D01*
X2287828Y3790391D01*
X2291588Y3791712D01*
X2297988Y3792524D01*
X2307183Y3795318D01*
X2315819Y3799687D01*
X2318105Y3801364D01*
X2322017Y3803091D01*
X2333904Y3806698D01*
X2337511Y3806444D01*
X2340762Y3804970D01*
X2343302Y3802430D01*
X2345994Y3798315D01*
X2350566Y3788562D01*
X2371902Y3800856D01*
X2368245Y3807206D01*
X2366975Y3810965D01*
X2367229Y3814927D01*
X2368956Y3818483D01*
X2371953Y3821125D01*
X2388768Y3830777D01*
X2392476Y3832098D01*
X2396439Y3831793D01*
X2399995Y3830065D01*
X2402636Y3827068D01*
X2406294Y3820718D01*
X2425547Y3831844D01*
X2429306Y3833114D01*
X2433269Y3832860D01*
X2436825Y3831132D01*
X2439416Y3828135D01*
X2455367Y3800500D01*
X2456637Y3796741D01*
X2456383Y3792829D01*
X2454656Y3789273D01*
X2451658Y3786632D01*
X2432405Y3775506D01*
X2452065Y3741470D01*
X2457754Y3744772D01*
X2462885Y3748532D01*
X2467000Y3753358D01*
X2469997Y3755745D01*
X2473706Y3756812D01*
X2477566Y3756456D01*
X2480970Y3754729D01*
X2483510Y3751783D01*
X2613456Y3526739D01*
X2614777Y3522522D01*
X2614168Y3518103D01*
X2611678Y3514344D01*
X2378303Y3288537D01*
X2374646Y3286251D01*
X2370328Y3285693D01*
X2366213Y3287014D01*
X2362962Y3289960D01*
X2361285Y3293922D01*
X2360777Y3296615D01*
X2358237Y3302457D01*
X2331821Y3348228D01*
X2328011Y3353358D01*
X2323642Y3357118D01*
X2318512Y3359810D01*
X2312924Y3361334D01*
X2304288Y3361486D01*
X2300325Y3362198D01*
X2296922Y3364382D01*
X2294636Y3367684D01*
X2293823Y3371646D01*
X2293823Y3427171D01*
X2294483Y3430828D01*
X2296414Y3433978D01*
X2299360Y3436264D01*
X2302916Y3437280D01*
X2306574Y3437026D01*
X2310282Y3436010D01*
X2319985Y3435146D01*
X2329688Y3436010D01*
X2339086Y3438550D01*
X2348331Y3442817D01*
X2351125Y3444443D01*
X2333802Y3474364D01*
X2309063Y3460089D01*
X2305050Y3458768D01*
X2300833Y3459226D01*
X2297176Y3461308D01*
X2294686Y3464712D01*
X2293823Y3468878D01*
X2293823Y3494684D01*
X2294432Y3498189D01*
X2296160Y3501237D01*
X2298903Y3503523D01*
X2312466Y3511346D01*
X2295144Y3541318D01*
X2294178Y3543757D01*
X2293823Y3546398D01*
X2293823Y3550920D01*
X2294585Y3554780D01*
X2296769Y3558082D01*
X2299716Y3561029D01*
X2301798Y3562604D01*
X2359101Y3595674D01*
X2362860Y3596995D01*
X2366772Y3596690D01*
X2370328Y3594963D01*
X2372969Y3591966D01*
X2392730Y3557676D01*
X2440482Y3585260D01*
X2434539Y3589426D01*
X2425700Y3593541D01*
X2416302Y3596081D01*
X2406599Y3596894D01*
X2396896Y3596081D01*
X2392476Y3594862D01*
X2388057Y3594658D01*
X2383993Y3596386D01*
X2381046Y3599586D01*
X2379726Y3603802D01*
X2380284Y3608171D01*
X2382621Y3611879D01*
X2385872Y3615131D01*
X2391460Y3623106D01*
X2395575Y3631895D01*
X2398115Y3641293D01*
X2398979Y3650996D01*
X2398115Y3660698D01*
X2395575Y3670147D01*
X2391460Y3678936D01*
X2385872Y3686911D01*
X2379014Y3693820D01*
X2371039Y3699408D01*
X2362200Y3703523D01*
X2352802Y3706063D01*
X2343099Y3706876D01*
X2333396Y3706063D01*
X2328976Y3704844D01*
X2324557Y3704640D01*
X2320493Y3706368D01*
X2317546Y3709568D01*
X2316226Y3713784D01*
X2316784Y3718153D01*
X2319121Y3721862D01*
X2322372Y3725113D01*
X2327960Y3733088D01*
X2332075Y3741877D01*
X2334615Y3751326D01*
X2335174Y3757726D01*
X2330602Y3765804D01*
X2287117Y3740708D01*
X2306878Y3706418D01*
X2308148Y3702659D01*
X2307894Y3698697D01*
X2306167Y3695141D01*
X2303170Y3692550D01*
X2240483Y3656329D01*
X2236724Y3655060D01*
X2232761Y3655314D01*
X2229205Y3657092D01*
X2226614Y3660038D01*
X2206802Y3694328D01*
X2159101Y3666794D01*
X2165045Y3662629D01*
X2173884Y3658514D01*
X2183282Y3655974D01*
X2192985Y3655161D01*
X2202688Y3655974D01*
X2207107Y3657193D01*
X2211527Y3657346D01*
X2215591Y3655669D01*
X2218537Y3652418D01*
X2219858Y3648252D01*
X2219299Y3643884D01*
X2216912Y3640175D01*
X2213711Y3636924D01*
X2208123Y3628948D01*
X2204008Y3620109D01*
X2201468Y3610711D01*
X2200605Y3601008D01*
X2201468Y3591306D01*
X2202586Y3587089D01*
X2202891Y3583482D01*
X2201976Y3573678D01*
X2201976Y3540760D01*
X2201062Y3536492D01*
X2198370Y3532987D01*
X2194458Y3530955D01*
X2190089Y3530752D01*
X2186025Y3532479D01*
X2183028Y3535679D01*
X2054148Y3758946D01*
X2050389Y3764026D01*
X2045970Y3767836D01*
X2040889Y3770528D01*
X2035302Y3772052D01*
X2029510Y3772255D01*
X2023821Y3771188D01*
X2017979Y3768648D01*
X1802485Y3644188D01*
X1797354Y3640429D01*
X1793544Y3636010D01*
X1790852Y3630929D01*
X1789379Y3625342D01*
X1789175Y3619550D01*
X1790242Y3613861D01*
X1792782Y3608019D01*
X1967179Y3305911D01*
X1970989Y3300780D01*
X1975357Y3297021D01*
X1980488Y3294329D01*
X1986076Y3292805D01*
X1991868Y3292601D01*
X1997557Y3293668D01*
X2003348Y3296208D01*
X2186736Y3402126D01*
X2190750Y3403396D01*
X2194966Y3402990D01*
X2198624Y3400856D01*
X2201113Y3397453D01*
X2201976Y3393287D01*
X2202027Y3346653D01*
X2203246Y3337915D01*
X2205939Y3329889D01*
X2212187Y3318611D01*
X2212441Y3314395D01*
X2230932Y3282391D01*
X2232406Y3283254D01*
X2236165Y3284524D01*
X2240127Y3284270D01*
X2243683Y3282492D01*
X2246325Y3279546D01*
X2255977Y3262731D01*
X2257247Y3259023D01*
X2256993Y3255060D01*
X2255266Y3251504D01*
X2252268Y3248863D01*
X2250795Y3247999D01*
X2267305Y3219399D01*
X2273554Y3223006D01*
X2278684Y3226765D01*
X2282748Y3231489D01*
X2285390Y3233674D01*
X2288590Y3234842D01*
X2294686Y3236010D01*
X2296668Y3236874D01*
X2300579Y3237738D01*
X2304542Y3236976D01*
X2307894Y3234791D01*
X2310130Y3231438D01*
X2310892Y3227476D01*
X2310079Y3223564D01*
X2307793Y3220262D01*
X1854707Y2781808D01*
X1853844Y2780639D01*
X1492046Y2139746D01*
X1489405Y2136698D01*
X1485849Y2134920D01*
G37*

%LPC*%
G36*
X2166264Y3245053D02*
G01*
X2195423Y3261918D01*
X2178913Y3290519D01*
X2172665Y3286912D01*
X2167534Y3283153D01*
X2163775Y3278733D01*
X2161082Y3273653D01*
X2159558Y3268065D01*
X2159355Y3262274D01*
X2160422Y3256584D01*
X2162962Y3250742D01*
G37*
G36*
X1280617Y2353919D02*
G01*
X1313637Y2353919D01*
X1313637Y2393238D01*
X1307084Y2393238D01*
X1300734Y2392527D01*
X1295298Y2390597D01*
X1290370Y2387498D01*
X1286306Y2383434D01*
X1283208Y2378506D01*
X1281328Y2373071D01*
X1280617Y2366721D01*
G37*
G36*
X2400452Y3714699D02*
G01*
X2406142Y3715765D01*
X2411984Y3718356D01*
X2417673Y3721608D01*
X2398014Y3755644D01*
X2369362Y3739134D01*
X2375814Y3728008D01*
X2379573Y3722928D01*
X2383942Y3719118D01*
X2389073Y3716426D01*
X2394661Y3714953D01*
G37*
G36*
X2431389Y3490772D02*
G01*
X2434183Y3492398D01*
X2442514Y3498240D01*
X2449372Y3505098D01*
X2454960Y3513124D01*
X2459075Y3521913D01*
X2461615Y3531311D01*
X2462479Y3541014D01*
X2461818Y3548278D01*
X2414117Y3520744D01*
G37*
G36*
X1353362Y2353919D02*
G01*
X1386382Y2353919D01*
X1386382Y2366721D01*
X1385671Y2373071D01*
X1383792Y2378506D01*
X1380693Y2383434D01*
X1376629Y2387498D01*
X1371701Y2390597D01*
X1366266Y2392527D01*
X1359916Y2393238D01*
X1353362Y2393238D01*
G37*
G36*
X2214067Y3191662D02*
G01*
X2219756Y3192729D01*
X2225548Y3195269D01*
X2231847Y3198876D01*
X2215286Y3227527D01*
X2186127Y3210661D01*
X2189378Y3204972D01*
X2193188Y3199841D01*
X2197557Y3196082D01*
X2202688Y3193389D01*
X2208276Y3191865D01*
G37*

%LPD*%
G36*
X-657555Y-27787D02*
G01*
X-661466Y-27025D01*
X-664768Y-24790D01*
X-795020Y105460D01*
X-797204Y108762D01*
X-798017Y112623D01*
X-798017Y124155D01*
X-798931Y131775D01*
X-798880Y136042D01*
X-797102Y139903D01*
X-793902Y142697D01*
X-789838Y143916D01*
X-785622Y143408D01*
X-779068Y141122D01*
X-772718Y140411D01*
X-513892Y140411D01*
X-507542Y141122D01*
X-502107Y143002D01*
X-497179Y146100D01*
X-493115Y150215D01*
X-490016Y155092D01*
X-488086Y160578D01*
X-487375Y166878D01*
X-487375Y315722D01*
X-488086Y322072D01*
X-490016Y327507D01*
X-493115Y332435D01*
X-497179Y336499D01*
X-502107Y339598D01*
X-507542Y341477D01*
X-513892Y342188D01*
X-594563Y342188D01*
X-598424Y343001D01*
X-601726Y345186D01*
X-603910Y348488D01*
X-604723Y352348D01*
X-604723Y500227D01*
X-603910Y504139D01*
X-601726Y507441D01*
X-598424Y509625D01*
X-594563Y510387D01*
X-513892Y510387D01*
X-507542Y511098D01*
X-502107Y513029D01*
X-497179Y516077D01*
X-493115Y520192D01*
X-490016Y525068D01*
X-488086Y530555D01*
X-487375Y536854D01*
X-487375Y685749D01*
X-488086Y692048D01*
X-489356Y697128D01*
X-488950Y700278D01*
X-487629Y703122D01*
X-483768Y708863D01*
X-479755Y717651D01*
X-477367Y726998D01*
X-476504Y736600D01*
X-477367Y746201D01*
X-479755Y755548D01*
X-483768Y764336D01*
X-489153Y772312D01*
X-495808Y779272D01*
X-503580Y785012D01*
X-512216Y789381D01*
X-521411Y792175D01*
X-530961Y793445D01*
X-540613Y792988D01*
X-550062Y790956D01*
X-559003Y787400D01*
X-564489Y783996D01*
X-567029Y782878D01*
X-569772Y782523D01*
X-814578Y782472D01*
X-823315Y781253D01*
X-831342Y778560D01*
X-838708Y774446D01*
X-845616Y768705D01*
X-884580Y729691D01*
X-889914Y722630D01*
X-893673Y715060D01*
X-895959Y706932D01*
X-896823Y698042D01*
X-896823Y448259D01*
X-897229Y445465D01*
X-898347Y442874D01*
X-901192Y438353D01*
X-903071Y432917D01*
X-903782Y426618D01*
X-903782Y371144D01*
X-903071Y364845D01*
X-901039Y358952D01*
X-900480Y355600D01*
X-901039Y352247D01*
X-903071Y346354D01*
X-903782Y340055D01*
X-903782Y284581D01*
X-903071Y278282D01*
X-901192Y272846D01*
X-898093Y267919D01*
X-894029Y263855D01*
X-889101Y260756D01*
X-883666Y258825D01*
X-877316Y258114D01*
X-855522Y258114D01*
X-851611Y257352D01*
X-847699Y254508D01*
X-845515Y251206D01*
X-844702Y247345D01*
X-845515Y243433D01*
X-847699Y240131D01*
X-851001Y237947D01*
X-854862Y237185D01*
X-877316Y237185D01*
X-883666Y236474D01*
X-889101Y234543D01*
X-894029Y231444D01*
X-898093Y227380D01*
X-901192Y222453D01*
X-903071Y217017D01*
X-903782Y210718D01*
X-903782Y205841D01*
X-904595Y201980D01*
X-906780Y198678D01*
X-910082Y196494D01*
X-913942Y195681D01*
X-917854Y196494D01*
X-921156Y198678D01*
X-992530Y270052D01*
X-994714Y273354D01*
X-995476Y277215D01*
X-995527Y2008378D01*
X-996746Y2017115D01*
X-999439Y2025142D01*
X-1003553Y2032507D01*
X-1009294Y2039416D01*
X-1130706Y2160828D01*
X-1132636Y2163521D01*
X-1133602Y2166721D01*
X-1133500Y2170023D01*
X-1130757Y2183485D01*
X-1129842Y2197100D01*
X-1130757Y2210714D01*
X-1133449Y2224074D01*
X-1137920Y2236927D01*
X-1144066Y2249119D01*
X-1151788Y2260346D01*
X-1160932Y2270455D01*
X-1171346Y2279294D01*
X-1182878Y2286609D01*
X-1195222Y2292350D01*
X-1208278Y2296414D01*
X-1221689Y2298649D01*
X-1235354Y2299106D01*
X-1248918Y2297785D01*
X-1262176Y2294585D01*
X-1274876Y2289708D01*
X-1286865Y2283155D01*
X-1297838Y2275078D01*
X-1307642Y2265578D01*
X-1316075Y2254859D01*
X-1323035Y2243124D01*
X-1328369Y2230577D01*
X-1331976Y2217420D01*
X-1333754Y2203907D01*
X-1333754Y2190292D01*
X-1331976Y2176780D01*
X-1328369Y2163622D01*
X-1323035Y2151075D01*
X-1316075Y2139340D01*
X-1307642Y2128621D01*
X-1297838Y2119122D01*
X-1286865Y2111044D01*
X-1274876Y2104491D01*
X-1262176Y2099614D01*
X-1248918Y2096414D01*
X-1235354Y2095093D01*
X-1221689Y2095500D01*
X-1208278Y2097786D01*
X-1205941Y2098497D01*
X-1202283Y2098954D01*
X-1198727Y2098090D01*
X-1195730Y2096007D01*
X-1090269Y1990547D01*
X-1088085Y1987245D01*
X-1087323Y1983384D01*
X-1087323Y1338783D01*
X-1088085Y1334871D01*
X-1090269Y1331569D01*
X-1093571Y1329385D01*
X-1097483Y1328623D01*
X-1174648Y1328623D01*
X-1178864Y1329537D01*
X-1182319Y1332128D01*
X-1184402Y1335938D01*
X-1184706Y1340256D01*
X-1183182Y1344269D01*
X-1180084Y1347317D01*
X-1171346Y1352905D01*
X-1160932Y1361694D01*
X-1151788Y1371803D01*
X-1144066Y1383080D01*
X-1137920Y1395222D01*
X-1133449Y1408125D01*
X-1130757Y1421485D01*
X-1129842Y1435100D01*
X-1130757Y1448714D01*
X-1133449Y1462074D01*
X-1137920Y1474927D01*
X-1144066Y1487119D01*
X-1151788Y1498346D01*
X-1160932Y1508455D01*
X-1171346Y1517294D01*
X-1182878Y1524609D01*
X-1195222Y1530350D01*
X-1208278Y1534414D01*
X-1221689Y1536649D01*
X-1235354Y1537106D01*
X-1248918Y1535734D01*
X-1262176Y1532585D01*
X-1274876Y1527708D01*
X-1286865Y1521155D01*
X-1297838Y1513027D01*
X-1307642Y1503578D01*
X-1316075Y1492859D01*
X-1323035Y1481124D01*
X-1328369Y1468577D01*
X-1331976Y1455420D01*
X-1333754Y1441907D01*
X-1333754Y1428292D01*
X-1331976Y1414780D01*
X-1328369Y1401622D01*
X-1323035Y1389075D01*
X-1316075Y1377340D01*
X-1307642Y1366621D01*
X-1297838Y1357122D01*
X-1286865Y1349044D01*
X-1284325Y1347673D01*
X-1281023Y1344726D01*
X-1279245Y1340662D01*
X-1279398Y1336243D01*
X-1281379Y1332280D01*
X-1284884Y1329588D01*
X-1289253Y1328623D01*
X-1589684Y1328623D01*
X-1593545Y1329385D01*
X-1596847Y1331569D01*
X-1672386Y1407109D01*
X-1674571Y1410462D01*
X-1675333Y1414373D01*
X-1674520Y1418285D01*
X-1672234Y1421587D01*
X-1668881Y1423771D01*
X-1664614Y1425397D01*
X-1657908Y1429562D01*
X-1654403Y1430934D01*
X-1650644Y1430934D01*
X-1647189Y1429562D01*
X-1640484Y1425397D01*
X-1636369Y1423822D01*
X-1636369Y1480820D01*
X-1638401Y1484020D01*
X-1639163Y1487779D01*
X-1639163Y1555140D01*
X-1638401Y1558899D01*
X-1636369Y1562100D01*
X-1636369Y1619097D01*
X-1640484Y1617522D01*
X-1647189Y1613357D01*
X-1650644Y1611985D01*
X-1654403Y1611985D01*
X-1657908Y1613357D01*
X-1664614Y1617522D01*
X-1672488Y1620570D01*
X-1680819Y1622145D01*
X-1689303Y1622145D01*
X-1697583Y1620570D01*
X-1705508Y1617522D01*
X-1712671Y1613052D01*
X-1719072Y1607210D01*
X-1722374Y1605229D01*
X-1726184Y1604568D01*
X-1729943Y1605381D01*
X-1733143Y1607566D01*
X-1844497Y1718919D01*
X-1846681Y1722221D01*
X-1847494Y1726082D01*
X-1846681Y1729993D01*
X-1844497Y1733296D01*
X-1841195Y1735480D01*
X-1837334Y1736242D01*
X-1809597Y1736242D01*
X-1803298Y1737004D01*
X-1797862Y1738884D01*
X-1789684Y1744065D01*
X-1785924Y1744776D01*
X-1776272Y1744776D01*
X-1773529Y1744421D01*
X-1770989Y1743303D01*
X-1765503Y1739900D01*
X-1756562Y1736343D01*
X-1747113Y1734312D01*
X-1737461Y1733854D01*
X-1727911Y1735124D01*
X-1718716Y1737918D01*
X-1710080Y1742287D01*
X-1702307Y1748028D01*
X-1695653Y1754987D01*
X-1690268Y1762963D01*
X-1686255Y1771751D01*
X-1683867Y1781098D01*
X-1683004Y1790700D01*
X-1683867Y1800301D01*
X-1686255Y1809648D01*
X-1690268Y1818436D01*
X-1695653Y1826412D01*
X-1702307Y1833372D01*
X-1710080Y1839112D01*
X-1718716Y1843481D01*
X-1727911Y1846275D01*
X-1737461Y1847545D01*
X-1747113Y1847088D01*
X-1756562Y1845056D01*
X-1765503Y1841500D01*
X-1770989Y1838096D01*
X-1773529Y1836978D01*
X-1776272Y1836623D01*
X-1781251Y1836623D01*
X-1785162Y1837385D01*
X-1788464Y1839620D01*
X-1790649Y1842973D01*
X-1792579Y1856435D01*
X-1795272Y1864461D01*
X-1799386Y1871827D01*
X-1805076Y1878685D01*
X-1831593Y1905203D01*
X-1833778Y1908505D01*
X-1834540Y1912366D01*
X-1835251Y1920443D01*
X-1837182Y1925878D01*
X-1840280Y1930806D01*
X-1844344Y1934870D01*
X-1849272Y1937969D01*
X-1854707Y1939899D01*
X-1861057Y1940610D01*
X-1899869Y1940610D01*
X-1906219Y1939899D01*
X-1911654Y1937969D01*
X-1916582Y1934870D01*
X-1920646Y1930806D01*
X-1923745Y1925878D01*
X-1925675Y1920443D01*
X-1926386Y1914093D01*
X-1926386Y1881225D01*
X-1927148Y1877314D01*
X-1929333Y1874012D01*
X-1932635Y1871827D01*
X-1936546Y1871065D01*
X-1940407Y1871827D01*
X-1943709Y1874012D01*
X-1945030Y1875332D01*
X-1947214Y1878634D01*
X-1947976Y1882495D01*
X-1947976Y1957628D01*
X-1947214Y1961489D01*
X-1945030Y1964791D01*
X-1941728Y1967026D01*
X-1937816Y1967788D01*
X-1911045Y1967788D01*
X-1904695Y1968500D01*
X-1899259Y1970379D01*
X-1894332Y1973478D01*
X-1890268Y1977593D01*
X-1889048Y1979472D01*
X-1886254Y1982419D01*
X-1882495Y1983993D01*
X-1878431Y1983993D01*
X-1874672Y1982419D01*
X-1871878Y1979472D01*
X-1870659Y1977593D01*
X-1866595Y1973478D01*
X-1861667Y1970379D01*
X-1856232Y1968500D01*
X-1849882Y1967788D01*
X-1811020Y1967788D01*
X-1804720Y1968500D01*
X-1799234Y1970379D01*
X-1794357Y1973478D01*
X-1790242Y1977593D01*
X-1787194Y1982470D01*
X-1785264Y1987956D01*
X-1784553Y1994255D01*
X-1784502Y2032355D01*
X-1783689Y2036165D01*
X-1781505Y2039416D01*
X-1778203Y2041601D01*
X-1774393Y2042363D01*
X-1759813Y2039112D01*
X-1750161Y2038654D01*
X-1740611Y2039924D01*
X-1731416Y2042718D01*
X-1722780Y2047087D01*
X-1715007Y2052828D01*
X-1708251Y2059838D01*
X-1705559Y2061870D01*
X-1702358Y2062886D01*
X-1698955Y2062784D01*
X-1689252Y2060854D01*
X-1680819Y2060854D01*
X-1672488Y2062429D01*
X-1664614Y2065477D01*
X-1657908Y2069642D01*
X-1654403Y2071014D01*
X-1650644Y2071014D01*
X-1647189Y2069642D01*
X-1640484Y2065477D01*
X-1632559Y2062429D01*
X-1624279Y2060854D01*
X-1615795Y2060854D01*
X-1607464Y2062429D01*
X-1599590Y2065477D01*
X-1592884Y2069642D01*
X-1589379Y2071014D01*
X-1585620Y2071014D01*
X-1582166Y2069642D01*
X-1575460Y2065477D01*
X-1567535Y2062429D01*
X-1559255Y2060854D01*
X-1550771Y2060854D01*
X-1542440Y2062429D01*
X-1534566Y2065477D01*
X-1527860Y2069642D01*
X-1524355Y2071014D01*
X-1520596Y2071014D01*
X-1517142Y2069642D01*
X-1510436Y2065477D01*
X-1502511Y2062429D01*
X-1494231Y2060854D01*
X-1485747Y2060854D01*
X-1477416Y2062429D01*
X-1469440Y2065528D01*
X-1465580Y2066188D01*
X-1461770Y2065375D01*
X-1458518Y2063140D01*
X-1456385Y2059889D01*
X-1455623Y2056028D01*
X-1455623Y1699615D01*
X-1456385Y1695754D01*
X-1458569Y1692452D01*
X-1522323Y1628698D01*
X-1527200Y1622602D01*
X-1530502Y1619758D01*
X-1534718Y1618589D01*
X-1538630Y1619199D01*
X-1538630Y1562100D01*
X-1536598Y1558899D01*
X-1535887Y1555140D01*
X-1535887Y1487779D01*
X-1536598Y1484020D01*
X-1538630Y1480820D01*
X-1538630Y1423822D01*
X-1534566Y1425397D01*
X-1527860Y1429562D01*
X-1524355Y1430934D01*
X-1520596Y1430934D01*
X-1517142Y1429562D01*
X-1510436Y1425397D01*
X-1502511Y1422349D01*
X-1494231Y1420774D01*
X-1485747Y1420774D01*
X-1477416Y1422349D01*
X-1469542Y1425397D01*
X-1462328Y1429867D01*
X-1456080Y1435557D01*
X-1451000Y1442313D01*
X-1447190Y1449882D01*
X-1444904Y1458010D01*
X-1444091Y1466951D01*
X-1444040Y1572920D01*
X-1443278Y1576781D01*
X-1441094Y1580083D01*
X-1376019Y1645208D01*
X-1370685Y1652270D01*
X-1366926Y1659839D01*
X-1364640Y1667967D01*
X-1363776Y1676857D01*
X-1363776Y2417318D01*
X-1363014Y2421229D01*
X-1360830Y2424531D01*
X-1357528Y2426716D01*
X-1353616Y2427478D01*
X-1349756Y2426716D01*
X-1346454Y2424531D01*
X-1301191Y2379319D01*
X-1294130Y2373985D01*
X-1286560Y2370226D01*
X-1278432Y2367940D01*
X-1269542Y2367076D01*
X-310337Y2367076D01*
X-306425Y2366314D01*
X-303123Y2364130D01*
X-300939Y2360828D01*
X-300177Y2356916D01*
X-300126Y1801875D01*
X-298907Y1793138D01*
X-296214Y1785112D01*
X-292100Y1777746D01*
X-286359Y1770837D01*
X96570Y1387957D01*
X103632Y1382623D01*
X111201Y1378864D01*
X119329Y1376578D01*
X128219Y1375714D01*
X229108Y1375714D01*
X232460Y1375156D01*
X235458Y1373530D01*
X237693Y1370990D01*
X241401Y1365097D01*
X245465Y1360982D01*
X250393Y1357934D01*
X256438Y1355801D01*
X259994Y1353667D01*
X262432Y1350264D01*
X263245Y1346200D01*
X262432Y1342136D01*
X259994Y1338732D01*
X256438Y1336598D01*
X250393Y1334465D01*
X245465Y1331417D01*
X241401Y1327302D01*
X238302Y1322425D01*
X236423Y1316939D01*
X235712Y1310640D01*
X235712Y1231138D01*
X236423Y1224788D01*
X238302Y1219352D01*
X241401Y1214424D01*
X245465Y1210360D01*
X250393Y1207262D01*
X255828Y1205331D01*
X262178Y1204620D01*
X347421Y1204620D01*
X353771Y1205331D01*
X359206Y1207262D01*
X364134Y1210360D01*
X368198Y1214424D01*
X371805Y1220216D01*
X374091Y1222756D01*
X377037Y1224381D01*
X380390Y1224940D01*
X401624Y1224991D01*
X410260Y1226210D01*
X418287Y1228902D01*
X425653Y1233017D01*
X432562Y1238758D01*
X464972Y1271168D01*
X468274Y1273352D01*
X472135Y1274114D01*
X483616Y1274114D01*
X489966Y1274826D01*
X495401Y1276756D01*
X500329Y1279855D01*
X504393Y1283919D01*
X507492Y1288846D01*
X509371Y1294282D01*
X510082Y1300581D01*
X510082Y1356055D01*
X508711Y1366570D01*
X509574Y1370330D01*
X511809Y1373479D01*
X515061Y1375562D01*
X518820Y1376273D01*
X522579Y1376273D01*
X526338Y1375562D01*
X529590Y1373479D01*
X531825Y1370330D01*
X532688Y1366570D01*
X531317Y1356055D01*
X531317Y1348790D01*
X564337Y1348790D01*
X564337Y1350518D01*
X565099Y1354429D01*
X567334Y1357731D01*
X570636Y1359916D01*
X574497Y1360678D01*
X593902Y1360678D01*
X597763Y1359916D01*
X601065Y1357731D01*
X603300Y1354429D01*
X604062Y1350518D01*
X604062Y1348790D01*
X622096Y1348790D01*
X626110Y1347978D01*
X629513Y1345590D01*
X631647Y1342034D01*
X633984Y1335481D01*
X638657Y1327048D01*
X640842Y1324356D01*
X642620Y1321054D01*
X643077Y1317244D01*
X642112Y1313586D01*
X640892Y1311960D01*
X644296Y1313840D01*
X648563Y1314246D01*
X652576Y1312773D01*
X660196Y1308100D01*
X669137Y1304544D01*
X678586Y1302512D01*
X688238Y1302054D01*
X697788Y1303324D01*
X706983Y1306118D01*
X715619Y1310487D01*
X723392Y1316228D01*
X730046Y1323187D01*
X735431Y1331163D01*
X739444Y1339951D01*
X741832Y1349298D01*
X742696Y1358900D01*
X741832Y1368501D01*
X739444Y1377848D01*
X735431Y1386636D01*
X730046Y1394612D01*
X723392Y1401572D01*
X715619Y1407312D01*
X706983Y1411681D01*
X697788Y1414475D01*
X684123Y1416405D01*
X680618Y1418691D01*
X657453Y1441856D01*
X655828Y1443177D01*
X653288Y1446276D01*
X652119Y1450086D01*
X652526Y1453997D01*
X654405Y1457502D01*
X657504Y1460042D01*
X661314Y1461160D01*
X679856Y1462938D01*
X716432Y1468374D01*
X752652Y1475740D01*
X788416Y1485087D01*
X823620Y1496314D01*
X857097Y1509014D01*
X861161Y1509623D01*
X865174Y1508607D01*
X868426Y1506067D01*
X870407Y1502460D01*
X870762Y1498346D01*
X869492Y1494434D01*
X850950Y1462328D01*
X848410Y1456486D01*
X847242Y1450390D01*
X846074Y1447190D01*
X843889Y1444548D01*
X839165Y1440484D01*
X835406Y1435354D01*
X807669Y1387348D01*
X805129Y1381556D01*
X804062Y1375867D01*
X804265Y1370076D01*
X805789Y1364488D01*
X808482Y1359357D01*
X812241Y1354988D01*
X817372Y1351178D01*
X819607Y1348943D01*
X821029Y1346149D01*
X821486Y1343050D01*
X821486Y1335125D01*
X820724Y1331264D01*
X818540Y1327962D01*
X528828Y1038199D01*
X523493Y1031138D01*
X519734Y1023569D01*
X517448Y1015441D01*
X516585Y1006551D01*
X516585Y974648D01*
X515874Y970889D01*
X513791Y967638D01*
X510641Y965403D01*
X506882Y964539D01*
X503072Y965098D01*
X498754Y966571D01*
X492404Y967282D01*
X479602Y967282D01*
X479602Y934262D01*
X486918Y934262D01*
X490829Y933500D01*
X494131Y931265D01*
X496316Y927963D01*
X497078Y924102D01*
X497078Y904697D01*
X496316Y900836D01*
X494131Y897534D01*
X490829Y895299D01*
X486918Y894537D01*
X479602Y894537D01*
X479602Y861466D01*
X492404Y861466D01*
X498754Y862228D01*
X503072Y863701D01*
X506882Y864260D01*
X510641Y863396D01*
X513791Y861161D01*
X515874Y857910D01*
X516585Y854151D01*
X516585Y847648D01*
X515874Y843889D01*
X513791Y840638D01*
X510641Y838403D01*
X506882Y837539D01*
X503072Y838098D01*
X498754Y839571D01*
X492404Y840282D01*
X479602Y840282D01*
X479602Y807262D01*
X486918Y807262D01*
X490829Y806500D01*
X494131Y804265D01*
X496316Y800963D01*
X497078Y797102D01*
X497078Y777697D01*
X496316Y773836D01*
X494131Y770534D01*
X490829Y768299D01*
X486918Y767537D01*
X479602Y767537D01*
X479602Y734466D01*
X492404Y734466D01*
X498754Y735228D01*
X503174Y736752D01*
X506984Y737311D01*
X510743Y736396D01*
X513892Y734161D01*
X515975Y730961D01*
X516686Y727151D01*
X516686Y489305D01*
X515924Y485444D01*
X513740Y482142D01*
X184556Y152958D01*
X181254Y150774D01*
X177393Y149961D01*
X173482Y150774D01*
X170180Y152958D01*
X167995Y156260D01*
X167182Y160121D01*
X167182Y210718D01*
X166471Y217017D01*
X164592Y222453D01*
X161493Y227380D01*
X157429Y231444D01*
X152501Y234543D01*
X147066Y236474D01*
X140716Y237185D01*
X118262Y237185D01*
X114401Y237947D01*
X111099Y240131D01*
X108915Y243433D01*
X108102Y247345D01*
X108915Y251206D01*
X111709Y255168D01*
X115011Y257352D01*
X118922Y258114D01*
X140716Y258114D01*
X147066Y258825D01*
X152501Y260756D01*
X157429Y263855D01*
X161493Y267919D01*
X164592Y272846D01*
X166471Y278282D01*
X167182Y284581D01*
X167182Y340055D01*
X166471Y346354D01*
X164439Y352247D01*
X163880Y355600D01*
X164439Y358952D01*
X166471Y364845D01*
X167182Y371144D01*
X167182Y426618D01*
X166471Y432917D01*
X164592Y438353D01*
X161747Y442874D01*
X160629Y445465D01*
X160223Y448259D01*
X160223Y763727D01*
X160629Y766673D01*
X161950Y769416D01*
X163931Y772363D01*
X167944Y781151D01*
X170332Y790498D01*
X171196Y800100D01*
X170332Y809701D01*
X167944Y819048D01*
X163931Y827836D01*
X158546Y835812D01*
X151892Y842771D01*
X144119Y848512D01*
X135483Y852881D01*
X126288Y855675D01*
X116738Y856945D01*
X107086Y856487D01*
X97637Y854456D01*
X88696Y850900D01*
X80467Y845819D01*
X73253Y839469D01*
X67157Y831951D01*
X62484Y823518D01*
X59283Y814425D01*
X57658Y804926D01*
X57658Y795274D01*
X59283Y785774D01*
X62484Y776681D01*
X67106Y768400D01*
X68072Y766013D01*
X68376Y763422D01*
X68376Y715111D01*
X67462Y710895D01*
X64922Y707440D01*
X61163Y705358D01*
X56845Y705002D01*
X52832Y706475D01*
X47904Y709574D01*
X42468Y711504D01*
X36118Y712216D01*
X-222758Y712216D01*
X-229057Y711504D01*
X-234492Y709574D01*
X-239420Y706526D01*
X-243484Y702411D01*
X-246583Y697534D01*
X-248513Y692048D01*
X-249224Y685749D01*
X-249224Y536854D01*
X-248513Y530555D01*
X-246583Y525068D01*
X-243484Y520192D01*
X-239420Y516077D01*
X-234492Y513029D01*
X-229057Y511098D01*
X-222758Y510387D01*
X-142036Y510387D01*
X-138176Y509625D01*
X-134874Y507390D01*
X-132689Y504139D01*
X-131876Y500227D01*
X-131876Y352348D01*
X-132689Y348488D01*
X-134874Y345186D01*
X-138176Y342950D01*
X-142036Y342188D01*
X-222758Y342188D01*
X-229057Y341477D01*
X-234492Y339598D01*
X-239420Y336499D01*
X-243484Y332384D01*
X-246583Y327507D01*
X-248513Y322021D01*
X-249224Y315722D01*
X-249224Y166878D01*
X-248513Y160528D01*
X-246888Y155956D01*
X-246329Y152146D01*
X-247243Y148386D01*
X-249478Y145237D01*
X-252679Y143154D01*
X-256489Y142443D01*
X-419862Y142392D01*
X-428599Y141173D01*
X-436626Y138480D01*
X-443992Y134366D01*
X-450900Y128625D01*
X-604316Y-24790D01*
X-607618Y-27025D01*
X-611530Y-27787D01*
G37*

%LPC*%
G36*
X-1603654Y1423822D02*
G01*
X-1599590Y1425397D01*
X-1592884Y1429562D01*
X-1589379Y1430934D01*
X-1585620Y1430934D01*
X-1582166Y1429562D01*
X-1575460Y1425397D01*
X-1571345Y1423822D01*
X-1571345Y1477619D01*
X-1603654Y1477619D01*
G37*
G36*
X388061Y934262D02*
G01*
X427380Y934262D01*
X427380Y967282D01*
X414578Y967282D01*
X408228Y966571D01*
X402793Y964692D01*
X397865Y961593D01*
X393801Y957529D01*
X390702Y952601D01*
X388772Y947166D01*
X388061Y940816D01*
G37*
G36*
X-374853Y385622D02*
G01*
X-361746Y385622D01*
X-348792Y387400D01*
X-336194Y390956D01*
X-324205Y396189D01*
X-313029Y402945D01*
X-302869Y411226D01*
X-293928Y420776D01*
X-286359Y431495D01*
X-280365Y443128D01*
X-275996Y455422D01*
X-273304Y468223D01*
X-272440Y481279D01*
X-273304Y494385D01*
X-275996Y507187D01*
X-280365Y519480D01*
X-286359Y531114D01*
X-293928Y541832D01*
X-302869Y551383D01*
X-313029Y559663D01*
X-324205Y566420D01*
X-336194Y571652D01*
X-348792Y575208D01*
X-361746Y576986D01*
X-374853Y576986D01*
X-387807Y575208D01*
X-400405Y571652D01*
X-412394Y566420D01*
X-423570Y559663D01*
X-433730Y551383D01*
X-442671Y541832D01*
X-450240Y531114D01*
X-456234Y519480D01*
X-460603Y507187D01*
X-463296Y494385D01*
X-464159Y481279D01*
X-463296Y468223D01*
X-460603Y455422D01*
X-456234Y443128D01*
X-450240Y431495D01*
X-442671Y420776D01*
X-433730Y411226D01*
X-423570Y402945D01*
X-412394Y396189D01*
X-400405Y390956D01*
X-387807Y387400D01*
G37*
G36*
X388061Y807262D02*
G01*
X427380Y807262D01*
X427380Y840282D01*
X414578Y840282D01*
X408228Y839571D01*
X402793Y837692D01*
X397865Y834593D01*
X393801Y830529D01*
X390702Y825601D01*
X388772Y820166D01*
X388061Y813816D01*
G37*
G36*
X557784Y1274114D02*
G01*
X564337Y1274114D01*
X564337Y1307846D01*
X531317Y1307846D01*
X531317Y1300581D01*
X532028Y1294282D01*
X533908Y1288846D01*
X537006Y1283919D01*
X541070Y1279855D01*
X545998Y1276756D01*
X551434Y1274826D01*
G37*
G36*
X604062Y1274114D02*
G01*
X610616Y1274114D01*
X616966Y1274826D01*
X622401Y1276756D01*
X627329Y1279855D01*
X631393Y1283919D01*
X634492Y1288846D01*
X636371Y1294282D01*
X637082Y1300581D01*
X637082Y1304137D01*
X637997Y1308354D01*
X639470Y1310284D01*
X636676Y1308557D01*
X632968Y1307846D01*
X604062Y1307846D01*
G37*
G36*
X414578Y734466D02*
G01*
X427380Y734466D01*
X427380Y767537D01*
X388061Y767537D01*
X388061Y760984D01*
X388772Y754634D01*
X390702Y749198D01*
X393801Y744270D01*
X397865Y740206D01*
X402793Y737108D01*
X408228Y735228D01*
G37*
G36*
X-1603654Y1565300D02*
G01*
X-1571345Y1565300D01*
X-1571345Y1619097D01*
X-1575460Y1617522D01*
X-1582166Y1613357D01*
X-1585620Y1611985D01*
X-1589379Y1611985D01*
X-1592884Y1613357D01*
X-1599590Y1617522D01*
X-1603654Y1619097D01*
G37*
G36*
X-1235354Y1587093D02*
G01*
X-1221689Y1587500D01*
X-1208278Y1589786D01*
X-1195222Y1593850D01*
X-1182878Y1599590D01*
X-1171346Y1606905D01*
X-1160932Y1615694D01*
X-1151788Y1625854D01*
X-1144066Y1637080D01*
X-1137920Y1649222D01*
X-1133449Y1662125D01*
X-1130757Y1675485D01*
X-1129842Y1689100D01*
X-1130757Y1702714D01*
X-1133449Y1716074D01*
X-1137920Y1728927D01*
X-1144066Y1741119D01*
X-1151788Y1752346D01*
X-1160932Y1762455D01*
X-1171346Y1771294D01*
X-1182878Y1778609D01*
X-1195222Y1784350D01*
X-1208278Y1788414D01*
X-1221689Y1790649D01*
X-1235354Y1791106D01*
X-1248918Y1789785D01*
X-1262176Y1786585D01*
X-1274876Y1781708D01*
X-1286865Y1775155D01*
X-1297838Y1767078D01*
X-1307642Y1757578D01*
X-1316075Y1746859D01*
X-1323035Y1735124D01*
X-1328369Y1722577D01*
X-1331976Y1709420D01*
X-1333754Y1695907D01*
X-1333754Y1682292D01*
X-1331976Y1668780D01*
X-1328369Y1655622D01*
X-1323035Y1643075D01*
X-1316075Y1631340D01*
X-1307642Y1620621D01*
X-1297838Y1611122D01*
X-1286865Y1603044D01*
X-1274876Y1596491D01*
X-1262176Y1591614D01*
X-1248918Y1588414D01*
G37*
G36*
X-1276350Y1851304D02*
G01*
X-1276350Y1898650D01*
X-1323695Y1898650D01*
X-1323035Y1897075D01*
X-1316075Y1885340D01*
X-1307642Y1874621D01*
X-1297838Y1865122D01*
X-1286865Y1857044D01*
G37*
G36*
X-1187450Y1851456D02*
G01*
X-1182878Y1853590D01*
X-1171346Y1860905D01*
X-1160932Y1869693D01*
X-1151788Y1879854D01*
X-1144066Y1891080D01*
X-1140256Y1898650D01*
X-1187450Y1898650D01*
G37*
G36*
X-1187450Y1987550D02*
G01*
X-1140256Y1987550D01*
X-1144066Y1995119D01*
X-1151788Y2006346D01*
X-1160932Y2016455D01*
X-1171346Y2025294D01*
X-1182878Y2032609D01*
X-1187450Y2034743D01*
G37*
G36*
X-1323695Y1987550D02*
G01*
X-1276350Y1987550D01*
X-1276350Y2034895D01*
X-1286865Y2029155D01*
X-1297838Y2021078D01*
X-1307642Y2011578D01*
X-1316075Y2000859D01*
X-1323035Y1989124D01*
G37*
G36*
X414578Y861466D02*
G01*
X427380Y861466D01*
X427380Y894537D01*
X388061Y894537D01*
X388061Y887984D01*
X388772Y881634D01*
X390702Y876198D01*
X393801Y871270D01*
X397865Y867206D01*
X402793Y864108D01*
X408228Y862228D01*
G37*

%LPD*%
G36*
X-803910Y-290322D02*
G01*
X-807415Y-289712D01*
X-810463Y-287934D01*
X-812698Y-285242D01*
X-1734667Y1311300D01*
X-1735937Y1315212D01*
X-1735582Y1319377D01*
X-1733550Y1322984D01*
X-1730248Y1325524D01*
X-1726234Y1326540D01*
X-1722120Y1325829D01*
X-1718665Y1323543D01*
X-1644091Y1249019D01*
X-1637030Y1243685D01*
X-1629460Y1239926D01*
X-1621332Y1237640D01*
X-1612442Y1236776D01*
X-1097483Y1236776D01*
X-1093571Y1236014D01*
X-1090269Y1233830D01*
X-1088085Y1230528D01*
X-1087323Y1226616D01*
X-1087272Y252221D01*
X-1086053Y243484D01*
X-1083360Y235458D01*
X-1079246Y228092D01*
X-1073505Y221183D01*
X-915111Y62839D01*
X-908050Y57505D01*
X-900785Y53898D01*
X-898194Y52069D01*
X-894029Y47955D01*
X-889101Y44856D01*
X-883666Y42926D01*
X-877316Y42214D01*
X-865835Y42214D01*
X-861974Y41452D01*
X-858672Y39268D01*
X-794715Y-24688D01*
X-792734Y-27432D01*
X-791819Y-30733D01*
X-792022Y-34137D01*
X-793292Y-37287D01*
X-796594Y-42468D01*
X-798474Y-47955D01*
X-799185Y-54254D01*
X-799185Y-203149D01*
X-798474Y-209448D01*
X-796594Y-214934D01*
X-793496Y-219811D01*
X-789432Y-223926D01*
X-784504Y-226974D01*
X-779068Y-228904D01*
X-772718Y-229616D01*
X-513892Y-229616D01*
X-507542Y-228904D01*
X-502107Y-226974D01*
X-497179Y-223926D01*
X-493115Y-219811D01*
X-490016Y-214934D01*
X-488086Y-209448D01*
X-487375Y-203149D01*
X-487375Y-54254D01*
X-488086Y-47955D01*
X-489051Y-43180D01*
X-488188Y-39522D01*
X-486054Y-36372D01*
X-479704Y-30022D01*
X-476046Y-27686D01*
X-471779Y-27076D01*
X-467614Y-28346D01*
X-464362Y-31191D01*
X-462584Y-35153D01*
X-460603Y-44551D01*
X-456234Y-56896D01*
X-450240Y-68529D01*
X-442671Y-79197D01*
X-433730Y-88747D01*
X-423570Y-97028D01*
X-412394Y-103835D01*
X-400405Y-109067D01*
X-387807Y-112572D01*
X-374853Y-114350D01*
X-361746Y-114350D01*
X-348792Y-112572D01*
X-336194Y-109067D01*
X-324205Y-103835D01*
X-313029Y-97028D01*
X-302869Y-88747D01*
X-293928Y-79197D01*
X-286359Y-68529D01*
X-280365Y-56896D01*
X-275996Y-44551D01*
X-273304Y-31750D01*
X-272440Y-18694D01*
X-273304Y-5638D01*
X-275996Y7162D01*
X-280365Y19507D01*
X-286359Y31140D01*
X-288798Y34594D01*
X-290525Y38658D01*
X-290322Y43078D01*
X-288290Y46990D01*
X-284835Y49631D01*
X-280517Y50596D01*
X64312Y50596D01*
X67970Y49936D01*
X76098Y44856D01*
X81534Y42926D01*
X87884Y42214D01*
X140716Y42214D01*
X147066Y42926D01*
X152450Y44805D01*
X158648Y48869D01*
X161340Y50088D01*
X164185Y50495D01*
X194716Y50546D01*
X203454Y51765D01*
X211480Y54457D01*
X218846Y58572D01*
X225755Y64312D01*
X555447Y394004D01*
X558698Y396189D01*
X562610Y396951D01*
X566521Y396189D01*
X569772Y394004D01*
X847648Y116128D01*
X849833Y112826D01*
X850595Y108966D01*
X850595Y24485D01*
X850188Y21640D01*
X848969Y18948D01*
X844905Y12750D01*
X843026Y7366D01*
X842314Y1016D01*
X842314Y-51816D01*
X843026Y-58166D01*
X844956Y-63601D01*
X848055Y-68529D01*
X852119Y-72593D01*
X857046Y-75692D01*
X862482Y-77571D01*
X868781Y-78333D01*
X924255Y-78333D01*
X930554Y-77571D01*
X936447Y-75539D01*
X939800Y-74980D01*
X943152Y-75539D01*
X949045Y-77571D01*
X955344Y-78333D01*
X1010818Y-78333D01*
X1017117Y-77571D01*
X1022553Y-75692D01*
X1027480Y-72593D01*
X1029868Y-70205D01*
X1032611Y-68275D01*
X1035862Y-67310D01*
X1039215Y-67462D01*
X1046886Y-69088D01*
X1056538Y-69545D01*
X1066088Y-68275D01*
X1079906Y-63957D01*
X1083716Y-64363D01*
X1087120Y-66141D01*
X1089609Y-69037D01*
X1090828Y-72644D01*
X1090676Y-76454D01*
X1089101Y-83007D01*
X1088237Y-94081D01*
X1088847Y-101955D01*
X1088390Y-105867D01*
X1086510Y-109270D01*
X1083411Y-111760D01*
X1079652Y-112877D01*
X1075740Y-112471D01*
X1066088Y-109524D01*
X1056538Y-108254D01*
X1046886Y-108712D01*
X1039215Y-110337D01*
X1035862Y-110489D01*
X1032611Y-109524D01*
X1029868Y-107594D01*
X1027480Y-105206D01*
X1022553Y-102108D01*
X1017117Y-100228D01*
X1010818Y-99517D01*
X955344Y-99517D01*
X949045Y-100228D01*
X943152Y-102260D01*
X939800Y-102819D01*
X936447Y-102260D01*
X930554Y-100228D01*
X924255Y-99517D01*
X916990Y-99517D01*
X916990Y-132537D01*
X918718Y-132537D01*
X922629Y-133299D01*
X925931Y-135534D01*
X928116Y-138836D01*
X928878Y-142697D01*
X928878Y-162102D01*
X928116Y-165963D01*
X925931Y-169265D01*
X922629Y-171500D01*
X918718Y-172262D01*
X916990Y-172262D01*
X916990Y-205333D01*
X924255Y-205333D01*
X930554Y-204571D01*
X936447Y-202539D01*
X939800Y-201980D01*
X943152Y-202539D01*
X949045Y-204571D01*
X955344Y-205333D01*
X1010158Y-205333D01*
X1013764Y-205943D01*
X1016914Y-207822D01*
X1020267Y-210820D01*
X1028496Y-215900D01*
X1037437Y-219456D01*
X1046886Y-221488D01*
X1056538Y-221945D01*
X1066088Y-220675D01*
X1075283Y-217881D01*
X1080973Y-215036D01*
X1084935Y-213969D01*
X1088999Y-214528D01*
X1092504Y-216712D01*
X1094841Y-220065D01*
X1095705Y-224078D01*
X1095705Y-243535D01*
X1096416Y-249834D01*
X1098296Y-255320D01*
X1101394Y-260197D01*
X1105509Y-264312D01*
X1110386Y-267360D01*
X1115872Y-269290D01*
X1122172Y-270002D01*
X1251051Y-270002D01*
X1257350Y-269290D01*
X1262837Y-267360D01*
X1267714Y-264312D01*
X1271828Y-260197D01*
X1274876Y-255320D01*
X1276807Y-249834D01*
X1277518Y-243535D01*
X1277518Y-154686D01*
X1276807Y-148336D01*
X1274876Y-142900D01*
X1268984Y-134061D01*
X1268222Y-129743D01*
X1264513Y-130606D01*
X1260703Y-130048D01*
X1257350Y-128879D01*
X1251051Y-128168D01*
X1236472Y-128168D01*
X1232865Y-127508D01*
X1229766Y-125628D01*
X1227480Y-122783D01*
X1226413Y-119278D01*
X1226616Y-115671D01*
X1229106Y-105156D01*
X1229969Y-94081D01*
X1229106Y-83007D01*
X1226515Y-72186D01*
X1224788Y-67970D01*
X1223975Y-64109D01*
X1223975Y-55422D01*
X1219454Y-54508D01*
X1215999Y-51866D01*
X1209243Y-43942D01*
X1200759Y-36728D01*
X1191260Y-30937D01*
X1180998Y-26670D01*
X1170178Y-24079D01*
X1159103Y-23215D01*
X1148029Y-24079D01*
X1137208Y-26670D01*
X1126947Y-30937D01*
X1125575Y-31750D01*
X1121410Y-33172D01*
X1116990Y-32664D01*
X1113180Y-30327D01*
X1110742Y-26619D01*
X1110183Y-22199D01*
X1110996Y-12700D01*
X1110132Y-3098D01*
X1107744Y6248D01*
X1103731Y15036D01*
X1098346Y23012D01*
X1091692Y29971D01*
X1083919Y35712D01*
X1075283Y40081D01*
X1066088Y42875D01*
X1056538Y44145D01*
X1046886Y43688D01*
X1037437Y41656D01*
X1028496Y38100D01*
X1020267Y33020D01*
X1016914Y30022D01*
X1013764Y28143D01*
X1010158Y27482D01*
X955344Y27482D01*
X953719Y27330D01*
X949502Y27736D01*
X945794Y29819D01*
X943305Y33274D01*
X942441Y37439D01*
X942390Y133959D01*
X941171Y142697D01*
X938479Y150723D01*
X934364Y158089D01*
X928624Y164998D01*
X611479Y482142D01*
X609295Y485444D01*
X608533Y489305D01*
X608533Y728522D01*
X609092Y731875D01*
X610717Y734872D01*
X613257Y737158D01*
X617728Y739952D01*
X620318Y741070D01*
X623112Y741476D01*
X706983Y741476D01*
X709625Y741121D01*
X712063Y740156D01*
X828344Y672998D01*
X834186Y670458D01*
X839876Y669340D01*
X845667Y669594D01*
X850595Y670102D01*
X854354Y668832D01*
X857351Y666242D01*
X859078Y662686D01*
X859383Y658723D01*
X858062Y654964D01*
X799134Y552856D01*
X796594Y547065D01*
X795528Y541375D01*
X795731Y535584D01*
X797255Y529996D01*
X799947Y524865D01*
X803706Y520496D01*
X808837Y516686D01*
X929081Y447293D01*
X934923Y444754D01*
X940612Y443636D01*
X946403Y443890D01*
X951992Y445363D01*
X953871Y446379D01*
X957783Y447497D01*
X961847Y447040D01*
X965352Y445008D01*
X967790Y441706D01*
X968756Y437743D01*
X968857Y435813D01*
X970330Y430225D01*
X973074Y425094D01*
X976833Y420725D01*
X981964Y416915D01*
X1102207Y347522D01*
X1108049Y344982D01*
X1113739Y343865D01*
X1119479Y344119D01*
X1125067Y345592D01*
X1126947Y346557D01*
X1130858Y347726D01*
X1134872Y347218D01*
X1138428Y345186D01*
X1140866Y341934D01*
X1141831Y337972D01*
X1141933Y335838D01*
X1143406Y330250D01*
X1146098Y325120D01*
X1149908Y320751D01*
X1154988Y316941D01*
X1157579Y315468D01*
X1160475Y312978D01*
X1162253Y309575D01*
X1162608Y305765D01*
X1161542Y302056D01*
X1159205Y299059D01*
X1152753Y293370D01*
X1146657Y285851D01*
X1141984Y277418D01*
X1138783Y268325D01*
X1137158Y258825D01*
X1137158Y249174D01*
X1138783Y239674D01*
X1141984Y230581D01*
X1146657Y222148D01*
X1152753Y214629D01*
X1159967Y208279D01*
X1168196Y203200D01*
X1177137Y199644D01*
X1186535Y197612D01*
X1197559Y197205D01*
X1201267Y196392D01*
X1204366Y194259D01*
X1271219Y127406D01*
X1273403Y124104D01*
X1274216Y120192D01*
X1274216Y47244D01*
X1307033Y47244D01*
X1310894Y46482D01*
X1314196Y44297D01*
X1316380Y40995D01*
X1317193Y37084D01*
X1317193Y-45262D01*
X1316380Y-49174D01*
X1314196Y-52476D01*
X1310894Y-54660D01*
X1307033Y-55422D01*
X1274216Y-55422D01*
X1274216Y-120446D01*
X1274470Y-120751D01*
X1278382Y-119989D01*
X1286052Y-119989D01*
X1292352Y-119278D01*
X1297787Y-117398D01*
X1302766Y-114300D01*
X1307744Y-109372D01*
X1311046Y-107187D01*
X1314907Y-106426D01*
X1318768Y-107187D01*
X1322070Y-109423D01*
X1326946Y-114300D01*
X1331874Y-117398D01*
X1337310Y-119278D01*
X1343660Y-119989D01*
X1402486Y-119989D01*
X1408836Y-119278D01*
X1414272Y-117398D01*
X1419199Y-114300D01*
X1422654Y-110845D01*
X1425956Y-108610D01*
X1429816Y-107848D01*
X1433728Y-108610D01*
X1437030Y-110845D01*
X1440484Y-114300D01*
X1445361Y-117398D01*
X1450848Y-119278D01*
X1457147Y-119989D01*
X1464818Y-119989D01*
X1468729Y-120751D01*
X1472031Y-122986D01*
X1474216Y-126288D01*
X1474978Y-130149D01*
X1474216Y-134061D01*
X1471371Y-137972D01*
X1468323Y-142900D01*
X1466392Y-148336D01*
X1465681Y-154686D01*
X1465681Y-243535D01*
X1466392Y-249834D01*
X1468323Y-255320D01*
X1471371Y-260197D01*
X1475486Y-264312D01*
X1480362Y-267360D01*
X1485849Y-269290D01*
X1492148Y-270002D01*
X1621028Y-270002D01*
X1627327Y-269290D01*
X1632813Y-267360D01*
X1637690Y-264312D01*
X1641805Y-260197D01*
X1644904Y-255320D01*
X1646783Y-249834D01*
X1647494Y-243535D01*
X1647494Y-154686D01*
X1646783Y-148336D01*
X1644904Y-142900D01*
X1642922Y-138430D01*
X1642872Y-134721D01*
X1644243Y-131216D01*
X1647240Y-126237D01*
X1651507Y-115976D01*
X1654098Y-105156D01*
X1654962Y-94081D01*
X1654098Y-83007D01*
X1651507Y-72186D01*
X1647240Y-61925D01*
X1641449Y-52425D01*
X1634236Y-43942D01*
X1625752Y-36728D01*
X1616252Y-30937D01*
X1605991Y-26670D01*
X1595170Y-24079D01*
X1584096Y-23215D01*
X1573022Y-24079D01*
X1570024Y-24790D01*
X1566418Y-24993D01*
X1562912Y-23876D01*
X1560068Y-21640D01*
X1558188Y-18491D01*
X1557528Y-14935D01*
X1557528Y67005D01*
X1558391Y71120D01*
X1560880Y74523D01*
X1564538Y76657D01*
X1568754Y77063D01*
X1572768Y75793D01*
X1621688Y47548D01*
X1627530Y45008D01*
X1633220Y43891D01*
X1638960Y44145D01*
X1644548Y45618D01*
X1646529Y46634D01*
X1650441Y47802D01*
X1654454Y47294D01*
X1658010Y45262D01*
X1660448Y42011D01*
X1661414Y38049D01*
X1661515Y35763D01*
X1662988Y30175D01*
X1665681Y25044D01*
X1669491Y20675D01*
X1674571Y16916D01*
X1794865Y-52527D01*
X1800656Y-55067D01*
X1806346Y-56134D01*
X1812137Y-55930D01*
X1817725Y-54457D01*
X1822856Y-51714D01*
X1827225Y-47955D01*
X1831035Y-42824D01*
X1889963Y59283D01*
X1892604Y62280D01*
X1896160Y64008D01*
X1900123Y64262D01*
X1903882Y62991D01*
X1906828Y60401D01*
X1908911Y55727D01*
X1911604Y50596D01*
X1915363Y46228D01*
X1920493Y42418D01*
X1968601Y14630D01*
X1995881Y61925D01*
X1923846Y103530D01*
X1920748Y106273D01*
X1919020Y110032D01*
X1918868Y120700D01*
X1917344Y126288D01*
X1914652Y131419D01*
X1910892Y135788D01*
X1905762Y139547D01*
X1785518Y208991D01*
X1779676Y211531D01*
X1773986Y212598D01*
X1768195Y212394D01*
X1762607Y210870D01*
X1760677Y209854D01*
X1756765Y208737D01*
X1752701Y209194D01*
X1749196Y211226D01*
X1746757Y214528D01*
X1745742Y218490D01*
X1745691Y220776D01*
X1744167Y226364D01*
X1741474Y231444D01*
X1737715Y235864D01*
X1732584Y239623D01*
X1612341Y309067D01*
X1605584Y312013D01*
X1602384Y314198D01*
X1600250Y317449D01*
X1599488Y321259D01*
X1600200Y325069D01*
X1602282Y328371D01*
X1606346Y332587D01*
X1611731Y340563D01*
X1615744Y349351D01*
X1618132Y358698D01*
X1618996Y368300D01*
X1618132Y377901D01*
X1615744Y387248D01*
X1611731Y396036D01*
X1606346Y404012D01*
X1603552Y406958D01*
X1601419Y410209D01*
X1600708Y414020D01*
X1600708Y1864918D01*
X1601571Y1869084D01*
X1604060Y1872488D01*
X1607769Y1874621D01*
X1611985Y1875028D01*
X1615998Y1873707D01*
X2553462Y1327556D01*
X2556662Y1324559D01*
X2558338Y1320495D01*
X2558135Y1316126D01*
X2556103Y1312214D01*
X2552598Y1309573D01*
X2548331Y1308608D01*
X2484221Y1308608D01*
X2480259Y1309420D01*
X2468219Y1318412D01*
X2459583Y1322781D01*
X2450388Y1325575D01*
X2440838Y1326845D01*
X2431186Y1326388D01*
X2421737Y1324356D01*
X2412796Y1320800D01*
X2404567Y1315720D01*
X2397353Y1309370D01*
X2391257Y1301851D01*
X2386584Y1293418D01*
X2383383Y1284325D01*
X2381758Y1274826D01*
X2381758Y1265174D01*
X2383383Y1255674D01*
X2386584Y1246581D01*
X2391257Y1238148D01*
X2397353Y1230630D01*
X2404567Y1224280D01*
X2412796Y1219200D01*
X2421737Y1215644D01*
X2431186Y1213612D01*
X2440838Y1213154D01*
X2450388Y1214424D01*
X2459583Y1217218D01*
X2468219Y1221587D01*
X2480259Y1230579D01*
X2484221Y1231392D01*
X2558948Y1231392D01*
X2563114Y1230528D01*
X2566517Y1228039D01*
X2568600Y1224381D01*
X2569057Y1220165D01*
X2567736Y1216152D01*
X2527350Y1146098D01*
X2525064Y1143406D01*
X2522016Y1141679D01*
X2518511Y1141018D01*
X2469794Y1141018D01*
X2467457Y1141323D01*
X2465222Y1142136D01*
X2459583Y1144981D01*
X2450388Y1147775D01*
X2440838Y1149045D01*
X2431186Y1148588D01*
X2421737Y1146556D01*
X2412796Y1143000D01*
X2404567Y1137920D01*
X2397353Y1131570D01*
X2391257Y1124051D01*
X2386584Y1115618D01*
X2383383Y1106525D01*
X2381758Y1097026D01*
X2381758Y1087374D01*
X2383383Y1077874D01*
X2386584Y1068781D01*
X2391257Y1060348D01*
X2397353Y1052830D01*
X2404567Y1046480D01*
X2412796Y1041400D01*
X2421737Y1037844D01*
X2431186Y1035812D01*
X2440838Y1035354D01*
X2444851Y1035913D01*
X2449322Y1035456D01*
X2453182Y1033170D01*
X2455672Y1029462D01*
X2456281Y1025042D01*
X2454960Y1020724D01*
X2440787Y996187D01*
X2438501Y993495D01*
X2435453Y991717D01*
X2431999Y991108D01*
X1880107Y991108D01*
X1872081Y990295D01*
X1864868Y988110D01*
X1858162Y984554D01*
X1851964Y979424D01*
X1732229Y859688D01*
X1729130Y857605D01*
X1725472Y856742D01*
X1719986Y856487D01*
X1710537Y854456D01*
X1701596Y850900D01*
X1693367Y845819D01*
X1686153Y839469D01*
X1680057Y831951D01*
X1675384Y823518D01*
X1672183Y814425D01*
X1670557Y804926D01*
X1670557Y795274D01*
X1672183Y785774D01*
X1675384Y776681D01*
X1680057Y768248D01*
X1686153Y760730D01*
X1693367Y754380D01*
X1701596Y749300D01*
X1710537Y745744D01*
X1719986Y743712D01*
X1729638Y743254D01*
X1739188Y744524D01*
X1748383Y747318D01*
X1757019Y751687D01*
X1764792Y757428D01*
X1771446Y764387D01*
X1776831Y772363D01*
X1780844Y781151D01*
X1783232Y790498D01*
X1783943Y798880D01*
X1784857Y802284D01*
X1786889Y805230D01*
X1892604Y910894D01*
X1895906Y913130D01*
X1899818Y913892D01*
X2376678Y913892D01*
X2380996Y912926D01*
X2384501Y910183D01*
X2386533Y906221D01*
X2386634Y901750D01*
X2384806Y897686D01*
X2380335Y891641D01*
X2338070Y818388D01*
X2335784Y815695D01*
X2332736Y813917D01*
X2329230Y813308D01*
X1892807Y813308D01*
X1884781Y812495D01*
X1877568Y810310D01*
X1870862Y806754D01*
X1864664Y801624D01*
X1732229Y669188D01*
X1729130Y667105D01*
X1725472Y666242D01*
X1719986Y665988D01*
X1710537Y663956D01*
X1701596Y660400D01*
X1693367Y655320D01*
X1686153Y648970D01*
X1680057Y641451D01*
X1675384Y633018D01*
X1672183Y623925D01*
X1670557Y614426D01*
X1670557Y604774D01*
X1672183Y595274D01*
X1675384Y586181D01*
X1680057Y577748D01*
X1686153Y570230D01*
X1693367Y563880D01*
X1701596Y558800D01*
X1710537Y555244D01*
X1719986Y553212D01*
X1729638Y552754D01*
X1739188Y554024D01*
X1748383Y556818D01*
X1757019Y561187D01*
X1764792Y566928D01*
X1771446Y573887D01*
X1776831Y581863D01*
X1780844Y590651D01*
X1783232Y599998D01*
X1783943Y608380D01*
X1784857Y611784D01*
X1786889Y614730D01*
X1905304Y733094D01*
X1908606Y735330D01*
X1912518Y736092D01*
X2273350Y736092D01*
X2277668Y735126D01*
X2281174Y732383D01*
X2283206Y728421D01*
X2283307Y723950D01*
X2281529Y719886D01*
X2280412Y718362D01*
X2227326Y626516D01*
X2225090Y623773D01*
X2222042Y622046D01*
X2218537Y621436D01*
X1942185Y621436D01*
X1934159Y620623D01*
X1926945Y618439D01*
X1920290Y614883D01*
X1914042Y609752D01*
X1846529Y542188D01*
X1843430Y540105D01*
X1839772Y539242D01*
X1834286Y538988D01*
X1824837Y536956D01*
X1815896Y533400D01*
X1807667Y528320D01*
X1800453Y521970D01*
X1794357Y514451D01*
X1789684Y506018D01*
X1786483Y496925D01*
X1784857Y487426D01*
X1784857Y477774D01*
X1786483Y468274D01*
X1789684Y459181D01*
X1794357Y450748D01*
X1800453Y443230D01*
X1807667Y436880D01*
X1815896Y431800D01*
X1824837Y428243D01*
X1834286Y426212D01*
X1843938Y425754D01*
X1853488Y427024D01*
X1862683Y429818D01*
X1871319Y434187D01*
X1879092Y439928D01*
X1885746Y446887D01*
X1891131Y454863D01*
X1895144Y463651D01*
X1897532Y472998D01*
X1898243Y481380D01*
X1899157Y484784D01*
X1901189Y487730D01*
X1954733Y541223D01*
X1958035Y543407D01*
X1961896Y544220D01*
X2162302Y544220D01*
X2166467Y543306D01*
X2169871Y540816D01*
X2172004Y537159D01*
X2172411Y532993D01*
X2171141Y528980D01*
X2132939Y462788D01*
X2130653Y460095D01*
X2127605Y458317D01*
X2124100Y457708D01*
X2027021Y457708D01*
X2023059Y458520D01*
X2011019Y467512D01*
X2002383Y471881D01*
X1993188Y474675D01*
X1983638Y475945D01*
X1973986Y475488D01*
X1964537Y473456D01*
X1955596Y469900D01*
X1947367Y464820D01*
X1940153Y458470D01*
X1934057Y450951D01*
X1929384Y442518D01*
X1926183Y433425D01*
X1924557Y423926D01*
X1924557Y414274D01*
X1926183Y404774D01*
X1929384Y395681D01*
X1934057Y387248D01*
X1940153Y379730D01*
X1947367Y373380D01*
X1955596Y368300D01*
X1964537Y364744D01*
X1973986Y362712D01*
X1983638Y362254D01*
X1993188Y363524D01*
X2002383Y366318D01*
X2011019Y370687D01*
X2023059Y379679D01*
X2027021Y380492D01*
X2067661Y380492D01*
X2071776Y379628D01*
X2075230Y377139D01*
X2077313Y373481D01*
X2077770Y369265D01*
X2076450Y365252D01*
X2032000Y288290D01*
X2029155Y285089D01*
X2025294Y283413D01*
X2021027Y283413D01*
X2017166Y285191D01*
X2011019Y289712D01*
X2002383Y294081D01*
X1993188Y296875D01*
X1983638Y298145D01*
X1973986Y297688D01*
X1964537Y295656D01*
X1955596Y292100D01*
X1947367Y287020D01*
X1940153Y280670D01*
X1934057Y273151D01*
X1929384Y264718D01*
X1926183Y255625D01*
X1924557Y246125D01*
X1924557Y236474D01*
X1926183Y226974D01*
X1929384Y217881D01*
X1934057Y209448D01*
X1940153Y201930D01*
X1947367Y195580D01*
X1955596Y190500D01*
X1960829Y188417D01*
X1964232Y186131D01*
X1966518Y182676D01*
X1967179Y178562D01*
X1966163Y174548D01*
X2037232Y133502D01*
X2063546Y179070D01*
X2066137Y182016D01*
X2069693Y183794D01*
X2073656Y184048D01*
X2077415Y182778D01*
X2179066Y124104D01*
X2182063Y121462D01*
X2183790Y117906D01*
X2184044Y113944D01*
X2182774Y110185D01*
X2156510Y64668D01*
X2186736Y47193D01*
X2189734Y44602D01*
X2191461Y41046D01*
X2191766Y37084D01*
X2190445Y33324D01*
X2159254Y-20675D01*
X2156663Y-23672D01*
X2153107Y-25450D01*
X2149144Y-25704D01*
X2145385Y-24434D01*
X2115159Y-6959D01*
X2087880Y-54203D01*
X2118106Y-71678D01*
X2121103Y-74269D01*
X2122830Y-77825D01*
X2123084Y-81788D01*
X2121814Y-85547D01*
X2006498Y-285242D01*
X2004263Y-287934D01*
X2001215Y-289712D01*
X1997710Y-290322D01*
G37*

%LPC*%
G36*
X-222707Y-229616D02*
G01*
X-164642Y-229616D01*
X-164642Y-172567D01*
X-249224Y-172567D01*
X-249224Y-203149D01*
X-248513Y-209448D01*
X-246583Y-214934D01*
X-243484Y-219811D01*
X-239420Y-223926D01*
X-234492Y-226974D01*
X-229057Y-228904D01*
G37*
G36*
X868781Y-205333D02*
G01*
X876046Y-205333D01*
X876046Y-172262D01*
X842314Y-172262D01*
X842314Y-178816D01*
X843026Y-185166D01*
X844956Y-190601D01*
X848055Y-195529D01*
X852119Y-199593D01*
X857046Y-202692D01*
X862482Y-204571D01*
G37*
G36*
X601776Y-154533D02*
G01*
X621131Y-153111D01*
X640232Y-149860D01*
X658977Y-144780D01*
X677113Y-137871D01*
X694537Y-129285D01*
X711047Y-119024D01*
X726440Y-107238D01*
X740664Y-94030D01*
X753516Y-79502D01*
X764946Y-63804D01*
X774801Y-47040D01*
X782980Y-29464D01*
X789432Y-11125D01*
X794054Y7721D01*
X796848Y26924D01*
X797814Y46278D01*
X796848Y65684D01*
X794054Y84886D01*
X789432Y103733D01*
X782980Y122072D01*
X774801Y139649D01*
X764946Y156413D01*
X753516Y172110D01*
X740664Y186639D01*
X726440Y199847D01*
X711047Y211632D01*
X694537Y221894D01*
X677113Y230479D01*
X658977Y237388D01*
X640232Y242468D01*
X621131Y245719D01*
X601776Y247142D01*
X582371Y246684D01*
X563067Y244348D01*
X544118Y240131D01*
X525678Y234137D01*
X507847Y226415D01*
X490880Y216966D01*
X474929Y205943D01*
X460095Y193395D01*
X446532Y179527D01*
X434390Y164388D01*
X423722Y148132D01*
X414731Y130962D01*
X407416Y112979D01*
X401828Y94386D01*
X398119Y75336D01*
X396240Y56032D01*
X396240Y36576D01*
X398119Y17272D01*
X401828Y-1778D01*
X407416Y-20370D01*
X414731Y-38354D01*
X423722Y-55524D01*
X434390Y-71780D01*
X446532Y-86918D01*
X460095Y-100787D01*
X474929Y-113334D01*
X490880Y-124358D01*
X507847Y-133807D01*
X525678Y-141528D01*
X544118Y-147523D01*
X563067Y-151739D01*
X582371Y-154076D01*
G37*
G36*
X842314Y-132537D02*
G01*
X876046Y-132537D01*
X876046Y-99517D01*
X868781Y-99517D01*
X862482Y-100228D01*
X857046Y-102108D01*
X852119Y-105206D01*
X848055Y-109270D01*
X844956Y-114198D01*
X843026Y-119633D01*
X842314Y-125983D01*
G37*
G36*
X-249224Y-84836D02*
G01*
X-164642Y-84836D01*
X-164642Y-27787D01*
X-222707Y-27787D01*
X-229057Y-28498D01*
X-234492Y-30429D01*
X-239420Y-33477D01*
X-243484Y-37592D01*
X-246583Y-42468D01*
X-248513Y-47955D01*
X-249224Y-54254D01*
G37*
G36*
X-21945Y-84836D02*
G01*
X62585Y-84836D01*
X62585Y-54254D01*
X61874Y-47955D01*
X59994Y-42468D01*
X56896Y-37592D01*
X52832Y-33477D01*
X47904Y-30429D01*
X42468Y-28498D01*
X36118Y-27787D01*
X-21945Y-27787D01*
G37*
G36*
X-1323695Y971550D02*
G01*
X-1276350Y971550D01*
X-1276350Y1018895D01*
X-1286865Y1013155D01*
X-1297838Y1005078D01*
X-1307642Y995578D01*
X-1316075Y984859D01*
X-1323035Y973124D01*
G37*
G36*
X1185672Y47244D02*
G01*
X1223975Y47244D01*
X1223975Y111810D01*
X1212189Y111810D01*
X1205839Y111099D01*
X1200404Y109169D01*
X1195476Y106121D01*
X1191412Y102006D01*
X1188313Y97129D01*
X1186383Y91643D01*
X1185672Y85344D01*
G37*
G36*
X-1187450Y971550D02*
G01*
X-1140256Y971550D01*
X-1144066Y979119D01*
X-1151788Y990346D01*
X-1160932Y1000506D01*
X-1171346Y1009294D01*
X-1182878Y1016609D01*
X-1187450Y1018743D01*
G37*
G36*
X-21945Y-229616D02*
G01*
X36118Y-229616D01*
X42468Y-228904D01*
X47904Y-226974D01*
X52832Y-223926D01*
X56896Y-219811D01*
X59994Y-214934D01*
X61874Y-209448D01*
X62585Y-203149D01*
X62585Y-172567D01*
X-21945Y-172567D01*
G37*
G36*
X-1187450Y835456D02*
G01*
X-1182878Y837590D01*
X-1171346Y844905D01*
X-1160932Y853694D01*
X-1151788Y863853D01*
X-1144066Y875080D01*
X-1140256Y882650D01*
X-1187450Y882650D01*
G37*
G36*
X-1276350Y835304D02*
G01*
X-1276350Y882650D01*
X-1323695Y882650D01*
X-1323035Y881075D01*
X-1316075Y869340D01*
X-1307642Y858621D01*
X-1297838Y849121D01*
X-1286865Y841044D01*
G37*

%LPD*%
D10*
X2041375Y4029608D02*
G01*
X2057400Y4013583D01*
X2057400Y3886200D01*
X-384809Y2679700D02*
G01*
X-384809Y2701289D01*
X-292100Y2794000D01*
X-292100Y2959100D01*
X-336295Y3003295D01*
X-460247Y3003295D01*
X-1244600Y2501900D02*
G01*
X-165100Y2501900D01*
X12700Y2679700D01*
X12700Y2730500D01*
X215900Y2933700D01*
X901700Y2933700D01*
X965200Y2997200D01*
X1282700Y2997200D01*
X1320800Y2959100D01*
X1543050Y2959100D01*
X1605534Y2909062D01*
X-1887118Y2324100D02*
G01*
X-1879587Y2316568D01*
X-1879587Y2224001D01*
D11*
X-1282700Y2755900D02*
G01*
X-1188529Y2755900D01*
X-1157244Y2724614D01*
X-1929637Y2093973D02*
G01*
X-1892300Y2131311D01*
X-1892300Y2146300D01*
D10*
X-1973579Y2324100D02*
G01*
X-1993900Y2324100D01*
X-1993900Y1859279D01*
X-1923795Y1789176D01*
D11*
X1315714Y3517900D02*
G01*
X1064361Y3517900D01*
X972337Y3609924D01*
D10*
X939800Y3136900D02*
G01*
X939800Y3467100D01*
X850900Y3644900D01*
X1054100Y3759200D01*
X1223518Y3754881D01*
X939800Y3136900D02*
G01*
X1003300Y3073400D01*
X1676400Y3073400D01*
X1752600Y3149600D01*
X939800Y3136900D02*
G01*
X884174Y3081273D01*
X292100Y3081273D01*
X1752600Y3149600D02*
G01*
X1821891Y3218891D01*
X1848535Y3218891D01*
X2286000Y3848100D02*
G01*
X2174900Y3848100D01*
X2172792Y3845991D01*
X2286000Y3848100D02*
G01*
X2313152Y3848100D01*
X2347645Y3882593D01*
D11*
X1721606Y3438903D02*
G01*
X1608178Y3438903D01*
X1402181Y3644900D01*
X1785106Y3328926D02*
G01*
X1761230Y3352800D01*
X1612900Y3352800D01*
X1447800Y3517900D01*
X1402181Y3517900D01*
D10*
X2299792Y3626030D02*
G01*
X2247900Y3574138D01*
X2247900Y3348431D01*
X2298090Y3298240D01*
X-1681479Y2667000D02*
G01*
X-1681479Y2506979D01*
X-1600200Y2425700D01*
X-1506220Y2425700D01*
X76200Y3149345D02*
G01*
X224027Y3149345D01*
X292100Y3081273D01*
X457200Y1328318D02*
G01*
X399745Y1270863D01*
X304800Y1270863D01*
X-1828800Y2623820D02*
G01*
X-1833879Y2623820D01*
X-1879600Y2578100D01*
X-1879600Y2463800D01*
X-1841500Y2425700D01*
X-1795779Y2425700D01*
D11*
X1078229Y3638550D02*
G01*
X1122679Y3594100D01*
X1206500Y3594100D01*
X1257300Y3644900D01*
X1315720Y3644900D01*
D10*
X562609Y466089D02*
G01*
X192938Y96418D01*
X114300Y96418D01*
X562607Y787400D02*
G01*
X562607Y466092D01*
X896518Y132181D01*
X896518Y-25400D01*
X1578394Y3719245D02*
G01*
X1578394Y3666705D01*
X1625600Y3619500D01*
X-1007109Y2984500D02*
G01*
X-889000Y2921000D01*
X-1057147Y2897886D02*
G01*
X-952500Y2844800D01*
D11*
X-1483613Y3259328D02*
G01*
X-1450086Y3225800D01*
X-1384300Y3225800D01*
X-1350771Y3259328D01*
X-787400Y3263900D01*
X-705358Y3407918D01*
D10*
X-1620037Y2161539D02*
G01*
X-1555013Y2161539D01*
D11*
X-1433550Y3345992D02*
G01*
X-883107Y3345992D01*
X-863600Y3365500D01*
X-921765Y3532886D02*
G01*
X-965200Y3454400D01*
X-1063497Y3454400D01*
X-1207007Y3597910D01*
D10*
X-603504Y2709392D02*
G01*
X-573811Y2679700D01*
X-384708Y2679700D01*
X-101345Y2705100D02*
G01*
X-202945Y2603500D01*
X-342900Y2603500D01*
X-384809Y2645410D01*
X-384809Y2679700D01*
X76200Y2921304D02*
G01*
X76200Y2908300D01*
X-101290Y2730809D01*
X-101290Y2705100D01*
D11*
X-748538Y3434079D02*
G01*
X-787400Y3365500D01*
X-838200Y3352800D01*
X-835152Y3482847D02*
G01*
X-876300Y3416300D01*
X-863600Y3365500D01*
X-838200Y3352800D01*
D10*
X-200174Y3003295D02*
G01*
X-200174Y2936725D01*
X-203200Y2933700D01*
X126745Y2705100D02*
G01*
X126745Y2679445D01*
X-139700Y2413000D01*
X-254254Y2413000D01*
X126695Y2705100D02*
G01*
X279095Y2857500D01*
X971550Y2857500D01*
X1047750Y2933700D01*
X1190749Y2933700D01*
X1266949Y2857500D01*
X1435100Y2857500D01*
X-254254Y2413000D02*
G01*
X-1270000Y2413000D01*
X-1524000Y2667000D01*
X-1524000Y2705100D01*
X-1549400Y2730500D01*
X-1828800Y2730500D01*
X-1828800Y2710179D01*
X-1583436Y3086100D02*
G01*
X-1511300Y3013963D01*
X-1511300Y2921000D01*
X-200174Y3003295D02*
G01*
X-197787Y3000908D01*
X-76200Y3000908D01*
X-698500Y2709418D02*
G01*
X-698500Y2781300D01*
X-666495Y2813304D01*
X-460247Y2813304D01*
X-1923795Y1789176D02*
G01*
X-1923795Y1733295D01*
X-1765300Y1574800D01*
X-1765300Y1435100D01*
X-1612900Y1282700D01*
X-1041400Y1282700D01*
X-957325Y3071113D02*
G01*
X-1054100Y3124200D01*
X-1206500Y2870200D01*
X-1107186Y2811271D01*
X-1829562Y2093973D02*
G01*
X-1828037Y2095500D01*
X-1752600Y2095500D01*
X-1829562Y2093976D02*
G01*
X-1830578Y2019300D01*
X-1929637Y2093976D02*
G01*
X-1930400Y2019300D01*
X-1816100Y2222500D02*
G01*
X-1878086Y2222500D01*
X-1879587Y2224001D01*
X-1880524Y1889218D02*
G01*
X-1837222Y1845917D01*
X-1837222Y1789122D01*
X-1739900Y1790700D02*
G01*
X-1835657Y1790700D01*
X-1837184Y1789173D01*
X-1506220Y2519679D02*
G01*
X-1478279Y2519679D01*
X-1409700Y2451100D01*
X-1409700Y1676400D01*
X-1489963Y1596136D01*
X-1489963Y1521460D01*
X-1506214Y2331727D02*
G01*
X-1489989Y2315502D01*
X-1489989Y2161539D01*
X-1795779Y2331720D02*
G01*
X-1633220Y2331720D01*
X-1625600Y2324100D01*
X-1625600Y2324100D02*
G01*
X-1620037Y2318537D01*
X-1620037Y2161542D01*
X266700Y3479800D02*
G01*
X266700Y3395700D01*
X292100Y3370300D01*
X-533400Y3454400D02*
G01*
X-533400Y3354326D01*
X-562358Y3325365D01*
X-978154Y3565397D02*
G01*
X-939800Y3632200D01*
X-582168Y3632200D01*
X-533400Y3581400D01*
D11*
X-661924Y3383026D02*
G01*
X-584200Y3517900D01*
X-244602Y3517900D01*
X-164591Y3437889D01*
X1333500Y2218791D02*
G01*
X1333500Y2165677D01*
X1468450Y2030729D01*
D10*
X562508Y787400D02*
G01*
X562508Y914400D01*
X562508Y914400D01*
X768522Y818263D02*
G01*
X737659Y787400D01*
X562508Y787400D01*
X-89509Y3394659D02*
G01*
X-89509Y3608806D01*
X-83540Y3614775D01*
X-278536Y3277031D02*
G01*
X-207136Y3277031D01*
X-89509Y3394659D01*
D11*
X1054100Y-165100D02*
G01*
X995784Y-165100D01*
X983084Y-152400D01*
X983084Y-25400D02*
G01*
X995784Y-12700D01*
X1054100Y-12700D01*
D10*
X1193800Y254000D02*
G01*
X1209547Y254000D01*
X1373124Y90423D01*
X1373124Y-4063D01*
X-603498Y2929409D02*
G01*
X-603498Y3066801D01*
X-596900Y3073400D01*
D11*
X1551147Y3994683D02*
G01*
X1619857Y4063390D01*
X1642059Y4063390D01*
D10*
X1752600Y3810000D02*
G01*
X1752600Y3921150D01*
X1685343Y3988407D01*
X1625600Y3619500D02*
G01*
X1625600Y3602464D01*
X1658056Y3570008D01*
X1658056Y3548811D01*
X-254254Y2413000D02*
G01*
X-254254Y1803654D01*
X127761Y1421637D01*
X304800Y1421637D01*
X-850900Y96520D02*
G01*
X-883914Y96520D01*
X-1041400Y254000D01*
X-1041400Y2006600D01*
X-1231900Y2197100D01*
X-533400Y736600D02*
G01*
X-812800Y736600D01*
X-850900Y698500D01*
X-850900Y398779D01*
D11*
X-779881Y241300D02*
G01*
X-838200Y182981D01*
X-850900Y182981D01*
D10*
X114300Y96520D02*
G01*
X-418084Y96520D01*
X-643381Y-128778D01*
D11*
X43281Y241300D02*
G01*
X101600Y182981D01*
X114300Y182981D01*
D10*
X1435100Y2857500D02*
G01*
X1486408Y2857500D01*
X1543174Y2800733D01*
D11*
X457200Y1414881D02*
G01*
X457202Y1414884D01*
X584200Y1414884D01*
D10*
X562508Y914400D02*
G01*
X562508Y1007008D01*
X867407Y1311907D01*
X867407Y1384807D01*
X114300Y800100D02*
G01*
X114300Y398884D01*
X1485900Y1333500D02*
G01*
X970788Y818387D01*
X768598Y818387D01*
X-850900Y96418D02*
G01*
X-643308Y-111173D01*
X-643308Y-128699D01*
D11*
X114300Y312318D02*
G01*
X43281Y241300D01*
X-93291Y241300D01*
X-850900Y312318D02*
G01*
X-779881Y241300D01*
X-643308Y241300D01*
X-93291Y241300D02*
G01*
X-93291Y611299D01*
X-643308Y241300D02*
G01*
X-643308Y611299D01*
X2276350Y409450D02*
G01*
X2276350Y419100D01*
X1981200Y419100D01*
X1468450Y2030729D02*
G01*
X1562100Y1937077D01*
X1562100Y368300D01*
X1727200Y609600D02*
G01*
X1892300Y774700D01*
X2457622Y774700D01*
X2476276Y756058D01*
D10*
X1605655Y2908990D02*
G01*
X1608579Y2898058D01*
X1729049Y2828505D01*
X1543179Y2800728D02*
G01*
X1554060Y2803654D01*
X1674540Y2734094D01*
X1268450Y1684324D02*
G01*
X1312875Y1684324D01*
X1409700Y1587500D01*
X910640Y1459890D02*
G01*
X913790Y1459890D01*
X977900Y1524000D01*
D11*
X1368450Y1857529D02*
G01*
X1473200Y1752780D01*
X1473200Y1473200D01*
X-791839Y3457928D02*
G01*
X-749300Y3530600D01*
X-711200Y3543300D01*
X-673100Y3517900D01*
X-660400Y3479800D01*
X-705258Y3407915D01*
X1727200Y800100D02*
G01*
X1879600Y952500D01*
X2553060Y952500D01*
X2576352Y929208D01*
X2376350Y582805D02*
G01*
X1941705Y582805D01*
X1841500Y482600D01*
X584200Y1414884D02*
G01*
X629815Y1414884D01*
X685800Y1358900D01*
X2438400Y1270000D02*
G01*
X2770733Y1270000D01*
X2776347Y1275613D01*
X1320800Y3873500D02*
G01*
X1364058Y3873500D01*
X1395252Y3904691D01*
X1981200Y241300D02*
G01*
X1986074Y236425D01*
X2176302Y236425D01*
X2676321Y1102436D02*
G01*
X2448636Y1102436D01*
X2438400Y1092200D01*
D12*
G01*
X-76200Y3000905D03*
D13*
G01*
X-76200Y2891891D03*
D14*
G01*
X-384705Y2679700D03*
G01*
X-275694Y2679700D03*
D15*
G01*
X76301Y2921304D03*
G01*
X76301Y3149295D03*
D16*
G01*
X-101193Y2705100D03*
G01*
X126796Y2705100D03*
D17*
G01*
X292100Y3370300D03*
G01*
X292100Y3081299D03*
D18*
G01*
X1223476Y3754895D03*
D19*
G01*
X972328Y3609894D03*
D20*
G01*
X1078128Y3638646D03*
G01*
X1145677Y3677645D03*
D21*
G01*
X-1879701Y2223922D03*
G01*
X-1929688Y2093899D03*
G01*
X-1829688Y2093899D03*
G01*
X-1880463Y1889175D03*
G01*
X-1830451Y2019198D03*
G01*
X-1930450Y2019198D03*
D22*
G01*
X-1685036Y1521460D03*
G01*
X-1620012Y1521460D03*
G01*
X-1554987Y1521460D03*
G01*
X-1489963Y1521460D03*
G01*
X-1685036Y2161539D03*
G01*
X-1620012Y2161539D03*
G01*
X-1554987Y2161539D03*
G01*
X-1489963Y2161539D03*
D23*
G01*
X304800Y1270875D03*
D24*
G01*
X304800Y1421536D03*
D25*
G01*
X910642Y1459884D03*
G01*
X867359Y1384915D03*
D26*
G01*
X457200Y1328317D03*
D27*
G01*
X457200Y1414881D03*
D28*
G01*
X-1887117Y2324100D03*
G01*
X-1973682Y2324100D03*
G01*
X-1837333Y1789176D03*
G01*
X-1923898Y1789176D03*
D26*
G01*
X584200Y1414882D03*
D27*
G01*
X584200Y1328318D03*
D28*
G01*
X983082Y-25400D03*
G01*
X896517Y-25400D03*
G01*
X983082Y-152400D03*
G01*
X896517Y-152400D03*
D29*
G01*
X1642059Y4063384D03*
G01*
X1685342Y3988415D03*
D26*
G01*
X-1828800Y2710282D03*
D27*
G01*
X-1828800Y2623718D03*
D28*
G01*
X1402182Y3517900D03*
G01*
X1315617Y3517900D03*
D30*
G01*
X-164484Y3437942D03*
G01*
X-89515Y3394659D03*
D28*
G01*
X1402182Y3644900D03*
G01*
X1315617Y3644900D03*
D31*
G01*
X-1681582Y2667000D03*
G01*
X-1595017Y2667000D03*
D32*
G01*
X-1207115Y3597857D03*
G01*
X-1282084Y3641140D03*
D33*
G01*
X2298084Y3298240D03*
G01*
X2223115Y3254957D03*
D26*
G01*
X114300Y96417D03*
D27*
G01*
X114300Y182981D03*
D26*
G01*
X114300Y312317D03*
D27*
G01*
X114300Y398881D03*
D26*
G01*
X-850900Y182982D03*
D27*
G01*
X-850900Y96418D03*
D26*
G01*
X-850900Y312317D03*
D27*
G01*
X-850900Y398881D03*
D34*
G01*
X-603554Y2709468D03*
D35*
G01*
X-793554Y2709468D03*
D34*
G01*
X-793546Y2929458D03*
D36*
G01*
X-698540Y2929468D03*
D34*
G01*
X-603554Y2929458D03*
D37*
G01*
X-698540Y2709468D03*
D38*
G01*
X2776373Y1275621D03*
D39*
G01*
X2676352Y1102428D03*
D38*
G01*
X2576374Y929212D03*
G01*
X2476308Y756044D03*
G01*
X2376374Y582801D03*
G01*
X2276440Y409558D03*
D39*
G01*
X2176330Y236418D03*
G01*
X2076198Y63289D03*
D40*
G01*
X1790143Y78229D03*
G01*
X1616976Y178295D03*
G01*
X1443838Y278256D03*
G01*
X1270567Y378294D03*
D41*
G01*
X1097498Y478275D03*
D40*
G01*
X924393Y578043D03*
D42*
G01*
X768549Y818260D03*
G01*
X868483Y991504D03*
G01*
X968482Y1164708D03*
G01*
X1068482Y1337913D03*
G01*
X1168482Y1511118D03*
G01*
X1268482Y1684323D03*
G01*
X1368482Y1857527D03*
G01*
X1468481Y2030732D03*
D43*
G01*
X-1433600Y3346080D03*
G01*
X-1483600Y3259476D03*
G01*
X-1533599Y3172875D03*
D44*
G01*
X-1583599Y3086272D03*
D43*
G01*
X-1633599Y2999670D03*
G01*
X-1157298Y2724677D03*
D44*
G01*
X-1107299Y2811279D03*
D43*
G01*
X-1057299Y2897882D03*
G01*
X-1007299Y2984483D03*
G01*
X-957299Y3071087D03*
D45*
G01*
X-1295449Y3035377D03*
D46*
G01*
X1658061Y3548810D03*
G01*
X1721561Y3438829D03*
G01*
X1785061Y3328846D03*
G01*
X1848561Y3218864D03*
G01*
X2172792Y3845990D03*
G01*
X2236292Y3736008D03*
G01*
X2299792Y3626026D03*
G01*
X2363292Y3516044D03*
D47*
G01*
X2010670Y3532423D03*
D48*
G01*
X-1795779Y2519679D03*
G01*
X-1795779Y2425700D03*
G01*
X-1795779Y2331720D03*
G01*
X-1506220Y2331720D03*
G01*
X-1506220Y2425700D03*
G01*
X-1506220Y2519679D03*
D49*
G01*
X1605589Y2908999D03*
D50*
G01*
X1543093Y2800751D03*
D51*
G01*
X1164446Y2724900D03*
D52*
G01*
X1481946Y3274827D03*
D53*
G01*
X-643305Y-128701D03*
G01*
X-643305Y241300D03*
G01*
X-643305Y611301D03*
G01*
X-93294Y-128701D03*
G01*
X-93294Y241300D03*
G01*
X-93294Y611301D03*
D54*
G01*
X2148739Y4091607D03*
D55*
G01*
X2041376Y4029621D03*
D56*
G01*
X1936563Y3969106D03*
D57*
G01*
X2105370Y4291728D03*
G01*
X1784940Y4106730D03*
D58*
G01*
X1249095Y-4089D03*
D59*
G01*
X1373073Y-4089D03*
D58*
G01*
X1494104Y-4089D03*
D60*
G01*
X1186611Y-199085D03*
G01*
X1556588Y-199085D03*
D12*
G01*
X1333500Y2218794D03*
D13*
G01*
X1333500Y2327808D03*
D61*
G01*
X562505Y787400D03*
G01*
X453494Y787400D03*
G01*
X562505Y914400D03*
G01*
X453494Y914400D03*
D62*
G01*
X1578396Y3719247D03*
G01*
X1672803Y3773752D03*
D63*
G01*
X1674541Y2734094D03*
D64*
G01*
X1729054Y2828500D03*
D65*
G01*
X2347647Y3882603D03*
G01*
X2402152Y3788196D03*
D66*
G01*
X-200177Y3003295D03*
G01*
X-200177Y2813304D03*
G01*
X-460222Y2813304D03*
G01*
X-460222Y2908300D03*
G01*
X-460222Y3003295D03*
D67*
G01*
X1395251Y3904682D03*
G01*
X1551148Y3994689D03*
D68*
G01*
X-1047325Y3605430D03*
G01*
X-978062Y3565428D03*
D69*
G01*
X-921771Y3532929D03*
G01*
X-878459Y3507922D03*
D70*
G01*
X-835168Y3482929D03*
G01*
X-791856Y3457922D03*
D69*
G01*
X-748565Y3432929D03*
G01*
X-705253Y3407923D03*
G01*
X-661964Y3382929D03*
G01*
X-618652Y3357923D03*
D71*
G01*
X-562362Y3325423D03*
D68*
G01*
X-493072Y3285418D03*
D72*
G01*
X-1161873Y3787021D03*
G01*
X-966872Y4124770D03*
D73*
G01*
X-83527Y3614771D03*
D74*
G01*
X-278528Y3277022D03*
D75*
G01*
X-1231900Y1689100D03*
G01*
X-1231900Y1435100D03*
G01*
X-1231900Y927100D03*
G01*
X-1231900Y1943100D03*
G01*
X-1231900Y2197100D03*
D76*
G01*
X1054100Y-165100D03*
G01*
X1981200Y241300D03*
G01*
X1054100Y-12700D03*
G01*
X1981200Y419100D03*
G01*
X2438400Y1092200D03*
G01*
X1841500Y482600D03*
G01*
X1320800Y3873500D03*
G01*
X1473200Y1473200D03*
G01*
X1562100Y368300D03*
G01*
X-533400Y3581400D03*
G01*
X-533400Y3454400D03*
G01*
X-952500Y2844800D03*
G01*
X-889000Y2921000D03*
G01*
X2438400Y1270000D03*
G01*
X-1816100Y2222500D03*
G01*
X-1739900Y1790700D03*
G01*
X1625600Y3619500D03*
G01*
X685800Y1358900D03*
G01*
X-1066800Y3124200D03*
G01*
X1485900Y1333500D03*
G01*
X-1282700Y3505200D03*
G01*
X-1041400Y3759200D03*
G01*
X-1409700Y2857500D03*
G01*
X76200Y-127000D03*
G01*
X2209800Y3962400D03*
G01*
X901700Y-215900D03*
G01*
X2019300Y-25400D03*
G01*
X1168400Y12700D03*
G01*
X1511300Y2590800D03*
G01*
X457200Y1003300D03*
G01*
X1727200Y800100D03*
G01*
X1727200Y609600D03*
G01*
X2133600Y3187700D03*
G01*
X1409700Y1587500D03*
G01*
X977900Y1524000D03*
G01*
X1435100Y2857500D03*
G01*
X1193800Y254000D03*
G01*
X-1625600Y2324100D03*
G01*
X-1244600Y2501900D03*
G01*
X114300Y800100D03*
G01*
X-533400Y736600D03*
G01*
X-1397000Y1485900D03*
G01*
X-495300Y3873500D03*
G01*
X1320800Y2413000D03*
G01*
X-787400Y2819400D03*
G01*
X457200Y711200D03*
G01*
X-406400Y3352800D03*
G01*
X-203200Y2933700D03*
G01*
X-596900Y3073400D03*
G01*
X1752600Y3810000D03*
G01*
X2057400Y3886200D03*
G01*
X2095500Y3746500D03*
G01*
X2476500Y3632200D03*
G01*
X266700Y3479800D03*
G01*
X-1892300Y2146300D03*
G01*
X-1752600Y2095500D03*
G01*
X-1282700Y2755900D03*
G01*
X-1511300Y2921000D03*
G01*
X-190500Y2730500D03*
G01*
X-368300Y2870200D03*
G01*
X-1593926Y2585720D03*
G01*
X863600Y3162300D03*
G01*
X-653618Y2589098D03*
G01*
X-406400Y2286000D03*
G01*
X2286000Y3848100D03*
G01*
X1752600Y3149600D03*
G01*
X1460500Y3733800D03*
M02*
