G04 Layer: TopSilkscreenLayer*
G04 EasyEDA v6.5.22, 2023-01-18 14:56:14*
G04 eb7a50f388b942ddb5e33576d95934dd,93c32eb58a6e4653a9b851d96a472eee,10*
G04 Gerber Generator version 0.2*
G04 Scale: 100 percent, Rotated: No, Reflected: No *
G04 Dimensions in millimeters *
G04 leading zeros omitted , absolute positions ,4 integer and 5 decimal *
%FSLAX45Y45*%
%MOMM*%

%ADD10C,0.2032*%
%ADD11C,0.1524*%
%ADD12C,0.1520*%
%ADD13C,0.2540*%
%ADD14C,0.1520*%
%ADD15C,0.1900*%
%ADD16C,0.0762*%
%ADD17C,0.3000*%
%ADD18C,0.0143*%

%LPD*%
G36*
X2424531Y3067405D02*
G01*
X2422550Y3067304D01*
X2421432Y3066745D01*
X2420010Y3065576D01*
X2416352Y3061208D01*
X2411272Y3053943D01*
X2404567Y3043428D01*
X2396083Y3029305D01*
X2354122Y2956814D01*
X2339644Y2975203D01*
X2331262Y2985058D01*
X2322474Y2994710D01*
X2313635Y3003804D01*
X2305050Y3011982D01*
X2297074Y3018891D01*
X2288133Y3025495D01*
X2283815Y3027781D01*
X2280259Y3028340D01*
X2277160Y3027019D01*
X2274265Y3023463D01*
X2271268Y3017570D01*
X2267915Y3009087D01*
X2261768Y2991408D01*
X2257806Y2978810D01*
X2254250Y2966262D01*
X2251100Y2953816D01*
X2248306Y2941421D01*
X2245969Y2929128D01*
X2243988Y2916885D01*
X2242413Y2904693D01*
X2241296Y2892602D01*
X2240483Y2880614D01*
X2240127Y2867456D01*
X2257348Y2867456D01*
X2257501Y2879445D01*
X2258110Y2891434D01*
X2259126Y2903372D01*
X2260600Y2915208D01*
X2262479Y2926943D01*
X2264765Y2938526D01*
X2267559Y2949956D01*
X2270760Y2961233D01*
X2282088Y2996184D01*
X2285542Y3005683D01*
X2300478Y2991967D01*
X2311806Y2980486D01*
X2319680Y2971901D01*
X2325268Y2965094D01*
X2331212Y2957322D01*
X2343822Y2939135D01*
X2367534Y2939135D01*
X2368296Y2942234D01*
X2370074Y2946654D01*
X2372817Y2952496D01*
X2381554Y2969006D01*
X2395118Y2992932D01*
X2410612Y3019399D01*
X2415997Y3028188D01*
X2420112Y3034436D01*
X2423210Y3038500D01*
X2425496Y3040786D01*
X2427274Y3041548D01*
X2428748Y3041192D01*
X2431592Y3038551D01*
X2436164Y3033217D01*
X2441803Y3026003D01*
X2447899Y3017621D01*
X2455621Y3005836D01*
X2463444Y2992323D01*
X2470861Y2978251D01*
X2477312Y2964637D01*
X2482189Y2952597D01*
X2483916Y2947517D01*
X2485085Y2943250D01*
X2485491Y2940608D01*
X2485491Y2938068D01*
X2484882Y2935427D01*
X2483561Y2932277D01*
X2481326Y2928416D01*
X2473553Y2917190D01*
X2463546Y2903524D01*
X2454656Y2890469D01*
X2445867Y2876651D01*
X2438196Y2863646D01*
X2429865Y2848203D01*
X2422296Y2834894D01*
X2420924Y2833065D01*
X2417927Y2838958D01*
X2407361Y2862072D01*
X2401062Y2874670D01*
X2369616Y2932938D01*
X2367584Y2937256D01*
X2367534Y2939135D01*
X2343822Y2939135D01*
X2356662Y2918764D01*
X2363266Y2907690D01*
X2376373Y2884220D01*
X2382824Y2872079D01*
X2392222Y2853537D01*
X2403957Y2828696D01*
X2412214Y2809697D01*
X2434183Y2809697D01*
X2434336Y2812897D01*
X2434844Y2815640D01*
X2437384Y2822244D01*
X2441600Y2831134D01*
X2447137Y2841701D01*
X2453741Y2853436D01*
X2461107Y2865932D01*
X2468880Y2878531D01*
X2476804Y2890875D01*
X2484577Y2902356D01*
X2491841Y2912516D01*
X2498293Y2920796D01*
X2509266Y2933649D01*
X2520137Y2945739D01*
X2530449Y2956661D01*
X2539847Y2966110D01*
X2547924Y2973628D01*
X2554325Y2978912D01*
X2558643Y2981502D01*
X2559913Y2981655D01*
X2560472Y2981045D01*
X2562098Y2968904D01*
X2566111Y2932480D01*
X2567787Y2908655D01*
X2568244Y2896971D01*
X2568295Y2874060D01*
X2567940Y2862732D01*
X2567279Y2851505D01*
X2565095Y2829255D01*
X2562656Y2812694D01*
X2559608Y2796082D01*
X2557170Y2784957D01*
X2554427Y2773832D01*
X2547975Y2751328D01*
X2540254Y2728417D01*
X2533961Y2711805D01*
X2554071Y2711805D01*
X2564841Y2743911D01*
X2567940Y2754020D01*
X2570734Y2764180D01*
X2573223Y2774492D01*
X2575509Y2785110D01*
X2577541Y2796082D01*
X2579370Y2807512D01*
X2582367Y2832100D01*
X2586278Y2873756D01*
X2587853Y2884932D01*
X2589276Y2892044D01*
X2589936Y2893669D01*
X2591257Y2895295D01*
X2596845Y2900578D01*
X2605684Y2908096D01*
X2630068Y2927502D01*
X2658668Y2949194D01*
X2672638Y2959506D01*
X2696514Y2976321D01*
X2704846Y2981756D01*
X2709875Y2984449D01*
X2710891Y2984601D01*
X2711348Y2982010D01*
X2711450Y2975660D01*
X2711246Y2966466D01*
X2710332Y2949549D01*
X2708148Y2924911D01*
X2704947Y2898851D01*
X2700832Y2872079D01*
X2698445Y2858668D01*
X2692755Y2829509D01*
X2657906Y2806496D01*
X2647543Y2799181D01*
X2637028Y2791358D01*
X2626461Y2783128D01*
X2616047Y2774594D01*
X2605989Y2765907D01*
X2596337Y2757220D01*
X2587294Y2748635D01*
X2578963Y2740304D01*
X2571597Y2732328D01*
X2554071Y2711805D01*
X2533961Y2711805D01*
X2526233Y2692958D01*
X2515158Y2668422D01*
X2502712Y2642920D01*
X2486202Y2610256D01*
X2481732Y2634792D01*
X2479700Y2644495D01*
X2473858Y2668828D01*
X2466492Y2697073D01*
X2458364Y2726232D01*
X2450439Y2753106D01*
X2446782Y2764739D01*
X2437688Y2791510D01*
X2436215Y2796895D01*
X2435148Y2801721D01*
X2434488Y2805988D01*
X2434183Y2809697D01*
X2412214Y2809697D01*
X2420772Y2787904D01*
X2429103Y2763774D01*
X2437130Y2737866D01*
X2444699Y2710942D01*
X2449931Y2690723D01*
X2456078Y2664409D01*
X2461107Y2639618D01*
X2463139Y2628138D01*
X2466551Y2602687D01*
X2500325Y2602687D01*
X2520442Y2633878D01*
X2528265Y2645613D01*
X2544114Y2668168D01*
X2552090Y2678887D01*
X2564130Y2694432D01*
X2572207Y2704338D01*
X2588514Y2723134D01*
X2604973Y2740558D01*
X2613253Y2748788D01*
X2621584Y2756662D01*
X2629966Y2764180D01*
X2646832Y2778201D01*
X2655316Y2784652D01*
X2663850Y2790799D01*
X2672384Y2796590D01*
X2681020Y2802077D01*
X2689148Y2806750D01*
X2712669Y2819146D01*
X2740456Y2832963D01*
X2766060Y2845054D01*
X2776016Y2849422D01*
X2782976Y2852216D01*
X2786176Y2853029D01*
X2785973Y2850946D01*
X2783332Y2837383D01*
X2779826Y2821736D01*
X2776728Y2809798D01*
X2773172Y2797759D01*
X2769158Y2785516D01*
X2764688Y2773222D01*
X2759811Y2760878D01*
X2754528Y2748534D01*
X2748838Y2736240D01*
X2742793Y2724048D01*
X2736392Y2712008D01*
X2728010Y2697124D01*
X2719425Y2682494D01*
X2712364Y2671419D01*
X2709214Y2667101D01*
X2706166Y2663393D01*
X2703169Y2660345D01*
X2700172Y2657805D01*
X2726842Y2657805D01*
X2780690Y2761183D01*
X2782468Y2763621D01*
X2784602Y2765501D01*
X2787446Y2766974D01*
X2791256Y2768193D01*
X2796336Y2769260D01*
X2811576Y2771394D01*
X2823413Y2772460D01*
X2836672Y2773121D01*
X2850438Y2773324D01*
X2864053Y2773121D01*
X2876651Y2772511D01*
X2887472Y2771597D01*
X2895752Y2770276D01*
X2898698Y2769514D01*
X2900730Y2768650D01*
X2902813Y2766517D01*
X2902813Y2762910D01*
X2900426Y2756763D01*
X2892653Y2741930D01*
X2878988Y2718104D01*
X2864002Y2693263D01*
X2851505Y2673604D01*
X2846019Y2666034D01*
X2843377Y2664155D01*
X2839669Y2662783D01*
X2835402Y2662123D01*
X2827934Y2662478D01*
X2817164Y2662529D01*
X2801670Y2662123D01*
X2783332Y2661259D01*
X2726842Y2657805D01*
X2700172Y2657805D01*
X2697073Y2655722D01*
X2693771Y2654046D01*
X2690215Y2652674D01*
X2686304Y2651506D01*
X2677160Y2649626D01*
X2657602Y2646121D01*
X2633675Y2640939D01*
X2606294Y2634335D01*
X2578201Y2627020D01*
X2551938Y2619705D01*
X2530246Y2612999D01*
X2500325Y2602687D01*
X2466551Y2602687D01*
X2467152Y2594356D01*
X2467559Y2579116D01*
X2445308Y2584500D01*
X2434234Y2588056D01*
X2422956Y2592578D01*
X2411577Y2597962D01*
X2400147Y2604109D01*
X2388768Y2611069D01*
X2377541Y2618689D01*
X2366518Y2626969D01*
X2355850Y2635808D01*
X2345588Y2645156D01*
X2335834Y2654960D01*
X2326640Y2665171D01*
X2318867Y2674721D01*
X2312314Y2683713D01*
X2306066Y2693060D01*
X2300173Y2702763D01*
X2294636Y2712821D01*
X2289454Y2723134D01*
X2284679Y2733700D01*
X2280259Y2744520D01*
X2276195Y2755595D01*
X2272538Y2766822D01*
X2269236Y2778302D01*
X2266340Y2789885D01*
X2263851Y2801620D01*
X2261768Y2813456D01*
X2260092Y2825343D01*
X2258771Y2837332D01*
X2257907Y2849372D01*
X2257348Y2867456D01*
X2240127Y2867456D01*
X2240178Y2856788D01*
X2240635Y2845003D01*
X2241448Y2833268D01*
X2242667Y2821635D01*
X2244293Y2810103D01*
X2246376Y2798622D01*
X2248763Y2787192D01*
X2251608Y2775864D01*
X2254859Y2764637D01*
X2258466Y2753461D01*
X2262530Y2742387D01*
X2266950Y2731363D01*
X2271776Y2720390D01*
X2277008Y2709570D01*
X2282647Y2698750D01*
X2288743Y2688031D01*
X2295448Y2677414D01*
X2302662Y2667050D01*
X2310333Y2657043D01*
X2318461Y2647340D01*
X2326995Y2637993D01*
X2335936Y2629103D01*
X2345131Y2620568D01*
X2354630Y2612542D01*
X2364384Y2605024D01*
X2374341Y2598013D01*
X2384450Y2591562D01*
X2394661Y2585720D01*
X2404973Y2580487D01*
X2415286Y2575864D01*
X2425598Y2572004D01*
X2435860Y2568803D01*
X2439412Y2567889D01*
X2485898Y2567889D01*
X2485948Y2569006D01*
X2486660Y2570276D01*
X2487879Y2571648D01*
X2489758Y2573223D01*
X2495042Y2576626D01*
X2502306Y2580487D01*
X2511348Y2584653D01*
X2521915Y2589123D01*
X2546908Y2598420D01*
X2560878Y2603144D01*
X2575560Y2607818D01*
X2590749Y2612339D01*
X2606192Y2616657D01*
X2621737Y2620670D01*
X2637129Y2624277D01*
X2663088Y2629712D01*
X2689098Y2634284D01*
X2715056Y2638094D01*
X2740710Y2641041D01*
X2766009Y2643124D01*
X2790748Y2644444D01*
X2808833Y2644800D01*
X2832201Y2644597D01*
X2854604Y2643479D01*
X2875889Y2641447D01*
X2889961Y2639466D01*
X2909620Y2635656D01*
X2927604Y2631236D01*
X2934563Y2629204D01*
X2939338Y2627477D01*
X2941320Y2626156D01*
X2940100Y2624226D01*
X2931007Y2612898D01*
X2919882Y2599944D01*
X2910789Y2590190D01*
X2901391Y2580843D01*
X2891688Y2571902D01*
X2881680Y2563418D01*
X2871419Y2555341D01*
X2860802Y2547721D01*
X2849930Y2540508D01*
X2838805Y2533751D01*
X2827375Y2527401D01*
X2815691Y2521508D01*
X2803753Y2516073D01*
X2791561Y2511094D01*
X2779115Y2506573D01*
X2766415Y2502509D01*
X2753461Y2498902D01*
X2740660Y2495854D01*
X2728112Y2493365D01*
X2715615Y2491384D01*
X2703169Y2489911D01*
X2690774Y2488996D01*
X2678430Y2488539D01*
X2666187Y2488641D01*
X2653995Y2489200D01*
X2641955Y2490317D01*
X2630017Y2491892D01*
X2618181Y2493975D01*
X2606497Y2496566D01*
X2594965Y2499664D01*
X2583586Y2503271D01*
X2572359Y2507335D01*
X2561336Y2511907D01*
X2550515Y2516987D01*
X2539898Y2522575D01*
X2530348Y2528214D01*
X2520492Y2535275D01*
X2509977Y2543606D01*
X2500071Y2552242D01*
X2491943Y2560066D01*
X2488996Y2563317D01*
X2486914Y2565958D01*
X2485898Y2567889D01*
X2439412Y2567889D01*
X2446070Y2566365D01*
X2460599Y2563672D01*
X2466695Y2561386D01*
X2471724Y2557272D01*
X2481580Y2545943D01*
X2490063Y2537510D01*
X2500071Y2528976D01*
X2511298Y2520543D01*
X2523388Y2512466D01*
X2536037Y2504846D01*
X2548940Y2497988D01*
X2561793Y2492095D01*
X2574899Y2487015D01*
X2587904Y2482494D01*
X2600299Y2478735D01*
X2612237Y2475687D01*
X2623921Y2473248D01*
X2635605Y2471521D01*
X2647442Y2470353D01*
X2659634Y2469794D01*
X2672384Y2469794D01*
X2685897Y2470302D01*
X2698902Y2471216D01*
X2710738Y2472486D01*
X2722575Y2474163D01*
X2734462Y2476296D01*
X2746298Y2478836D01*
X2758084Y2481783D01*
X2769768Y2485136D01*
X2781401Y2488844D01*
X2792933Y2492959D01*
X2804312Y2497429D01*
X2815488Y2502255D01*
X2826562Y2507386D01*
X2837383Y2512923D01*
X2847949Y2518765D01*
X2858312Y2524912D01*
X2868422Y2531364D01*
X2878175Y2538120D01*
X2887675Y2545181D01*
X2896768Y2552496D01*
X2905556Y2560116D01*
X2913684Y2567736D01*
X2922981Y2577287D01*
X2933344Y2588361D01*
X2943453Y2599740D01*
X2959404Y2618740D01*
X2965246Y2626766D01*
X2966872Y2631186D01*
X2965500Y2634030D01*
X2963468Y2635707D01*
X2960522Y2637536D01*
X2956712Y2639466D01*
X2946958Y2643479D01*
X2935020Y2647492D01*
X2921711Y2651252D01*
X2907893Y2654604D01*
X2894380Y2657246D01*
X2881934Y2658973D01*
X2865932Y2660446D01*
X2866898Y2662631D01*
X2874873Y2677312D01*
X2910027Y2739136D01*
X2917139Y2751988D01*
X2926842Y2770784D01*
X2928874Y2775559D01*
X2929026Y2776524D01*
X2927248Y2778506D01*
X2923184Y2780639D01*
X2917190Y2782824D01*
X2909671Y2784906D01*
X2900984Y2786837D01*
X2891536Y2788564D01*
X2881630Y2789885D01*
X2871724Y2790799D01*
X2858262Y2791307D01*
X2843276Y2791307D01*
X2828290Y2790799D01*
X2814828Y2789936D01*
X2804464Y2788716D01*
X2800959Y2788005D01*
X2798775Y2787243D01*
X2794914Y2786532D01*
X2791460Y2787904D01*
X2789377Y2790596D01*
X2789732Y2793847D01*
X2790698Y2796082D01*
X2793492Y2805176D01*
X2800756Y2833827D01*
X2804109Y2848813D01*
X2806547Y2861208D01*
X2808833Y2877972D01*
X2792425Y2873908D01*
X2782925Y2870758D01*
X2770733Y2866186D01*
X2738120Y2852978D01*
X2727807Y2849321D01*
X2720695Y2847390D01*
X2717901Y2847594D01*
X2717850Y2849829D01*
X2719120Y2858465D01*
X2720695Y2866136D01*
X2721762Y2873705D01*
X2724048Y2897378D01*
X2726385Y2927756D01*
X2728315Y2959354D01*
X2729585Y2986633D01*
X2729738Y3004108D01*
X2728366Y3015640D01*
X2709468Y3004870D01*
X2698496Y2998216D01*
X2673604Y2982112D01*
X2647340Y2964180D01*
X2623007Y2946806D01*
X2603855Y2932176D01*
X2597200Y2926588D01*
X2593035Y2922574D01*
X2590749Y2919628D01*
X2589631Y2919425D01*
X2588514Y2920695D01*
X2587447Y2923641D01*
X2586329Y2928315D01*
X2583891Y2943504D01*
X2581656Y2960878D01*
X2579624Y2974441D01*
X2577388Y2987040D01*
X2575204Y2997149D01*
X2569921Y3015843D01*
X2559913Y3007969D01*
X2543860Y2993339D01*
X2501595Y2952292D01*
X2491587Y2976016D01*
X2485491Y2989224D01*
X2478481Y3002534D01*
X2470810Y3015538D01*
X2462784Y3027883D01*
X2454656Y3039211D01*
X2446731Y3049117D01*
X2439263Y3057245D01*
X2435809Y3060547D01*
X2432558Y3063240D01*
X2429611Y3065322D01*
X2426919Y3066745D01*
G37*
D10*
X1185443Y3343384D02*
G01*
X1144549Y3272553D01*
X1004450Y2948106D02*
G01*
X933401Y2989127D01*
X989482Y3003969D02*
G01*
X948588Y2933138D01*
D11*
X-761723Y2038880D02*
G01*
X-715749Y2075710D01*
X-664949Y2075710D01*
X-761723Y2112794D02*
G01*
X-715749Y2075710D01*
X-436140Y1757265D02*
G01*
X-339112Y1821781D01*
X-436140Y1821781D02*
G01*
X-339112Y1757265D01*
X-102108Y3164078D02*
G01*
X-112522Y3158744D01*
X-122936Y3148329D01*
X-128015Y3138170D01*
X-128015Y3117342D01*
X-122936Y3106928D01*
X-112522Y3096513D01*
X-102108Y3091179D01*
X-86359Y3086100D01*
X-60452Y3086100D01*
X-44958Y3091179D01*
X-34543Y3096513D01*
X-24129Y3106928D01*
X-19050Y3117342D01*
X-19050Y3138170D01*
X-24129Y3148329D01*
X-34543Y3158744D01*
X-44958Y3164078D01*
X-107188Y3198368D02*
G01*
X-112522Y3208781D01*
X-128015Y3224276D01*
X-19050Y3224276D01*
X-328422Y2540507D02*
G01*
X-333756Y2550921D01*
X-344170Y2561336D01*
X-354329Y2566415D01*
X-375158Y2566415D01*
X-385572Y2561336D01*
X-395986Y2550921D01*
X-401320Y2540507D01*
X-406400Y2524760D01*
X-406400Y2498852D01*
X-401320Y2483357D01*
X-395986Y2472944D01*
X-385572Y2462529D01*
X-375158Y2457450D01*
X-354329Y2457450D01*
X-344170Y2462529D01*
X-333756Y2472944D01*
X-328422Y2483357D01*
X-289052Y2540507D02*
G01*
X-289052Y2545587D01*
X-283718Y2556002D01*
X-278638Y2561336D01*
X-268224Y2566415D01*
X-247395Y2566415D01*
X-236981Y2561336D01*
X-231902Y2556002D01*
X-226568Y2545587D01*
X-226568Y2535173D01*
X-231902Y2524760D01*
X-242315Y2509265D01*
X-294131Y2457450D01*
X-221488Y2457450D01*
X24384Y3213100D02*
G01*
X133350Y3213100D01*
X24384Y3213100D02*
G01*
X24384Y3249421D01*
X29463Y3265170D01*
X39877Y3275329D01*
X50291Y3280663D01*
X66040Y3285744D01*
X91947Y3285744D01*
X107441Y3280663D01*
X117856Y3275329D01*
X128270Y3265170D01*
X133350Y3249421D01*
X133350Y3213100D01*
X45211Y3320034D02*
G01*
X39877Y3330447D01*
X24384Y3346195D01*
X133350Y3346195D01*
X165100Y2858515D02*
G01*
X165100Y2749550D01*
X165100Y2858515D02*
G01*
X201422Y2858515D01*
X217170Y2853436D01*
X227329Y2843021D01*
X232663Y2832607D01*
X237743Y2816860D01*
X237743Y2790952D01*
X232663Y2775457D01*
X227329Y2765044D01*
X217170Y2754629D01*
X201422Y2749550D01*
X165100Y2749550D01*
X277368Y2832607D02*
G01*
X277368Y2837687D01*
X282447Y2848102D01*
X287781Y2853436D01*
X298195Y2858515D01*
X318770Y2858515D01*
X329184Y2853436D01*
X334518Y2848102D01*
X339597Y2837687D01*
X339597Y2827273D01*
X334518Y2816860D01*
X324104Y2801365D01*
X272034Y2749550D01*
X344931Y2749550D01*
X215900Y3582415D02*
G01*
X215900Y3473450D01*
X215900Y3582415D02*
G01*
X283463Y3582415D01*
X215900Y3530600D02*
G01*
X257556Y3530600D01*
X317754Y3561587D02*
G01*
X328168Y3566921D01*
X343661Y3582415D01*
X343661Y3473450D01*
X539241Y3465367D02*
G01*
X593725Y3370999D01*
X593725Y3370999D02*
G01*
X647618Y3402114D01*
X622830Y3513627D02*
G01*
X677313Y3419259D01*
X622830Y3513627D02*
G01*
X681342Y3547409D01*
X648738Y3468753D02*
G01*
X684814Y3489581D01*
X677313Y3419259D02*
G01*
X735825Y3453041D01*
X711039Y3564554D02*
G01*
X765522Y3470186D01*
X711039Y3564554D02*
G01*
X742713Y3582842D01*
X758672Y3586190D01*
X772899Y3582377D01*
X782505Y3575898D01*
X794999Y3564928D01*
X807953Y3542489D01*
X811080Y3526406D01*
X811888Y3514846D01*
X808075Y3500620D01*
X797196Y3488474D01*
X765522Y3470186D01*
X821220Y3598250D02*
G01*
X818680Y3602649D01*
X818093Y3614336D01*
X819825Y3621496D01*
X826302Y3631102D01*
X844341Y3641516D01*
X855898Y3642324D01*
X862965Y3640244D01*
X872792Y3633891D01*
X877999Y3624872D01*
X878586Y3613188D01*
X877315Y3594562D01*
X858349Y3523780D01*
X921260Y3560102D01*
X-1632457Y2033015D02*
G01*
X-1642871Y2027936D01*
X-1653286Y2017521D01*
X-1658620Y2007107D01*
X-1663700Y1991360D01*
X-1663700Y1965452D01*
X-1658620Y1949957D01*
X-1653286Y1939544D01*
X-1642871Y1929129D01*
X-1632457Y1924050D01*
X-1611629Y1924050D01*
X-1601470Y1929129D01*
X-1591055Y1939544D01*
X-1585721Y1949957D01*
X-1580642Y1965452D01*
X-1580642Y1991360D01*
X-1585721Y2007107D01*
X-1591055Y2017521D01*
X-1601470Y2027936D01*
X-1611629Y2033015D01*
X-1632457Y2033015D01*
X-1616963Y1944623D02*
G01*
X-1585721Y1913636D01*
X-1546352Y2012187D02*
G01*
X-1535937Y2017521D01*
X-1520189Y2033015D01*
X-1520189Y1924050D01*
X-1619757Y1893315D02*
G01*
X-1630171Y1888236D01*
X-1640586Y1877821D01*
X-1645920Y1867407D01*
X-1651000Y1851660D01*
X-1651000Y1825752D01*
X-1645920Y1810257D01*
X-1640586Y1799844D01*
X-1630171Y1789429D01*
X-1619757Y1784350D01*
X-1598929Y1784350D01*
X-1588770Y1789429D01*
X-1578355Y1799844D01*
X-1573021Y1810257D01*
X-1567942Y1825752D01*
X-1567942Y1851660D01*
X-1573021Y1867407D01*
X-1578355Y1877821D01*
X-1588770Y1888236D01*
X-1598929Y1893315D01*
X-1619757Y1893315D01*
X-1604263Y1804923D02*
G01*
X-1573021Y1773936D01*
X-1528318Y1867407D02*
G01*
X-1528318Y1872487D01*
X-1523237Y1882902D01*
X-1517904Y1888236D01*
X-1507489Y1893315D01*
X-1486915Y1893315D01*
X-1476502Y1888236D01*
X-1471168Y1882902D01*
X-1466087Y1872487D01*
X-1466087Y1862073D01*
X-1471168Y1851660D01*
X-1481581Y1836165D01*
X-1533652Y1784350D01*
X-1460754Y1784350D01*
X-1632457Y1766315D02*
G01*
X-1642871Y1761236D01*
X-1653286Y1750821D01*
X-1658620Y1740407D01*
X-1663700Y1724660D01*
X-1663700Y1698752D01*
X-1658620Y1683257D01*
X-1653286Y1672844D01*
X-1642871Y1662429D01*
X-1632457Y1657350D01*
X-1611629Y1657350D01*
X-1601470Y1662429D01*
X-1591055Y1672844D01*
X-1585721Y1683257D01*
X-1580642Y1698752D01*
X-1580642Y1724660D01*
X-1585721Y1740407D01*
X-1591055Y1750821D01*
X-1601470Y1761236D01*
X-1611629Y1766315D01*
X-1632457Y1766315D01*
X-1616963Y1677923D02*
G01*
X-1585721Y1646936D01*
X-1535937Y1766315D02*
G01*
X-1478787Y1766315D01*
X-1510029Y1724660D01*
X-1494281Y1724660D01*
X-1483868Y1719579D01*
X-1478787Y1714500D01*
X-1473454Y1698752D01*
X-1473454Y1688337D01*
X-1478787Y1672844D01*
X-1489202Y1662429D01*
X-1504695Y1657350D01*
X-1520189Y1657350D01*
X-1535937Y1662429D01*
X-1541018Y1667510D01*
X-1546352Y1677923D01*
X100584Y1282700D02*
G01*
X209550Y1282700D01*
X100584Y1282700D02*
G01*
X100584Y1329436D01*
X105663Y1344929D01*
X110997Y1350263D01*
X121411Y1355344D01*
X131825Y1355344D01*
X142240Y1350263D01*
X147320Y1344929D01*
X152400Y1329436D01*
X152400Y1282700D01*
X152400Y1319021D02*
G01*
X209550Y1355344D01*
X121411Y1389634D02*
G01*
X116077Y1400047D01*
X100584Y1415795D01*
X209550Y1415795D01*
X691743Y1184485D02*
G01*
X786330Y1129875D01*
X691743Y1184485D02*
G01*
X715111Y1224960D01*
X727478Y1235712D01*
X734418Y1237571D01*
X746104Y1236985D01*
X755121Y1231778D01*
X761474Y1221950D01*
X763333Y1215011D01*
X760206Y1198925D01*
X736838Y1158450D01*
X754999Y1189906D02*
G01*
X822652Y1192789D01*
X770188Y1268539D02*
G01*
X765789Y1271079D01*
X759437Y1280906D01*
X757577Y1287846D01*
X758164Y1299530D01*
X768578Y1317569D01*
X778405Y1323921D01*
X785345Y1325780D01*
X797031Y1325191D01*
X806048Y1319984D01*
X812401Y1310159D01*
X820613Y1293393D01*
X839797Y1222484D01*
X876119Y1285394D01*
X405384Y1066800D02*
G01*
X514350Y1066800D01*
X405384Y1066800D02*
G01*
X405384Y1113536D01*
X410463Y1129029D01*
X415797Y1134363D01*
X426211Y1139444D01*
X436625Y1139444D01*
X447040Y1134363D01*
X452120Y1129029D01*
X457200Y1113536D01*
X457200Y1066800D01*
X457200Y1103121D02*
G01*
X514350Y1139444D01*
X405384Y1184147D02*
G01*
X405384Y1241297D01*
X447040Y1210310D01*
X447040Y1225804D01*
X452120Y1236218D01*
X457200Y1241297D01*
X472947Y1246631D01*
X483361Y1246631D01*
X498856Y1241297D01*
X509270Y1230884D01*
X514350Y1215389D01*
X514350Y1199895D01*
X509270Y1184147D01*
X504190Y1179068D01*
X493775Y1173734D01*
X-1944115Y2400300D02*
G01*
X-1835150Y2400300D01*
X-1944115Y2400300D02*
G01*
X-1944115Y2447036D01*
X-1939036Y2462529D01*
X-1933702Y2467863D01*
X-1923287Y2472944D01*
X-1912873Y2472944D01*
X-1902460Y2467863D01*
X-1897379Y2462529D01*
X-1892300Y2447036D01*
X-1892300Y2400300D01*
X-1892300Y2436621D02*
G01*
X-1835150Y2472944D01*
X-1944115Y2559304D02*
G01*
X-1871471Y2507234D01*
X-1871471Y2585212D01*
X-1944115Y2559304D02*
G01*
X-1835150Y2559304D01*
X-1930400Y1715515D02*
G01*
X-1930400Y1606550D01*
X-1930400Y1715515D02*
G01*
X-1883663Y1715515D01*
X-1868170Y1710436D01*
X-1862836Y1705102D01*
X-1857755Y1694687D01*
X-1857755Y1684273D01*
X-1862836Y1673860D01*
X-1868170Y1668779D01*
X-1883663Y1663700D01*
X-1930400Y1663700D01*
X-1894078Y1663700D02*
G01*
X-1857755Y1606550D01*
X-1760981Y1715515D02*
G01*
X-1813052Y1715515D01*
X-1818131Y1668779D01*
X-1813052Y1673860D01*
X-1797304Y1679194D01*
X-1781810Y1679194D01*
X-1766315Y1673860D01*
X-1755902Y1663700D01*
X-1750568Y1647952D01*
X-1750568Y1637537D01*
X-1755902Y1622044D01*
X-1766315Y1611629D01*
X-1781810Y1606550D01*
X-1797304Y1606550D01*
X-1813052Y1611629D01*
X-1818131Y1616710D01*
X-1823465Y1627123D01*
X532384Y1066800D02*
G01*
X641350Y1066800D01*
X532384Y1066800D02*
G01*
X532384Y1113536D01*
X537463Y1129029D01*
X542797Y1134363D01*
X553211Y1139444D01*
X563625Y1139444D01*
X574040Y1134363D01*
X579120Y1129029D01*
X584200Y1113536D01*
X584200Y1066800D01*
X584200Y1103121D02*
G01*
X641350Y1139444D01*
X547877Y1236218D02*
G01*
X537463Y1230884D01*
X532384Y1215389D01*
X532384Y1204976D01*
X537463Y1189481D01*
X553211Y1179068D01*
X579120Y1173734D01*
X605027Y1173734D01*
X625856Y1179068D01*
X636270Y1189481D01*
X641350Y1204976D01*
X641350Y1210310D01*
X636270Y1225804D01*
X625856Y1236218D01*
X610361Y1241297D01*
X605027Y1241297D01*
X589534Y1236218D01*
X579120Y1225804D01*
X574040Y1210310D01*
X574040Y1204976D01*
X579120Y1189481D01*
X589534Y1179068D01*
X605027Y1173734D01*
X850900Y280415D02*
G01*
X850900Y171450D01*
X850900Y280415D02*
G01*
X897636Y280415D01*
X913129Y275336D01*
X918463Y270002D01*
X923543Y259587D01*
X923543Y249173D01*
X918463Y238760D01*
X913129Y233679D01*
X897636Y228600D01*
X850900Y228600D01*
X887222Y228600D02*
G01*
X923543Y171450D01*
X1030731Y280415D02*
G01*
X978661Y171450D01*
X957834Y280415D02*
G01*
X1030731Y280415D01*
X850900Y153415D02*
G01*
X850900Y44450D01*
X850900Y153415D02*
G01*
X897636Y153415D01*
X913129Y148336D01*
X918463Y143002D01*
X923543Y132587D01*
X923543Y122173D01*
X918463Y111760D01*
X913129Y106679D01*
X897636Y101600D01*
X850900Y101600D01*
X887222Y101600D02*
G01*
X923543Y44450D01*
X983995Y153415D02*
G01*
X968247Y148336D01*
X963168Y137921D01*
X963168Y127507D01*
X968247Y117094D01*
X978661Y111760D01*
X999490Y106679D01*
X1014984Y101600D01*
X1025397Y91186D01*
X1030731Y80771D01*
X1030731Y65023D01*
X1025397Y54610D01*
X1020318Y49529D01*
X1004570Y44450D01*
X983995Y44450D01*
X968247Y49529D01*
X963168Y54610D01*
X957834Y65023D01*
X957834Y80771D01*
X963168Y91186D01*
X973581Y101600D01*
X989075Y106679D01*
X1009904Y111760D01*
X1020318Y117094D01*
X1025397Y127507D01*
X1025397Y137921D01*
X1020318Y148336D01*
X1004570Y153415D01*
X983995Y153415D01*
X1788967Y3969257D02*
G01*
X1694599Y3914775D01*
X1788967Y3969257D02*
G01*
X1812335Y3928783D01*
X1815683Y3912824D01*
X1813730Y3905539D01*
X1807250Y3895933D01*
X1798231Y3890726D01*
X1786674Y3889918D01*
X1779607Y3891996D01*
X1767461Y3902875D01*
X1744093Y3943350D01*
X1762254Y3911894D02*
G01*
X1730921Y3851864D01*
X1844758Y3799977D02*
G01*
X1828802Y3796629D01*
X1814575Y3800441D01*
X1802208Y3811193D01*
X1799541Y3815811D01*
X1796415Y3831897D01*
X1800227Y3846123D01*
X1810976Y3858488D01*
X1815376Y3861028D01*
X1831682Y3864284D01*
X1845909Y3860472D01*
X1858055Y3849593D01*
X1860722Y3844975D01*
X1864070Y3829016D01*
X1860257Y3814790D01*
X1844758Y3799977D01*
X1822322Y3787023D01*
X1797126Y3778341D01*
X1778500Y3779613D01*
X1766354Y3790492D01*
X1761147Y3799509D01*
X1757672Y3815689D01*
X1764151Y3825295D01*
X-1752600Y2845815D02*
G01*
X-1752600Y2736850D01*
X-1752600Y2845815D02*
G01*
X-1705863Y2845815D01*
X-1690370Y2840736D01*
X-1685036Y2835402D01*
X-1679955Y2824987D01*
X-1679955Y2814573D01*
X-1685036Y2804160D01*
X-1690370Y2799079D01*
X-1705863Y2794000D01*
X-1752600Y2794000D01*
X-1716278Y2794000D02*
G01*
X-1679955Y2736850D01*
X-1645665Y2824987D02*
G01*
X-1635252Y2830321D01*
X-1619504Y2845815D01*
X-1619504Y2736850D01*
X-1554226Y2845815D02*
G01*
X-1569720Y2840736D01*
X-1580134Y2824987D01*
X-1585213Y2799079D01*
X-1585213Y2783586D01*
X-1580134Y2757423D01*
X-1569720Y2741929D01*
X-1554226Y2736850D01*
X-1543812Y2736850D01*
X-1528063Y2741929D01*
X-1517650Y2757423D01*
X-1512570Y2783586D01*
X-1512570Y2799079D01*
X-1517650Y2824987D01*
X-1528063Y2840736D01*
X-1543812Y2845815D01*
X-1554226Y2845815D01*
X1021841Y3389167D02*
G01*
X1076325Y3294799D01*
X1021841Y3389167D02*
G01*
X1062316Y3412535D01*
X1078275Y3415883D01*
X1085560Y3413930D01*
X1095166Y3407450D01*
X1100373Y3398431D01*
X1101181Y3386874D01*
X1099103Y3379807D01*
X1088224Y3367661D01*
X1047750Y3344293D01*
X1079205Y3362454D02*
G01*
X1139235Y3331121D01*
X1124864Y3424595D02*
G01*
X1131214Y3434422D01*
X1137107Y3455715D01*
X1191590Y3361347D01*
X1177216Y3454821D02*
G01*
X1183568Y3464648D01*
X1189240Y3485814D01*
X1243723Y3391446D01*
X-23667Y3461257D02*
G01*
X70700Y3406775D01*
X-23667Y3461257D02*
G01*
X-299Y3501732D01*
X11846Y3512611D01*
X19133Y3514562D01*
X30693Y3513754D01*
X39712Y3508547D01*
X46189Y3498941D01*
X47922Y3491783D01*
X44574Y3475824D01*
X21206Y3435350D01*
X39367Y3466805D02*
G01*
X107022Y3469685D01*
X47838Y3543452D02*
G01*
X48425Y3555136D01*
X42880Y3576523D01*
X137248Y3522040D01*
X85003Y3597663D02*
G01*
X80604Y3600203D01*
X74251Y3610030D01*
X72171Y3617097D01*
X72979Y3628656D01*
X83393Y3646693D01*
X92999Y3653172D01*
X100159Y3654905D01*
X111846Y3654315D01*
X120865Y3649108D01*
X127215Y3639284D01*
X135427Y3622517D01*
X154393Y3551735D01*
X190715Y3614646D01*
X983741Y3516167D02*
G01*
X1038225Y3421799D01*
X983741Y3516167D02*
G01*
X1024216Y3539535D01*
X1040175Y3542883D01*
X1047460Y3540930D01*
X1057066Y3534450D01*
X1062273Y3525431D01*
X1063081Y3513874D01*
X1061003Y3506807D01*
X1050124Y3494661D01*
X1009650Y3471293D01*
X1041105Y3489454D02*
G01*
X1101135Y3458121D01*
X1086764Y3551595D02*
G01*
X1093114Y3561422D01*
X1099007Y3582715D01*
X1153490Y3488347D01*
X1137721Y3605067D02*
G01*
X1187213Y3633642D01*
X1180985Y3581946D01*
X1194404Y3589693D01*
X1205964Y3590500D01*
X1213121Y3588768D01*
X1225395Y3577668D01*
X1230602Y3568651D01*
X1233949Y3552692D01*
X1230139Y3538466D01*
X1219039Y3526193D01*
X1205623Y3518446D01*
X1189664Y3515098D01*
X1182504Y3516830D01*
X1172898Y3523310D01*
X-1524000Y2718815D02*
G01*
X-1524000Y2609850D01*
X-1524000Y2718815D02*
G01*
X-1477263Y2718815D01*
X-1461770Y2713736D01*
X-1456436Y2708402D01*
X-1451355Y2697987D01*
X-1451355Y2687573D01*
X-1456436Y2677160D01*
X-1461770Y2672079D01*
X-1477263Y2667000D01*
X-1524000Y2667000D01*
X-1487678Y2667000D02*
G01*
X-1451355Y2609850D01*
X-1417065Y2697987D02*
G01*
X-1406652Y2703321D01*
X-1390904Y2718815D01*
X-1390904Y2609850D01*
X-1304797Y2718815D02*
G01*
X-1356613Y2646171D01*
X-1278889Y2646171D01*
X-1304797Y2718815D02*
G01*
X-1304797Y2609850D01*
X-1364742Y3605067D02*
G01*
X-1419225Y3510699D01*
X-1364742Y3605067D02*
G01*
X-1324267Y3581699D01*
X-1313388Y3569553D01*
X-1311437Y3562266D01*
X-1312245Y3550706D01*
X-1317452Y3541687D01*
X-1327058Y3535210D01*
X-1334216Y3533477D01*
X-1350175Y3536825D01*
X-1390650Y3560193D01*
X-1359194Y3542032D02*
G01*
X-1356314Y3474377D01*
X-1282547Y3533561D02*
G01*
X-1270863Y3532974D01*
X-1249476Y3538519D01*
X-1303959Y3444151D01*
X-1165887Y3490259D02*
G01*
X-1210762Y3516167D01*
X-1238750Y3478359D01*
X-1231590Y3480092D01*
X-1215504Y3476962D01*
X-1202088Y3469215D01*
X-1191115Y3456724D01*
X-1187178Y3442718D01*
X-1190652Y3426538D01*
X-1195859Y3417521D01*
X-1208006Y3406642D01*
X-1222230Y3402830D01*
X-1238410Y3406305D01*
X-1251826Y3414052D01*
X-1262705Y3426198D01*
X-1264785Y3433264D01*
X-1263977Y3444824D01*
X2342641Y3363767D02*
G01*
X2397125Y3269399D01*
X2342641Y3363767D02*
G01*
X2383116Y3387135D01*
X2399075Y3390483D01*
X2406360Y3388530D01*
X2415966Y3382050D01*
X2421173Y3373031D01*
X2421981Y3361474D01*
X2419903Y3354407D01*
X2409024Y3342261D01*
X2368550Y3318893D01*
X2400005Y3337054D02*
G01*
X2460035Y3305721D01*
X2445664Y3399195D02*
G01*
X2452014Y3409022D01*
X2457907Y3430315D01*
X2512390Y3335947D01*
X2549243Y3465156D02*
G01*
X2539636Y3471636D01*
X2523456Y3468161D01*
X2514439Y3462954D01*
X2503561Y3450808D01*
X2502415Y3431961D01*
X2510970Y3406985D01*
X2523924Y3384547D01*
X2538737Y3369050D01*
X2552964Y3365238D01*
X2568922Y3368586D01*
X2573540Y3371253D01*
X2584419Y3383399D01*
X2588232Y3397625D01*
X2585102Y3413711D01*
X2582435Y3418329D01*
X2570071Y3429081D01*
X2555844Y3432893D01*
X2539885Y3429546D01*
X2535267Y3426879D01*
X2524389Y3414732D01*
X2520576Y3400506D01*
X2523924Y3384547D01*
X62484Y-215900D02*
G01*
X171450Y-215900D01*
X62484Y-215900D02*
G01*
X62484Y-169163D01*
X67563Y-153670D01*
X72897Y-148336D01*
X83311Y-143255D01*
X93725Y-143255D01*
X104140Y-148336D01*
X109220Y-153670D01*
X114300Y-169163D01*
X114300Y-215900D01*
X114300Y-179578D02*
G01*
X171450Y-143255D01*
X83311Y-108965D02*
G01*
X77977Y-98552D01*
X62484Y-82804D01*
X171450Y-82804D01*
X62484Y24129D02*
G01*
X171450Y-27939D01*
X62484Y-48513D02*
G01*
X62484Y24129D01*
X62484Y482600D02*
G01*
X171450Y482600D01*
X62484Y482600D02*
G01*
X62484Y529336D01*
X67563Y544829D01*
X72897Y550163D01*
X83311Y555244D01*
X93725Y555244D01*
X104140Y550163D01*
X109220Y544829D01*
X114300Y529336D01*
X114300Y482600D01*
X114300Y518921D02*
G01*
X171450Y555244D01*
X83311Y589534D02*
G01*
X77977Y599947D01*
X62484Y615695D01*
X171450Y615695D01*
X62484Y675894D02*
G01*
X67563Y660400D01*
X77977Y655065D01*
X88391Y655065D01*
X98806Y660400D01*
X104140Y670560D01*
X109220Y691387D01*
X114300Y707136D01*
X124713Y717550D01*
X135127Y722629D01*
X150875Y722629D01*
X161290Y717550D01*
X166370Y712215D01*
X171450Y696721D01*
X171450Y675894D01*
X166370Y660400D01*
X161290Y655065D01*
X150875Y649986D01*
X135127Y649986D01*
X124713Y655065D01*
X114300Y665479D01*
X109220Y680973D01*
X104140Y701802D01*
X98806Y712215D01*
X88391Y717550D01*
X77977Y717550D01*
X67563Y712215D01*
X62484Y696721D01*
X62484Y675894D01*
X-1042415Y139700D02*
G01*
X-933450Y139700D01*
X-1042415Y139700D02*
G01*
X-1042415Y186436D01*
X-1037336Y201929D01*
X-1032002Y207263D01*
X-1021588Y212344D01*
X-1011174Y212344D01*
X-1000759Y207263D01*
X-995679Y201929D01*
X-990600Y186436D01*
X-990600Y139700D01*
X-990600Y176021D02*
G01*
X-933450Y212344D01*
X-1021588Y246634D02*
G01*
X-1026922Y257047D01*
X-1042415Y272795D01*
X-933450Y272795D01*
X-1006093Y374650D02*
G01*
X-990600Y369315D01*
X-980186Y358902D01*
X-974852Y343407D01*
X-974852Y338073D01*
X-980186Y322579D01*
X-990600Y312165D01*
X-1006093Y307086D01*
X-1011174Y307086D01*
X-1026922Y312165D01*
X-1037336Y322579D01*
X-1042415Y338073D01*
X-1042415Y343407D01*
X-1037336Y358902D01*
X-1026922Y369315D01*
X-1006093Y374650D01*
X-980186Y374650D01*
X-954024Y369315D01*
X-938529Y358902D01*
X-933450Y343407D01*
X-933450Y332994D01*
X-938529Y317500D01*
X-948943Y312165D01*
X-902715Y482600D02*
G01*
X-793750Y482600D01*
X-902715Y482600D02*
G01*
X-902715Y529336D01*
X-897636Y544829D01*
X-892302Y550163D01*
X-881888Y555244D01*
X-871474Y555244D01*
X-861059Y550163D01*
X-855979Y544829D01*
X-850900Y529336D01*
X-850900Y482600D01*
X-850900Y518921D02*
G01*
X-793750Y555244D01*
X-876808Y594868D02*
G01*
X-881888Y594868D01*
X-892302Y599947D01*
X-897636Y605281D01*
X-902715Y615695D01*
X-902715Y636270D01*
X-897636Y646684D01*
X-892302Y652018D01*
X-881888Y657097D01*
X-871474Y657097D01*
X-861059Y652018D01*
X-845565Y641604D01*
X-793750Y589534D01*
X-793750Y662431D01*
X-902715Y727710D02*
G01*
X-897636Y712215D01*
X-881888Y701802D01*
X-855979Y696721D01*
X-840486Y696721D01*
X-814324Y701802D01*
X-798829Y712215D01*
X-793750Y727710D01*
X-793750Y738123D01*
X-798829Y753871D01*
X-814324Y764286D01*
X-840486Y769365D01*
X-855979Y769365D01*
X-881888Y764286D01*
X-897636Y753871D01*
X-902715Y738123D01*
X-902715Y727710D01*
X-1041400Y2744215D02*
G01*
X-1041400Y2666237D01*
X-1036320Y2650744D01*
X-1025906Y2640329D01*
X-1010158Y2635250D01*
X-999743Y2635250D01*
X-984250Y2640329D01*
X-973836Y2650744D01*
X-968756Y2666237D01*
X-968756Y2744215D01*
X-934465Y2723387D02*
G01*
X-924052Y2728721D01*
X-908304Y2744215D01*
X-908304Y2635250D01*
X2953258Y1877867D02*
G01*
X2914268Y1810336D01*
X2910921Y1794377D01*
X2914733Y1780151D01*
X2925831Y1767878D01*
X2934850Y1762671D01*
X2950809Y1759323D01*
X2965033Y1763135D01*
X2977179Y1774014D01*
X3016168Y1841545D01*
X3037530Y1799295D02*
G01*
X3040070Y1803694D01*
X3049676Y1810174D01*
X3056963Y1812127D01*
X3068523Y1811319D01*
X3086341Y1801032D01*
X3092818Y1791426D01*
X3094771Y1784139D01*
X3093963Y1772579D01*
X3088756Y1763560D01*
X3079150Y1757083D01*
X3062384Y1748871D01*
X2991383Y1730032D01*
X3054515Y1693583D01*
X-1136142Y3401867D02*
G01*
X-1175130Y3334336D01*
X-1178478Y3318377D01*
X-1174666Y3304151D01*
X-1163568Y3291878D01*
X-1154549Y3286671D01*
X-1138590Y3283323D01*
X-1124366Y3287135D01*
X-1112220Y3298014D01*
X-1073231Y3365545D01*
X-1034516Y3343193D02*
G01*
X-985022Y3314618D01*
X-1032687Y3294037D01*
X-1019268Y3286290D01*
X-1012789Y3276683D01*
X-1010930Y3269744D01*
X-1014183Y3253437D01*
X-1019390Y3244420D01*
X-1031758Y3233668D01*
X-1045984Y3229856D01*
X-1061943Y3233204D01*
X-1075359Y3240951D01*
X-1086459Y3253224D01*
X-1088318Y3260163D01*
X-1087729Y3271850D01*
X1910841Y3147867D02*
G01*
X1949831Y3080336D01*
X1961977Y3069457D01*
X1976203Y3065645D01*
X1992381Y3069120D01*
X2001400Y3074327D01*
X2012279Y3086473D01*
X2016089Y3100699D01*
X2012741Y3116658D01*
X1973752Y3184189D01*
X2048543Y3227369D02*
G01*
X2039772Y3138421D01*
X2107303Y3177410D01*
X2048543Y3227369D02*
G01*
X2103026Y3133001D01*
X-1702815Y2374900D02*
G01*
X-1624837Y2374900D01*
X-1609344Y2379979D01*
X-1598929Y2390394D01*
X-1593850Y2406142D01*
X-1593850Y2416555D01*
X-1598929Y2432050D01*
X-1609344Y2442463D01*
X-1624837Y2447544D01*
X-1702815Y2447544D01*
X-1702815Y2544318D02*
G01*
X-1702815Y2492247D01*
X-1656079Y2487168D01*
X-1661160Y2492247D01*
X-1666494Y2507995D01*
X-1666494Y2523489D01*
X-1661160Y2538984D01*
X-1651000Y2549397D01*
X-1635252Y2554731D01*
X-1624837Y2554731D01*
X-1609344Y2549397D01*
X-1598929Y2538984D01*
X-1593850Y2523489D01*
X-1593850Y2507995D01*
X-1598929Y2492247D01*
X-1604010Y2487168D01*
X-1614423Y2481834D01*
X1270685Y2976067D02*
G01*
X1258999Y2976653D01*
X1244899Y2973062D01*
X1235293Y2966585D01*
X1224879Y2948546D01*
X1224071Y2936986D01*
X1227884Y2922762D01*
X1234363Y2913156D01*
X1245334Y2900662D01*
X1267772Y2887708D01*
X1283855Y2884581D01*
X1295415Y2883773D01*
X1309641Y2887583D01*
X1319248Y2894063D01*
X1329662Y2912102D01*
X1330469Y2923659D01*
X1326530Y2937664D01*
X1320177Y2947492D01*
X1265392Y3018716D02*
G01*
X1359761Y2964233D01*
X1265392Y3018716D02*
G01*
X1396083Y3027146D01*
X1301714Y3081629D02*
G01*
X1396083Y3027146D01*
X1336898Y3100910D02*
G01*
X1337485Y3112597D01*
X1331940Y3133981D01*
X1426309Y3079498D01*
X-394208Y166878D02*
G01*
X-404622Y161544D01*
X-415036Y151132D01*
X-420115Y140972D01*
X-420115Y120142D01*
X-415038Y109728D01*
X-404622Y99313D01*
X-394208Y93979D01*
X-378459Y88900D01*
X-352552Y88900D01*
X-337058Y93979D01*
X-326643Y99313D01*
X-316229Y109728D01*
X-311150Y120142D01*
X-311150Y140970D01*
X-316229Y151129D01*
X-326643Y161544D01*
X-337058Y166878D01*
X-420118Y201168D02*
G01*
X-311150Y201168D01*
X-420118Y201168D02*
G01*
X-311150Y273812D01*
X-420115Y273814D02*
G01*
X-311150Y273812D01*
X-394208Y313436D02*
G01*
X-399288Y313436D01*
X-409702Y318515D01*
X-415038Y323850D01*
X-420118Y334010D01*
X-420115Y354837D01*
X-415036Y365254D01*
X-409702Y370586D01*
X-399288Y375665D01*
X-388871Y375665D01*
X-378459Y370586D01*
X-362965Y360171D01*
X-311150Y308102D01*
X-311150Y381000D01*
X2133894Y3945463D02*
G01*
X2119673Y3949275D01*
X2103714Y3945928D01*
X2085675Y3935516D01*
X2074799Y3923367D01*
X2070986Y3909141D01*
X2076193Y3900121D01*
X2085799Y3893644D01*
X2093086Y3891691D01*
X2104641Y3892499D01*
X2136909Y3899100D01*
X2148248Y3899781D01*
X2155532Y3897828D01*
X2165139Y3891348D01*
X2172886Y3877932D01*
X2169076Y3863705D01*
X2158197Y3851559D01*
X2140158Y3841145D01*
X2124202Y3837797D01*
X2109975Y3841610D01*
X2155847Y3976027D02*
G01*
X2232987Y3894739D01*
X2200940Y4002062D02*
G01*
X2232987Y3894739D01*
X2200940Y4002062D02*
G01*
X2277861Y3920647D01*
X2245814Y4027970D02*
G01*
X2277861Y3920647D01*
X2285923Y4027076D02*
G01*
X2292276Y4036903D01*
X2298169Y4058196D01*
X2352652Y3963827D01*
X1749016Y-128811D02*
G01*
X1738856Y-118397D01*
X1723108Y-113317D01*
X1702280Y-113317D01*
X1686786Y-118397D01*
X1676372Y-128811D01*
X1676369Y-139225D01*
X1681706Y-149639D01*
X1686786Y-154719D01*
X1697200Y-160053D01*
X1728442Y-170467D01*
X1738858Y-175547D01*
X1743938Y-180881D01*
X1749016Y-191295D01*
X1749016Y-206789D01*
X1738856Y-217205D01*
X1723108Y-222283D01*
X1702280Y-222283D01*
X1686786Y-217203D01*
X1676372Y-206789D01*
X1783306Y-113317D02*
G01*
X1809468Y-222283D01*
X1835376Y-113317D02*
G01*
X1809468Y-222283D01*
X1835376Y-113317D02*
G01*
X1861284Y-222283D01*
X1887446Y-113317D02*
G01*
X1861284Y-222283D01*
X1926813Y-139225D02*
G01*
X1926813Y-134145D01*
X1931893Y-123731D01*
X1937230Y-118397D01*
X1947644Y-113317D01*
X1968472Y-113317D01*
X1978886Y-118397D01*
X1983966Y-123731D01*
X1989046Y-134145D01*
X1989046Y-144559D01*
X1983966Y-154719D01*
X1973552Y-170467D01*
X1921733Y-222283D01*
X1994380Y-222283D01*
X1434594Y2351278D02*
G01*
X1424175Y2345946D01*
X1413763Y2335529D01*
X1408686Y2325370D01*
X1408684Y2304542D01*
X1413763Y2294125D01*
X1424175Y2283713D01*
X1434594Y2278379D01*
X1450340Y2273300D01*
X1476250Y2273300D01*
X1491741Y2278382D01*
X1502153Y2283713D01*
X1512570Y2294128D01*
X1517650Y2304544D01*
X1517650Y2325370D01*
X1512572Y2335532D01*
X1502153Y2345946D01*
X1491741Y2351280D01*
X1408684Y2395984D02*
G01*
X1408684Y2453134D01*
X1450342Y2421889D01*
X1450345Y2437386D01*
X1455422Y2447800D01*
X1460502Y2453131D01*
X1476250Y2458212D01*
X1486659Y2458212D01*
X1502158Y2453137D01*
X1512572Y2442718D01*
X1517650Y2426970D01*
X1517652Y2411476D01*
X1512572Y2395981D01*
X1507490Y2390647D01*
X1497075Y2385568D01*
X255777Y813310D02*
G01*
X250446Y823729D01*
X240029Y834138D01*
X229872Y839215D01*
X209041Y839215D01*
X198627Y834138D01*
X188213Y823729D01*
X182879Y813310D01*
X177800Y797565D01*
X177797Y771654D01*
X182879Y756157D01*
X188213Y745751D01*
X198630Y735329D01*
X209041Y730252D01*
X229872Y730252D01*
X240029Y735332D01*
X250446Y745751D01*
X255775Y756160D01*
X341884Y839218D02*
G01*
X290068Y766571D01*
X368045Y766571D01*
X341884Y839218D02*
G01*
X341881Y730252D01*
X255777Y940310D02*
G01*
X250446Y950729D01*
X240029Y961138D01*
X229872Y966215D01*
X209041Y966215D01*
X198627Y961138D01*
X188213Y950729D01*
X182879Y940310D01*
X177800Y924565D01*
X177797Y898654D01*
X182879Y883157D01*
X188213Y872751D01*
X198630Y862329D01*
X209041Y857252D01*
X229872Y857252D01*
X240029Y862332D01*
X250446Y872751D01*
X255775Y883160D01*
X352295Y966218D02*
G01*
X300481Y966215D01*
X295147Y919479D01*
X300484Y924562D01*
X315975Y929896D01*
X331470Y929896D01*
X347218Y924565D01*
X357634Y914397D01*
X362711Y898657D01*
X362711Y888240D01*
X357637Y872746D01*
X347218Y862332D01*
X331470Y857252D01*
X315975Y857252D01*
X300481Y862332D01*
X295147Y867410D01*
X290068Y877826D01*
X1498089Y3532372D02*
G01*
X1487670Y3527036D01*
X1477261Y3516622D01*
X1472184Y3506464D01*
X1472181Y3485634D01*
X1477261Y3475225D01*
X1487670Y3464806D01*
X1498091Y3459477D01*
X1513837Y3454394D01*
X1539742Y3454397D01*
X1555234Y3459474D01*
X1565648Y3464806D01*
X1576067Y3475222D01*
X1581147Y3485639D01*
X1581147Y3506470D01*
X1576070Y3516627D01*
X1565648Y3527036D01*
X1555239Y3532375D01*
X1487670Y3628895D02*
G01*
X1477261Y3623815D01*
X1472184Y3608064D01*
X1472181Y3597907D01*
X1477261Y3582154D01*
X1493006Y3571737D01*
X1518914Y3566655D01*
X1544825Y3566660D01*
X1565650Y3571745D01*
X1576070Y3582159D01*
X1581142Y3597910D01*
X1581147Y3602979D01*
X1576064Y3618484D01*
X1565653Y3628892D01*
X1550159Y3634234D01*
X1544825Y3634229D01*
X1529334Y3628887D01*
X1518917Y3618478D01*
X1513837Y3602984D01*
X1513837Y3597904D01*
X1518917Y3582156D01*
X1529331Y3571740D01*
X1544825Y3566660D01*
X1777654Y2995137D02*
G01*
X1765965Y2995724D01*
X1751744Y2991906D01*
X1742267Y2985658D01*
X1731848Y2967614D01*
X1731043Y2956054D01*
X1734850Y2941835D01*
X1741205Y2932005D01*
X1752302Y2919732D01*
X1774741Y2906781D01*
X1790697Y2903430D01*
X1802381Y2902846D01*
X1816610Y2906648D01*
X1826216Y2913128D01*
X1836633Y2931170D01*
X1837314Y2942508D01*
X1833496Y2956735D01*
X1827151Y2966557D01*
X1808685Y3100689D02*
G01*
X1877141Y3001337D01*
X1772363Y3037786D02*
G01*
X1808685Y3100689D01*
X2516720Y3647467D02*
G01*
X2523078Y3657295D01*
X2526885Y3671521D01*
X2526207Y3682857D01*
X2515788Y3700899D01*
X2506184Y3707373D01*
X2491966Y3711194D01*
X2480271Y3710599D01*
X2464097Y3707127D01*
X2441656Y3694170D01*
X2430777Y3682022D01*
X2424432Y3672202D01*
X2420614Y3657975D01*
X2421422Y3646413D01*
X2431839Y3628372D01*
X2441318Y3622116D01*
X2455547Y3618306D01*
X2467226Y3618898D01*
X2569255Y3608285D02*
G01*
X2557109Y3619167D01*
X2545430Y3618580D01*
X2536405Y3613376D01*
X2530058Y3603543D01*
X2530642Y3591859D01*
X2536527Y3571499D01*
X2540007Y3555324D01*
X2536195Y3541100D01*
X2529715Y3531488D01*
X2516075Y3523620D01*
X2504518Y3522812D01*
X2497449Y3524890D01*
X2485301Y3535768D01*
X2474892Y3553805D01*
X2471541Y3569764D01*
X2473274Y3576927D01*
X2479756Y3586530D01*
X2493396Y3594404D01*
X2504953Y3595212D01*
X2519182Y3591399D01*
X2531452Y3580302D01*
X2546134Y3565024D01*
X2555963Y3558677D01*
X2567650Y3559261D01*
X2576675Y3564468D01*
X2583017Y3574298D01*
X2579667Y3590251D01*
X2569255Y3608285D01*
X-736607Y3201415D02*
G01*
X-736610Y3092450D01*
X-736610Y3092450D02*
G01*
X-674382Y3092452D01*
X-640087Y3201421D02*
G01*
X-640090Y3092450D01*
X-640087Y3201421D02*
G01*
X-603516Y3201421D01*
X-588025Y3196338D01*
X-577608Y3185924D01*
X-572526Y3175507D01*
X-567194Y3159765D01*
X-567189Y3133854D01*
X-572528Y3118360D01*
X-577608Y3107946D01*
X-588020Y3097529D01*
X-603516Y3092452D01*
X-640090Y3092450D01*
X-501662Y3201418D02*
G01*
X-512076Y3196341D01*
X-522490Y3185924D01*
X-527822Y3175507D01*
X-532904Y3159762D01*
X-532907Y3133854D01*
X-527824Y3118360D01*
X-522490Y3107946D01*
X-512076Y3097529D01*
X-501660Y3092452D01*
X-481088Y3092447D01*
X-470669Y3097529D01*
X-460255Y3107946D01*
X-454926Y3118360D01*
X-449849Y3133854D01*
X-449846Y3159762D01*
X-454924Y3175507D01*
X-460255Y3185924D01*
X-470672Y3196341D01*
X-481086Y3201418D01*
X-501662Y3201418D01*
X-415556Y3180593D02*
G01*
X-405142Y3185927D01*
X-389643Y3201415D01*
X-389648Y3092452D01*
X1326634Y3795575D02*
G01*
X1381117Y3701206D01*
X1381117Y3701206D02*
G01*
X1435008Y3732321D01*
X1410223Y3843835D02*
G01*
X1464706Y3749466D01*
X1410223Y3843835D02*
G01*
X1468734Y3877614D01*
X1436131Y3798961D02*
G01*
X1472206Y3819789D01*
X1464706Y3749466D02*
G01*
X1523217Y3783248D01*
X1498429Y3894759D02*
G01*
X1552912Y3800393D01*
X1498429Y3894759D02*
G01*
X1530106Y3913047D01*
X1546067Y3916395D01*
X1560291Y3912585D01*
X1569897Y3906105D01*
X1582389Y3895138D01*
X1595343Y3872697D01*
X1598472Y3856611D01*
X1599280Y3845054D01*
X1595467Y3830828D01*
X1584589Y3818681D01*
X1552912Y3800393D01*
X1601673Y3930317D02*
G01*
X1608023Y3940147D01*
X1613695Y3961307D01*
X1668178Y3866941D01*
D12*
X-1001567Y3842257D02*
G01*
X-934036Y3803269D01*
X-918077Y3799921D01*
X-903851Y3803733D01*
X-891578Y3814831D01*
X-886371Y3823850D01*
X-883023Y3839809D01*
X-886835Y3854033D01*
X-897714Y3866179D01*
X-965245Y3905168D01*
X-898232Y3990251D02*
G01*
X-912459Y3986438D01*
X-924732Y3975341D01*
X-935019Y3957523D01*
X-938494Y3941343D01*
X-934681Y3927119D01*
X-925662Y3921912D01*
X-913975Y3921323D01*
X-906818Y3923055D01*
X-897211Y3929534D01*
X-872571Y3951384D01*
X-862965Y3957863D01*
X-855804Y3959595D01*
X-844120Y3959009D01*
X-830701Y3951262D01*
X-826889Y3937035D01*
X-830364Y3920858D01*
X-840651Y3903040D01*
X-852924Y3891940D01*
X-867150Y3888130D01*
X-894506Y4027693D02*
G01*
X-800138Y3973210D01*
X-894506Y4027693D02*
G01*
X-871138Y4068168D01*
X-858992Y4079046D01*
X-851705Y4080997D01*
X-840145Y4080189D01*
X-831126Y4074982D01*
X-824649Y4065376D01*
X-822916Y4058218D01*
X-826264Y4042260D01*
X-849632Y4001785D02*
G01*
X-826264Y4042260D01*
X-813897Y4053011D01*
X-806831Y4055089D01*
X-795271Y4054281D01*
X-781634Y4046407D01*
X-775154Y4036801D01*
X-773422Y4029643D01*
X-776770Y4013685D01*
X-800138Y3973210D01*
X-823000Y4109887D02*
G01*
X-822413Y4121571D01*
X-828085Y4142737D01*
X-733717Y4088254D01*
G36*
X-507695Y1757222D02*
G01*
X-507695Y1655622D01*
X-431495Y1706422D01*
G37*
G36*
X-710895Y1998472D02*
G01*
X-761695Y1922272D01*
X-660095Y1922272D01*
G37*
G36*
X-563626Y1835912D02*
G01*
X-533146Y1767332D01*
X-489966Y1825752D01*
G37*
G36*
X-830326Y1919782D02*
G01*
X-835406Y1838452D01*
X-761695Y1871522D01*
G37*
D13*
X-111920Y2589095D02*
G01*
X-61120Y2538295D01*
X-61120Y836495D01*
X-111920Y785695D01*
X-1331120Y785695D01*
X-1381920Y836495D01*
X-1381920Y2538295D01*
X-1331120Y2589095D01*
X-111920Y2589095D01*
X-456920Y1706397D02*
G01*
X-710920Y1706397D01*
X-710920Y1960397D01*
D11*
X-126060Y3048030D02*
G01*
X-126060Y2969021D01*
X-26339Y2969021D02*
G01*
X-26339Y3048030D01*
X-41579Y3063270D02*
G01*
X-110820Y3063270D01*
X-126060Y2844769D02*
G01*
X-126060Y2923778D01*
X-26339Y2923778D02*
G01*
X-26339Y2844769D01*
X-41579Y2829529D02*
G01*
X-110820Y2829529D01*
X-431830Y2629839D02*
G01*
X-352821Y2629839D01*
X-352821Y2729560D02*
G01*
X-431830Y2729560D01*
X-447070Y2714320D02*
G01*
X-447070Y2645079D01*
X-228569Y2629839D02*
G01*
X-307578Y2629839D01*
X-307578Y2729560D02*
G01*
X-228569Y2729560D01*
X-213329Y2714320D02*
G01*
X-213329Y2645079D01*
D14*
X125811Y3124192D02*
G01*
X139801Y3124192D01*
X12801Y3124192D02*
G01*
X26784Y3124192D01*
X12801Y2946392D02*
G01*
X12801Y2933293D01*
X26791Y2933293D01*
X26791Y2933293D02*
G01*
X26791Y2946392D01*
X139801Y2957728D02*
G01*
X139801Y2933852D01*
X125818Y2933293D02*
G01*
X138300Y2933293D01*
X125818Y2933293D02*
G01*
X125818Y2946392D01*
X26791Y2946392D02*
G01*
X12801Y2946392D01*
X135813Y2946392D02*
G01*
X125818Y2946392D01*
X139801Y2946392D02*
G01*
X139801Y3124192D01*
X38201Y3054342D02*
G01*
X114401Y3054342D01*
X76301Y3016242D01*
X38201Y3054342D01*
X135813Y2946392D02*
G01*
X139801Y2946392D01*
X12801Y2946392D02*
G01*
X16789Y2946392D01*
X12801Y2946392D02*
G01*
X12801Y3124192D01*
X76301Y3086092D02*
G01*
X76301Y2984492D01*
X38201Y3009892D02*
G01*
X114401Y3009892D01*
X101693Y2655590D02*
G01*
X101693Y2641600D01*
X101693Y2768600D02*
G01*
X101693Y2754617D01*
X-76106Y2768600D02*
G01*
X-89204Y2768600D01*
X-89204Y2754609D01*
X-89204Y2754609D02*
G01*
X-76106Y2754609D01*
X-64770Y2641600D02*
G01*
X-88645Y2641600D01*
X-89204Y2655582D02*
G01*
X-89204Y2643101D01*
X-89204Y2655582D02*
G01*
X-76106Y2655582D01*
X-76106Y2754609D02*
G01*
X-76106Y2768600D01*
X-76106Y2645587D02*
G01*
X-76106Y2655582D01*
X-76106Y2641600D02*
G01*
X101693Y2641600D01*
X31843Y2743200D02*
G01*
X31843Y2667000D01*
X-6256Y2705100D01*
X31843Y2743200D01*
X-76106Y2645587D02*
G01*
X-76106Y2641600D01*
X-76106Y2768600D02*
G01*
X-76106Y2764612D01*
X-76106Y2768600D02*
G01*
X101693Y2768600D01*
X63593Y2705100D02*
G01*
X-38006Y2705100D01*
X-12606Y2743200D02*
G01*
X-12606Y2667000D01*
D11*
X401360Y3318418D02*
G01*
X401360Y3437430D01*
X401360Y3133178D02*
G01*
X401360Y3014169D01*
X386120Y3452670D02*
G01*
X198079Y3452670D01*
X386120Y2998929D02*
G01*
X198079Y2998929D01*
X182839Y3437430D02*
G01*
X182839Y3318418D01*
X182839Y3014169D02*
G01*
X182839Y3133178D01*
D13*
X1006510Y3688288D02*
G01*
X1138494Y3764488D01*
D15*
X-1889787Y2113909D02*
G01*
X-1869615Y2113909D01*
X-1969701Y2113909D02*
G01*
X-1969615Y2113909D01*
X-1839788Y2203912D02*
G01*
X-1789701Y2203912D01*
X-1969701Y2203912D02*
G01*
X-1919615Y2203912D01*
X-1969701Y2203912D02*
G01*
X-1969701Y2113909D01*
X-1789701Y2203912D02*
G01*
X-1789701Y2113909D01*
X-1789788Y2113909D02*
G01*
X-1789701Y2113909D01*
X-1870377Y1999188D02*
G01*
X-1890549Y1999188D01*
X-1790463Y1999188D02*
G01*
X-1790550Y1999188D01*
X-1920377Y1909185D02*
G01*
X-1970463Y1909185D01*
X-1790463Y1909185D02*
G01*
X-1840550Y1909185D01*
X-1790463Y1909185D02*
G01*
X-1790463Y1999188D01*
X-1970463Y1909185D02*
G01*
X-1970463Y1999188D01*
X-1970377Y1999188D02*
G01*
X-1970463Y1999188D01*
D13*
X-1737527Y1630679D02*
G01*
X-1437512Y1630679D01*
X-1437512Y2057400D01*
X-1441221Y2057400D02*
G01*
X-1737512Y2057400D01*
X-1737527Y1917700D02*
G01*
X-1737527Y2057400D01*
X-1737527Y1630679D02*
G01*
X-1737527Y1770379D01*
D11*
X238739Y1303578D02*
G01*
X238739Y1207691D01*
X370860Y1207691D01*
X370860Y1303578D01*
X238739Y1388821D02*
G01*
X238739Y1484708D01*
X370860Y1484708D01*
X370860Y1388821D01*
X920869Y1377878D02*
G01*
X884969Y1315697D01*
X798606Y1365557D01*
X834509Y1427739D01*
X943490Y1417060D02*
G01*
X979393Y1479242D01*
X893030Y1529102D01*
X857130Y1466921D01*
X407339Y1394221D02*
G01*
X407339Y1466024D01*
X507060Y1466024D01*
X507060Y1394221D01*
X407339Y1348978D02*
G01*
X407339Y1277175D01*
X507060Y1277175D01*
X507060Y1348978D01*
X-1953021Y2274239D02*
G01*
X-2024824Y2274239D01*
X-2024824Y2373960D01*
X-1953021Y2373960D01*
X-1907778Y2274239D02*
G01*
X-1835975Y2274239D01*
X-1835975Y2373960D01*
X-1907778Y2373960D01*
X-1903237Y1739315D02*
G01*
X-1975040Y1739315D01*
X-1975040Y1839036D01*
X-1903237Y1839036D01*
X-1857994Y1739315D02*
G01*
X-1786191Y1739315D01*
X-1786191Y1839036D01*
X-1857994Y1839036D01*
X634060Y1348978D02*
G01*
X634060Y1277175D01*
X534339Y1277175D01*
X534339Y1348978D01*
X634060Y1394221D02*
G01*
X634060Y1466024D01*
X534339Y1466024D01*
X534339Y1394221D01*
X917178Y-75260D02*
G01*
X845375Y-75260D01*
X845375Y24460D01*
X917178Y24460D01*
X962421Y-75260D02*
G01*
X1034224Y-75260D01*
X1034224Y24460D01*
X962421Y24460D01*
X917178Y-202260D02*
G01*
X845375Y-202260D01*
X845375Y-102539D01*
X917178Y-102539D01*
X962421Y-202260D02*
G01*
X1034224Y-202260D01*
X1034224Y-102539D01*
X962421Y-102539D01*
X1718190Y4031239D02*
G01*
X1754093Y3969057D01*
X1667730Y3919197D01*
X1631830Y3981378D01*
X1695569Y4070421D02*
G01*
X1659669Y4132602D01*
X1573306Y4082742D01*
X1609209Y4020560D01*
X-1778939Y2644378D02*
G01*
X-1778939Y2572575D01*
X-1878660Y2572575D01*
X-1878660Y2644378D01*
X-1778939Y2689621D02*
G01*
X-1778939Y2761424D01*
X-1878660Y2761424D01*
X-1878660Y2689621D01*
X1336278Y3468039D02*
G01*
X1264475Y3468039D01*
X1264475Y3567760D01*
X1336278Y3567760D01*
X1381521Y3468039D02*
G01*
X1453324Y3468039D01*
X1453324Y3567760D01*
X1381521Y3567760D01*
X-82478Y3448169D02*
G01*
X-20297Y3412269D01*
X-70157Y3325906D01*
X-132339Y3361809D01*
X-121660Y3470790D02*
G01*
X-183842Y3506693D01*
X-233702Y3420330D01*
X-171521Y3384430D01*
X1336278Y3595039D02*
G01*
X1264475Y3595039D01*
X1264475Y3694760D01*
X1336278Y3694760D01*
X1381521Y3595039D02*
G01*
X1453324Y3595039D01*
X1453324Y3694760D01*
X1381521Y3694760D01*
X-1615678Y2716860D02*
G01*
X-1543875Y2716860D01*
X-1543875Y2617139D01*
X-1615678Y2617139D01*
X-1660921Y2716860D02*
G01*
X-1732724Y2716860D01*
X-1732724Y2617139D01*
X-1660921Y2617139D01*
X-1289121Y3587630D02*
G01*
X-1351302Y3623530D01*
X-1301442Y3709893D01*
X-1239260Y3673990D01*
X-1249939Y3565009D02*
G01*
X-1187757Y3529106D01*
X-1137897Y3615469D01*
X-1200078Y3651369D01*
X2265939Y3222109D02*
G01*
X2203757Y3186206D01*
X2153897Y3272569D01*
X2216078Y3308469D01*
X2305121Y3244730D02*
G01*
X2367302Y3280630D01*
X2317442Y3366993D01*
X2255260Y3331090D01*
X64439Y162321D02*
G01*
X64439Y234124D01*
X164160Y234124D01*
X164160Y162321D01*
X64439Y117078D02*
G01*
X64439Y45275D01*
X164160Y45275D01*
X164160Y117078D01*
X64439Y378221D02*
G01*
X64439Y450024D01*
X164160Y450024D01*
X164160Y378221D01*
X64439Y332978D02*
G01*
X64439Y261175D01*
X164160Y261175D01*
X164160Y332978D01*
X-801039Y117078D02*
G01*
X-801039Y45275D01*
X-900760Y45275D01*
X-900760Y117078D01*
X-801039Y162321D02*
G01*
X-801039Y234124D01*
X-900760Y234124D01*
X-900760Y162321D01*
X-900760Y378221D02*
G01*
X-900760Y450024D01*
X-801039Y450024D01*
X-801039Y378221D01*
X-900760Y332978D02*
G01*
X-900760Y261175D01*
X-801039Y261175D01*
X-801039Y332978D01*
D13*
X-848553Y2739468D02*
G01*
X-848553Y2899468D01*
X-548553Y2899468D02*
G01*
X-548553Y2739468D01*
X1376111Y1960641D02*
G01*
X1382996Y1972569D01*
X1276111Y1787436D02*
G01*
X1282997Y1799363D01*
X1176111Y1614233D02*
G01*
X1182997Y1626158D01*
X1076111Y1441028D02*
G01*
X1082997Y1452953D01*
X976111Y1267823D02*
G01*
X982997Y1279748D01*
X876112Y1094618D02*
G01*
X882997Y1106545D01*
X776112Y921412D02*
G01*
X782998Y933340D01*
X833932Y607585D02*
G01*
X654674Y711080D01*
X682998Y760135D01*
X1006960Y507687D02*
G01*
X995210Y514471D01*
X1180056Y407751D02*
G01*
X1168239Y414573D01*
X1353327Y307713D02*
G01*
X1341333Y314637D01*
X1526466Y207751D02*
G01*
X1514604Y214599D01*
X1699668Y107751D02*
G01*
X1687743Y114637D01*
X2068591Y-39837D02*
G01*
X2040270Y-88892D01*
X1860948Y14638D01*
X2168591Y133367D02*
G01*
X2161705Y121439D01*
X2268590Y306572D02*
G01*
X2261704Y294645D01*
X2368590Y479775D02*
G01*
X2361704Y467850D01*
X2468590Y652980D02*
G01*
X2461704Y641055D01*
X2568590Y826185D02*
G01*
X2561704Y814260D01*
X2668590Y999390D02*
G01*
X2661704Y987463D01*
X2768589Y1172596D02*
G01*
X2761703Y1160668D01*
X1476110Y2133846D02*
G01*
X1854563Y2789346D01*
X3240158Y1989373D02*
G01*
X2861703Y1333873D01*
X2680352Y1619760D02*
G01*
X1814327Y2119759D01*
X2064326Y2552771D01*
X2150930Y2502771D01*
X2000930Y2242964D01*
X2087532Y2192964D01*
X2237531Y2452771D01*
X2324135Y2402771D01*
X2174135Y2142964D01*
X2260737Y2092965D01*
X2410736Y2352771D01*
X2497340Y2302771D01*
X2347340Y2042965D01*
X2433942Y1992965D01*
X2583941Y2252771D01*
X3103554Y1952772D01*
X1577726Y1909953D02*
G01*
X927727Y784120D01*
X1966955Y184122D01*
X2616954Y1309954D01*
X1577726Y1909953D01*
X1591124Y2133155D02*
G01*
X2803555Y1433156D01*
X1854520Y2789372D02*
G01*
X3240158Y1989373D01*
X-1247244Y2718871D02*
G01*
X-1593654Y2918871D01*
X-1333840Y3346216D02*
G01*
X-1219276Y3280074D01*
X-1125418Y3225883D02*
G01*
X-1007059Y3157550D01*
X2302306Y3413371D02*
G01*
X1967953Y3220331D01*
X2060666Y3836984D02*
G01*
X1724113Y3642674D01*
X2304506Y3414641D02*
G01*
X2060666Y3836984D01*
X1967953Y3220331D02*
G01*
X1724113Y3642674D01*
X-1750060Y2425700D02*
G01*
X-1750060Y2265679D01*
X-1750060Y2265679D02*
G01*
X-1651000Y2265679D01*
X-1750060Y2425700D02*
G01*
X-1750060Y2585720D01*
X-1750060Y2585720D02*
G01*
X-1651000Y2585720D01*
X-1651000Y2585720D02*
G01*
X-1551939Y2585720D01*
X-1551939Y2585720D02*
G01*
X-1551939Y2425700D01*
X-1651000Y2265679D02*
G01*
X-1551939Y2265679D01*
X-1551939Y2265679D02*
G01*
X-1551939Y2425700D01*
X1665112Y3245850D02*
G01*
X1703979Y3223409D01*
X1568978Y2989585D01*
X981270Y2753860D02*
G01*
X948451Y2772808D01*
X1332450Y3437912D01*
X1365267Y3418964D01*
X1459539Y2786032D02*
G01*
X1326042Y2554805D01*
X1281112Y2580746D01*
X-618299Y-448703D02*
G01*
X-114300Y-448703D01*
X-668299Y-298704D02*
G01*
X-76200Y-298704D01*
X-63500Y698035D02*
G01*
X-63500Y751296D01*
X-63500Y334906D02*
G01*
X-63500Y511764D01*
X-63500Y-42329D02*
G01*
X-63500Y157106D01*
X-63500Y-298704D02*
G01*
X-63500Y-216364D01*
X-668299Y-226435D02*
G01*
X-668299Y-298704D01*
X-668299Y154564D02*
G01*
X-668299Y-33393D01*
X-668299Y520329D02*
G01*
X-668299Y333636D01*
X-618299Y-298704D02*
G01*
X-618299Y-448703D01*
X-668299Y751296D02*
G01*
X-668299Y704595D01*
X-668299Y751296D02*
G01*
X-68300Y751296D01*
X-114300Y-448703D02*
G01*
X-114300Y-298704D01*
D12*
X2024252Y4262226D02*
G01*
X1851047Y4162226D01*
X1844672Y4158546D02*
G01*
X1851047Y4162226D01*
X1809048Y4234972D01*
X1982251Y4334972D01*
X2024252Y4262226D01*
X2030628Y4265907D01*
X1870793Y3878026D02*
G01*
X1831726Y3945691D01*
X2216444Y4077586D02*
G01*
X2260503Y4103024D01*
X2221435Y4170692D01*
X2105952Y4013794D02*
G01*
X2120308Y4022082D01*
X2008438Y3957495D02*
G01*
X2022795Y3965783D01*
X1870793Y3878026D02*
G01*
X1912305Y3901991D01*
X1271600Y-214099D02*
G01*
X1471599Y-214099D01*
X1478960Y-214099D02*
G01*
X1471599Y-214099D01*
X1471599Y-298099D01*
X1271600Y-298099D01*
X1271600Y-214099D01*
X1264239Y-214099D01*
X1596600Y41899D02*
G01*
X1596600Y-36235D01*
X1197477Y41899D02*
G01*
X1146601Y41899D01*
X1146601Y-36235D01*
X1325062Y41899D02*
G01*
X1308486Y41899D01*
X1437660Y41899D02*
G01*
X1421084Y41899D01*
X1596600Y41899D02*
G01*
X1548668Y41899D01*
D11*
X1383360Y2171669D02*
G01*
X1383360Y2250678D01*
X1283639Y2250678D02*
G01*
X1283639Y2171669D01*
X1298879Y2156429D02*
G01*
X1368120Y2156429D01*
X1383360Y2374930D02*
G01*
X1383360Y2295921D01*
X1283639Y2295921D02*
G01*
X1283639Y2374930D01*
X1298879Y2390170D02*
G01*
X1368120Y2390170D01*
X609630Y837260D02*
G01*
X530621Y837260D01*
X530621Y737539D02*
G01*
X609630Y737539D01*
X624870Y752779D02*
G01*
X624870Y822020D01*
X406369Y837260D02*
G01*
X485378Y837260D01*
X485378Y737539D02*
G01*
X406369Y737539D01*
X391129Y752779D02*
G01*
X391129Y822020D01*
X609630Y964260D02*
G01*
X530621Y964260D01*
X530621Y864539D02*
G01*
X609630Y864539D01*
X624870Y879779D02*
G01*
X624870Y949020D01*
X406369Y964260D02*
G01*
X485378Y964260D01*
X485378Y864539D02*
G01*
X406369Y864539D01*
X391129Y879779D02*
G01*
X391129Y949020D01*
X1562516Y3652504D02*
G01*
X1630939Y3692009D01*
X1581078Y3778369D02*
G01*
X1512656Y3738864D01*
X1507075Y3718046D02*
G01*
X1541696Y3658082D01*
X1738543Y3754135D02*
G01*
X1670121Y3714630D01*
X1620260Y3800990D02*
G01*
X1688683Y3840495D01*
X1709503Y3834917D02*
G01*
X1744124Y3774953D01*
X1694162Y2668351D02*
G01*
X1733669Y2736776D01*
X1647304Y2786639D02*
G01*
X1607799Y2718216D01*
X1613382Y2697396D02*
G01*
X1673346Y2662775D01*
X1795795Y2844383D02*
G01*
X1756290Y2775960D01*
X1669930Y2825821D02*
G01*
X1709435Y2894243D01*
X1730250Y2899818D02*
G01*
X1790212Y2865203D01*
X2280904Y3898483D02*
G01*
X2320409Y3830060D01*
X2406769Y3879921D02*
G01*
X2367264Y3948343D01*
X2346446Y3953924D02*
G01*
X2286482Y3919303D01*
X2382535Y3722456D02*
G01*
X2343030Y3790878D01*
X2429390Y3840739D02*
G01*
X2468895Y3772316D01*
X2463317Y3751496D02*
G01*
X2403353Y3716875D01*
D13*
X-240195Y3063308D02*
G01*
X-420197Y3063306D01*
X-240195Y2948307D02*
G01*
X-240195Y2868305D01*
X-240195Y2753304D02*
G01*
X-420197Y2753304D01*
X1467975Y3909717D02*
G01*
X1438003Y3961630D01*
X1382529Y3989715D02*
G01*
X1486456Y4049717D01*
X1382529Y3989715D02*
G01*
X1393471Y3970761D01*
X1486456Y4049717D02*
G01*
X1497398Y4030764D01*
X1482778Y3989859D02*
G01*
X1436204Y3962971D01*
X1466700Y3910152D02*
G01*
X1513273Y3937040D01*
X-197048Y3538153D02*
G01*
X-262989Y3423940D01*
X12011Y3900256D02*
G01*
X-73934Y3751392D01*
X-976469Y3988153D02*
G01*
X-1052410Y3856619D01*
X12011Y3900256D02*
G01*
X-767410Y4350255D01*
X-853356Y4201391D01*
G75*
G01*
X-533121Y1604797D02*
G02*
X-533121Y1807997I29637J101600D01*
G75*
G01*
X-609321Y1884197D02*
G02*
X-812521Y1884197I-101600J29628D01*
D11*
G75*
G01*
X-26340Y3048030D02*
G03*
X-41580Y3063270I-15240J0D01*
G75*
G01*
X-110820Y3063270D02*
G03*
X-126060Y3048030I0J-15240D01*
G75*
G01*
X-26340Y2844770D02*
G02*
X-41580Y2829530I-15240J0D01*
G75*
G01*
X-110820Y2829530D02*
G02*
X-126060Y2844770I0J15240D01*
G75*
G01*
X-431830Y2729560D02*
G03*
X-447070Y2714320I0J-15240D01*
G75*
G01*
X-447070Y2645080D02*
G03*
X-431830Y2629840I15240J0D01*
G75*
G01*
X-228570Y2729560D02*
G02*
X-213330Y2714320I0J-15240D01*
G75*
G01*
X-213330Y2645080D02*
G02*
X-228570Y2629840I-15240J0D01*
D16*
G75*
G01*
X292100Y3225800D02*
G02*
X376596Y3225800I42248J-73175D01*
G75*
G01*
X292100Y3225800D02*
G02*
X207604Y3225800I-42248J73175D01*
D13*
G75*
G01*
X1145009Y3788804D02*
G03*
X981573Y3699855I-60882J-82759D01*
D17*
G75*
G01*
X-1761249Y1584960D02*
G03*
X-1760995Y1584960I127J-15001D01*
D13*
G75*
G01*
X-1737528Y1917700D02*
G02*
X-1737528Y1772920I0J-72390D01*
G75*
G01*
X-1125418Y3225884D02*
G02*
X-1219187Y3280067I-46705J27402D01*
D17*
G75*
G01*
X2356462Y3421174D02*
G03*
X2356335Y3421395I12942J7585D01*
D11*
G75*
G01*
X1283640Y2171670D02*
G03*
X1298880Y2156430I15240J0D01*
G75*
G01*
X1368120Y2156430D02*
G03*
X1383360Y2171670I0J15240D01*
G75*
G01*
X1283640Y2374930D02*
G02*
X1298880Y2390170I15240J0D01*
G75*
G01*
X1368120Y2390170D02*
G02*
X1383360Y2374930I0J-15240D01*
G75*
G01*
X609630Y737540D02*
G03*
X624870Y752780I0J15240D01*
G75*
G01*
X624870Y822020D02*
G03*
X609630Y837260I-15240J0D01*
G75*
G01*
X406370Y737540D02*
G02*
X391130Y752780I0J15240D01*
G75*
G01*
X391130Y822020D02*
G02*
X406370Y837260I15240J0D01*
G75*
G01*
X609630Y864540D02*
G03*
X624870Y879780I0J15240D01*
G75*
G01*
X624870Y949020D02*
G03*
X609630Y964260I-15240J0D01*
G75*
G01*
X406370Y864540D02*
G02*
X391130Y879780I0J15240D01*
G75*
G01*
X391130Y949020D02*
G02*
X406370Y964260I15240J0D01*
G75*
G01*
X1512656Y3738865D02*
G03*
X1507076Y3718047I7619J-13199D01*
G75*
G01*
X1541696Y3658083D02*
G03*
X1562517Y3652505I13199J7619D01*
G75*
G01*
X1688683Y3840495D02*
G02*
X1709504Y3834917I7622J-13197D01*
G75*
G01*
X1744124Y3774953D02*
G02*
X1738544Y3754135I-13199J-7619D01*
G75*
G01*
X1607800Y2718217D02*
G03*
X1613383Y2697396I13198J-7620D01*
G75*
G01*
X1673347Y2662776D02*
G03*
X1694162Y2668351I7619J13199D01*
G75*
G01*
X1709435Y2894244D02*
G02*
X1730251Y2899819I13196J-7624D01*
G75*
G01*
X1790212Y2865204D02*
G02*
X1795795Y2844383I-7615J-13201D01*
G75*
G01*
X2367265Y3948344D02*
G03*
X2346447Y3953924I-13199J-7619D01*
G75*
G01*
X2286483Y3919304D02*
G03*
X2280905Y3898483I7619J-13199D01*
G75*
G01*
X2468895Y3772317D02*
G02*
X2463317Y3751496I-13197J-7622D01*
G75*
G01*
X2403353Y3716876D02*
G02*
X2382535Y3722456I-7619J13199D01*
D13*
G75*
G01
X-685521Y1706397D02*
G03X-685521Y1706397I-25400J0D01*
D15*
G75*
G01
X-1973986Y2082902D02*
G03X-1973986Y2082902I-6706J0D01*
G75*
G01
X-1772742Y2030171D02*
G03X-1772742Y2030171I-6706J0D01*
D13*
G75*
G01
X-588340Y3031947D02*
G03X-588340Y3031947I-12700J0D01*
G75*
G01
X1477645Y2214296D02*
G03X1477645Y2214296I-28397J0D01*
G75*
G01
X-1381481Y3414751D02*
G03X-1381481Y3414751I-17120J0D01*
G75*
G01
X-1574800Y2326640D02*
G03X-1574800Y2326640I-25400J0D01*
G75*
G01
X1657172Y2978328D02*
G03X1657172Y2978328I-12700J0D01*
G75*
G01
X-469900Y3073400D02*
G03X-469900Y3073400I-12700J0D01*
M02*
